<?xml version="1.0" encoding="UTF-8" standalone="no"?>
<svg
   xmlns:dc="http://purl.org/dc/elements/1.1/"
   xmlns:cc="http://creativecommons.org/ns#"
   xmlns:rdf="http://www.w3.org/1999/02/22-rdf-syntax-ns#"
   xmlns:svg="http://www.w3.org/2000/svg"
   xmlns="http://www.w3.org/2000/svg"
   xmlns:sodipodi="http://sodipodi.sourceforge.net/DTD/sodipodi-0.dtd"
   xmlns:inkscape="http://www.inkscape.org/namespaces/inkscape"
   width="100"
   height="125"
   viewBox="0 0 26.458333 33.072917"
   version="1.1"
   id="svg1872"
   inkscape:version="1.0.1 (3bc2e813f5, 2020-09-07)"
   sodipodi:docname="benchmarkStatus.svg">
  <defs
     id="defs1866">
    <filter
       inkscape:collect="always"
       style="color-interpolation-filters:sRGB"
       id="filter1206"
       x="-0.0079253661"
       width="1.0158507"
       y="-0.0085204812"
       height="1.017041">
      <feGaussianBlur
         inkscape:collect="always"
         stdDeviation="0.11277783"
         id="feGaussianBlur1208" />
    </filter>
  </defs>
  <sodipodi:namedview
     id="base"
     pagecolor="#ffffff"
     bordercolor="#666666"
     borderopacity="1.0"
     inkscape:pageopacity="0.0"
     inkscape:pageshadow="2"
     inkscape:zoom="2"
     inkscape:cx="56.519872"
     inkscape:cy="74.693198"
     inkscape:document-units="mm"
     inkscape:current-layer="layer1"
     inkscape:document-rotation="0"
     showgrid="false"
     units="px"
     inkscape:window-width="1920"
     inkscape:window-height="997"
     inkscape:window-x="1920"
     inkscape:window-y="28"
     inkscape:window-maximized="1" />
  <metadata
     id="metadata1869">
    <rdf:RDF>
      <cc:Work
         rdf:about="">
        <dc:format>image/svg+xml</dc:format>
        <dc:type
           rdf:resource="http://purl.org/dc/dcmitype/StillImage" />
        <dc:title></dc:title>
      </cc:Work>
    </rdf:RDF>
  </metadata>
  <g
     inkscape:label="Layer 1"
     inkscape:groupmode="layer"
     id="layer1">
    <g
       id="g2649"
       transform="matrix(0.96681912,0,0,0.96681912,-0.84466354,-0.44776972)">
      <g
         id="g1667"
         style="font-style:normal;font-weight:normal;font-size:10.5833px;line-height:1.25;font-family:sans-serif;letter-spacing:0px;word-spacing:0px;white-space:pre;fill:#6426ca;fill-opacity:1;stroke:none"
         transform="matrix(0.77410977,0,0,0.77410977,-28.145944,-40.073143)">
        <g
           id="g1192"
           transform="translate(-0.09233192,0.24691905)"
           style="fill:#808080;filter:url(#filter1206)">
          <path
             d="m 41.365995,69.366114 q -0.851709,0.491735 -1.499687,0.332803 -0.647977,-0.158933 -1.129676,-0.99326 -0.699133,-1.210933 -0.520018,-2.171847 0.175769,-0.966709 1.212884,-1.565488 0.278109,-0.160566 0.587219,-0.254056 0.305765,-0.09928 0.509931,-0.09355 0.165158,0.0051 0.211991,0.08619 0.05018,0.08691 0.02796,0.316041 -0.01977,0.219996 -0.08929,0.260137 -0.01738,0.01004 -0.17585,0.01655 -0.156018,-0.0026 -0.365739,0.04893 -0.203922,0.04821 -0.447267,0.188706 -0.706861,0.408106 -0.794233,1.099746 -0.09072,0.685847 0.444503,1.612877 0.344549,0.596776 0.778327,0.732597 0.439572,0.132474 0.995789,-0.188658 0.272315,-0.157221 0.435859,-0.328893 0.165994,-0.180811 0.317706,-0.399735 0.0626,-0.105665 0.09736,-0.125736 0.06952,-0.04014 0.213544,0.06212 0.149807,0.09891 0.199984,0.185823 0.03011,0.05214 0.009,0.149329 -0.02449,0.09139 -0.09043,0.191264 -0.12854,0.205541 -0.387234,0.439876 -0.252902,0.230987 -0.542598,0.398244 z"
             style="font-style:italic;font-variant:normal;font-weight:500;font-stretch:normal;font-family:Asap;-inkscape-font-specification:'Asap Medium Italic';fill:#808080;fill-opacity:1;stroke-width:0.632153"
             id="path1123" />
          <path
             d="m 45.688269,66.870648 q -0.266521,0.153876 -0.497447,0.101795 -0.230925,-0.05208 -0.401526,-0.347572 -0.05352,-0.0927 -0.07783,-0.148199 l -0.689642,-1.502247 q -0.01427,-0.03811 -0.04772,-0.09605 -0.210744,-0.365018 -0.569968,-0.15762 -0.237552,0.13715 -0.363161,0.441428 -0.119815,0.300934 -0.04299,0.781894 l 0.799616,1.78639 q 0.03434,0.07287 -0.01755,0.156915 -0.05525,0.07825 -0.182716,0.151841 l -0.06373,0.03679 q -0.127466,0.07359 -0.220409,0.07318 -0.08715,-0.0038 -0.114805,-0.06505 l -1.927118,-4.341401 q -0.06625,-0.154883 0.19448,-0.305414 l 0.06373,-0.03679 q 0.133261,-0.07694 0.220409,-0.07318 0.08959,-0.0054 0.11815,0.07084 l 0.786234,1.763214 q 0.04981,-0.368668 0.225354,-0.639975 0.172201,-0.277102 0.438722,-0.430978 0.376607,-0.217434 0.674851,-0.142416 0.298244,0.07502 0.502297,0.428447 0.05352,0.0927 0.07448,0.142404 l 0.731576,1.60164 q 0.113976,0.250931 0.293587,0.147233 0.06373,-0.03679 0.111637,-0.08763 0.0479,-0.05083 0.06528,-0.06087 0.04056,-0.02341 0.07066,0.02873 0.05687,0.0985 0.114872,0.265864 0.04038,0.123464 -0.05363,0.254997 -0.09402,0.13153 -0.21569,0.201778 z"
             style="font-style:italic;font-variant:normal;font-weight:500;font-stretch:normal;font-family:Asap;-inkscape-font-specification:'Asap Medium Italic';fill:#808080;fill-opacity:1;stroke-width:0.632153"
             id="path1125" />
          <path
             d="m 46.978658,64.449262 q -0.301284,0.173947 -0.556457,0.267196 l 0.0067,0.01159 q 0.254231,0.44034 0.551579,0.500423 0.303141,0.05674 0.679747,-0.160695 0.237551,-0.137151 0.386162,-0.307925 0.148612,-0.170776 0.268905,-0.363835 0.0626,-0.105666 0.08577,-0.119046 0.02318,-0.01338 0.03566,-0.0051 0.01828,0.0049 0.04504,0.05125 0.08363,0.144849 0.14922,0.338737 0.06983,0.214615 -0.197761,0.50044 -0.270939,0.28003 -0.549049,0.440596 -0.585188,0.337859 -1.116565,0.273838 -0.534724,-0.06981 -0.916069,-0.730323 -0.501769,-0.869091 -0.390565,-1.613116 0.116997,-0.747372 0.870209,-1.182239 0.376606,-0.217433 0.681957,-0.223772 0.311145,-0.0097 0.516685,0.118855 0.202196,0.122746 0.30255,0.296564 0.317787,0.550423 0.03622,1.052897 -0.275772,0.499127 -0.889929,0.853711 z m -0.388773,-1.583251 q -0.365017,0.210743 -0.459625,0.5821 -0.09461,0.371358 0.08251,0.825318 l 0.370812,-0.214089 q 0.341843,-0.197363 0.602745,-0.494775 0.257558,-0.303206 0.08027,-0.610284 -0.09366,-0.162231 -0.283791,-0.18379 -0.184334,-0.0249 -0.392916,0.09552 z"
             style="font-style:italic;font-variant:normal;font-weight:500;font-stretch:normal;font-family:Asap;-inkscape-font-specification:'Asap Medium Italic';fill:#808080;fill-opacity:1;stroke-width:0.632153"
             id="path1127" />
          <path
             d="m 50.833267,63.900182 q -0.648921,0.374655 -1.143984,0.266492 -0.492613,-0.117303 -0.860577,-0.754636 -0.518496,-0.898061 -0.388117,-1.622256 0.132827,-0.733335 0.891832,-1.171547 0.307079,-0.177292 0.617984,-0.240913 0.310904,-0.06362 0.384497,0.06384 0.04348,0.07532 0.02282,0.280383 -0.01821,0.195922 -0.07615,0.229373 -0.02317,0.01338 -0.09204,0.01452 -0.143534,0.0056 -0.291073,0.04445 -0.145088,0.02969 -0.3247,0.133391 -0.446134,0.257575 -0.480528,0.733223 -0.03774,0.469854 0.336915,1.118775 0.234159,0.405576 0.512573,0.499767 0.284207,0.09085 0.660813,-0.126588 0.168025,-0.09701 0.27787,-0.214503 0.109846,-0.117493 0.223691,-0.268202 0.02228,-0.02831 0.03632,-0.04414 0.01648,-0.02497 0.02807,-0.03166 0.06373,-0.03679 0.197714,0.04808 0.133978,0.08488 0.184156,0.171787 0.08028,0.139054 -0.166584,0.420636 -0.250211,0.27579 -0.551496,0.449737 z"
             style="font-style:italic;font-variant:normal;font-weight:500;font-stretch:normal;font-family:Asap;-inkscape-font-specification:'Asap Medium Italic';fill:#808080;fill-opacity:1;stroke-width:0.632153"
             id="path1129" />
          <path
             d="m 52.601067,62.840917 q -0.139055,0.08028 -0.217064,0.07897 -0.07801,-0.0013 -0.121495,-0.07663 l -1.923772,-4.335614 q -0.07204,-0.151538 0.194481,-0.305415 l 0.06373,-0.03679 q 0.139054,-0.08028 0.217064,-0.07897 0.07801,0.0013 0.121494,0.07663 l 1.178575,2.656858 0.02318,-0.01338 0.440481,-1.899791 q 0.02759,-0.139532 0.276733,-0.283375 l 0.08111,-0.04683 q 0.110085,-0.06356 0.181404,-0.07383 0.07377,-0.01941 0.09384,0.01535 0.0301,0.05214 7.24e-4,0.161813 l -0.446275,1.903136 1.878295,0.831427 q 0.07401,0.03452 0.09073,0.06349 0.03345,0.05794 -0.0169,0.117907 -0.05369,0.05418 -0.210134,0.144496 l -0.0927,0.05352 q -0.121673,0.07025 -0.212823,0.0997 -0.09115,0.02945 -0.150225,-0.006 l -1.782663,-0.786212 -0.01983,0.01918 0.616049,1.37478 q 0.06625,0.154884 -0.200274,0.30876 z"
             style="font-style:italic;font-variant:normal;font-weight:500;font-stretch:normal;font-family:Asap;-inkscape-font-specification:'Asap Medium Italic';fill:#808080;fill-opacity:1;stroke-width:0.632153"
             id="path1131" />
          <path
             d="m 57.635341,59.973003 q -0.677891,0.391381 -1.065926,-0.280716 -0.02676,-0.04635 -0.08208,-0.168921 l -0.823927,-1.84188 -0.243346,0.140496 q -0.121673,0.07025 -0.201956,-0.06881 l -0.02765,-0.06129 -0.04193,-0.09939 q -0.05197,-0.116774 -0.04397,-0.183196 0.0047,-0.07221 0.07998,-0.115701 L 55.439469,57.14641 55.21749,56.494319 q -0.02945,-0.09115 0.0084,-0.159364 0.03787,-0.06821 0.159543,-0.138462 l 0.05214,-0.0301 q 0.127467,-0.07359 0.203028,-0.06314 0.07221,0.0047 0.110804,0.09826 l 0.273231,0.607051 0.41137,-0.237505 q 0.127466,-0.07359 0.211094,0.07126 l 0.03099,0.06708 0.04103,0.08446 q 0.05197,0.116774 0.04152,0.192335 -0.008,0.06642 -0.07753,0.106562 l -0.422958,0.244195 0.830618,1.853469 q 0.01427,0.03811 0.04438,0.09026 0.140495,0.243345 0.38384,0.10285 0.104292,-0.06021 0.15799,-0.11439 0.05949,-0.05752 0.07687,-0.06756 0.01738,-0.01004 0.02987,-0.0018 0.01494,-8.88e-4 0.035,0.03387 0.05687,0.0985 0.114872,0.265864 0.04618,0.12012 -0.05363,0.254997 -0.09402,0.13153 -0.244659,0.218503 z"
             style="font-style:italic;font-variant:normal;font-weight:500;font-stretch:normal;font-family:Asap;-inkscape-font-specification:'Asap Medium Italic';fill:#808080;fill-opacity:1;stroke-width:0.632153"
             id="path1133" />
          <path
             d="m 61.140667,57.949202 q -0.266521,0.153876 -0.497447,0.101795 -0.230926,-0.05208 -0.401527,-0.347572 -0.05352,-0.0927 -0.07783,-0.148199 L 59.474222,56.05298 q -0.01427,-0.03811 -0.04772,-0.09605 -0.210743,-0.365019 -0.569967,-0.157621 -0.237551,0.13715 -0.363161,0.441429 -0.119815,0.300933 -0.04299,0.781893 L 59.25,58.809021 q 0.03434,0.07287 -0.01756,0.156915 -0.05525,0.07825 -0.182718,0.151842 l -0.06373,0.03679 q -0.127467,0.07359 -0.220409,0.07318 -0.08715,-0.0038 -0.114805,-0.06505 L 56.72366,54.821293 q -0.06625,-0.154883 0.19448,-0.305414 l 0.06373,-0.03679 q 0.133261,-0.07694 0.220409,-0.07318 0.0896,-0.0054 0.11815,0.07084 l 0.786237,1.763212 q 0.04981,-0.368668 0.225355,-0.639975 0.172201,-0.277102 0.438722,-0.430978 0.376606,-0.217434 0.67485,-0.142416 0.298245,0.07502 0.502298,0.428447 0.05352,0.0927 0.07448,0.142404 l 0.731576,1.60164 q 0.113976,0.250932 0.293587,0.147233 0.06373,-0.03679 0.111638,-0.08763 0.0479,-0.05083 0.06528,-0.06087 0.04056,-0.02341 0.07066,0.02873 0.05687,0.0985 0.114872,0.265864 0.04038,0.123464 -0.05363,0.254997 -0.09402,0.131529 -0.215689,0.201777 z"
             style="font-style:italic;font-variant:normal;font-weight:500;font-stretch:normal;font-family:Asap;-inkscape-font-specification:'Asap Medium Italic';fill:#808080;fill-opacity:1;stroke-width:0.632153"
             id="path1135" />
          <path
             d="m 62.431055,55.527817 q -0.301285,0.173947 -0.556457,0.267196 l 0.0067,0.01159 q 0.254231,0.44034 0.551578,0.500424 0.303142,0.05674 0.679748,-0.160696 0.237551,-0.13715 0.386162,-0.307925 0.148611,-0.170775 0.268906,-0.363835 0.0626,-0.105665 0.08577,-0.119046 0.02317,-0.01338 0.03566,-0.0051 0.01828,0.0049 0.04504,0.05125 0.08363,0.144849 0.14922,0.338737 0.06983,0.214614 -0.197761,0.50044 -0.270939,0.280029 -0.549049,0.440596 -0.585187,0.337858 -1.116565,0.273838 -0.534724,-0.06981 -0.916069,-0.730324 -0.501769,-0.86909 -0.390566,-1.613115 0.116999,-0.747373 0.870211,-1.18224 0.376606,-0.217433 0.681956,-0.223771 0.311145,-0.0097 0.516685,0.118855 0.202197,0.122745 0.302551,0.296563 0.317787,0.550423 0.03622,1.052897 -0.275772,0.499127 -0.889929,0.853711 z m -0.388773,-1.583251 q -0.365018,0.210743 -0.459625,0.5821 -0.09461,0.371357 0.08251,0.825317 l 0.370812,-0.214088 q 0.341843,-0.197363 0.602746,-0.494776 0.257557,-0.303205 0.08026,-0.610284 -0.09366,-0.162231 -0.283791,-0.183789 -0.184334,-0.0249 -0.392916,0.09552 z"
             style="font-style:italic;font-variant:normal;font-weight:500;font-stretch:normal;font-family:Asap;-inkscape-font-specification:'Asap Medium Italic';fill:#808080;fill-opacity:1;stroke-width:0.632153"
             id="path1137" />
          <path
             d="m 45.373445,76.949487 q -0.388193,0.224124 -0.875013,0.103477 0.03214,0.135949 0.02748,0.208164 -0.0022,0.06307 -0.05501,0.132185 -0.05035,0.05997 -0.195203,0.1436 l -0.06952,0.04014 q -0.35343,0.204053 -0.429712,0.03179 l -1.89946,-4.28012 q -0.08966,-0.195441 0.257974,-0.39615 l 0.16223,-0.09366 q 0.16223,-0.09366 0.27345,-0.08835 0.117014,0.002 0.160501,0.07729 l 0.676502,1.533009 q 0.04294,-0.233374 0.172377,-0.423983 0.129435,-0.190607 0.338017,-0.311032 0.480896,-0.277646 0.955472,-0.111303 0.477025,0.157204 0.824919,0.759773 0.317787,0.550424 0.38237,1.07708 0.07038,0.523312 -0.111141,0.944846 -0.184861,0.415739 -0.596231,0.653243 z m -0.588374,-0.564156 q 0.347636,-0.200708 0.371579,-0.600794 0.0206,-0.40588 -0.297189,-0.956304 -0.180637,-0.312873 -0.385937,-0.387474 -0.208647,-0.08039 -0.475168,0.07348 -0.231757,0.133805 -0.258806,0.582036 l 0.357101,0.805835 q 0.05532,0.122569 0.154358,0.374397 l 0.07049,0.175609 q 0.260792,0.05029 0.46358,-0.06679 z"
             style="font-style:italic;font-variant:normal;font-weight:bold;font-stretch:normal;font-family:Asap;-inkscape-font-specification:'Asap Bold Italic';fill:#808080;fill-opacity:1;stroke-width:0.632153"
             id="path1139" />
          <path
             d="m 48.62687,72.027373 q 0.210744,0.365018 0.162488,0.709614 -0.04246,0.341251 -0.262807,0.615246 -0.220345,0.273997 -0.533218,0.454634 -0.318667,0.183982 -0.625984,0.307337 0.217193,0.322669 0.441428,0.363162 0.22089,0.0347 0.504793,-0.129213 0.347637,-0.200708 0.661757,-0.660175 0.06594,-0.09987 0.08912,-0.113252 0.04635,-0.02676 0.09318,0.05435 0.06356,0.110085 0.132254,0.255829 0.06535,0.13995 0.07897,0.217064 0.06004,0.25117 -0.195969,0.530307 -0.259351,0.273339 -0.578018,0.457321 -0.689478,0.398071 -1.225338,0.259385 -0.530066,-0.14203 -0.87796,-0.7446 -0.545256,-0.944411 -0.360043,-1.653914 0.185213,-0.709502 0.886279,-1.114263 0.434546,-0.250885 0.763968,-0.255671 0.331871,-0.01393 0.534964,0.123753 0.203092,0.137678 0.310136,0.323084 z m -1.248608,1.369805 q 0.370811,-0.214088 0.469485,-0.417836 0.09533,-0.209543 0.0084,-0.360186 -0.08028,-0.139054 -0.209782,-0.149265 -0.132843,-0.016 -0.295073,0.07766 -0.254933,0.147186 -0.30767,0.417116 -0.05029,0.260792 0.05658,0.593079 z"
             style="font-style:italic;font-variant:normal;font-weight:bold;font-stretch:normal;font-family:Asap;-inkscape-font-specification:'Asap Bold Italic';fill:#808080;fill-opacity:1;stroke-width:0.632153"
             id="path1141" />
          <path
             d="m 52.824355,71.697496 q 0.02897,-0.01673 0.0448,-0.0027 0.01828,0.0049 0.04169,0.04545 0.08028,0.139054 0.156807,0.365257 0.05801,0.167368 -0.05495,0.333007 -0.107158,0.162291 -0.280976,0.262645 -0.695272,0.401416 -1.100033,-0.299651 -0.05687,-0.0985 -0.08117,-0.153992 l -0.586599,-1.283629 q -0.08632,-0.189647 -0.208468,-0.227278 -0.125495,-0.04342 -0.299317,0.05693 -0.156436,0.09032 -0.229484,0.271548 -0.06725,0.177883 -0.07633,0.376255 l 0.878346,1.949515 q 0.08966,0.195442 -0.257974,0.39615 l -0.16223,0.09366 q -0.168025,0.09701 -0.285039,0.09504 -0.117014,-0.002 -0.148911,-0.08398 L 49.257586,71.848629 Q 49.126885,71.568728 49.059983,71.45285 L 48.9371,71.253411 q -0.02922,-0.03721 -0.07605,-0.118322 -0.05352,-0.0927 0.104226,-0.261032 0.15775,-0.168326 0.447447,-0.335583 0.179612,-0.103699 0.415324,0.277805 0.0436,-0.272379 0.2158,-0.549481 0.172201,-0.277101 0.427133,-0.424287 0.370813,-0.214088 0.659022,-0.156453 0.294002,0.05429 0.508091,0.425101 0.05352,0.0927 0.07783,0.148199 l 0.665329,1.446756 q 0.05532,0.122569 0.125978,0.151299 0.07645,0.02538 0.169159,-0.02814 0.05214,-0.03011 0.08846,-0.07425 0.04211,-0.04749 0.05949,-0.05752 z"
             style="font-style:italic;font-variant:normal;font-weight:bold;font-stretch:normal;font-family:Asap;-inkscape-font-specification:'Asap Bold Italic';fill:#808080;fill-opacity:1;stroke-width:0.632153"
             id="path1143" />
          <path
             d="m 54.892867,71.453446 q -0.666302,0.38469 -1.168055,0.264939 -0.501753,-0.119751 -0.859682,-0.739702 -0.531876,-0.921237 -0.38077,-1.649674 0.147761,-0.73423 0.964706,-1.205894 0.301285,-0.173947 0.639606,-0.230222 0.344116,-0.05962 0.44447,0.114198 0.03345,0.05794 0.03083,0.213958 -0.006,0.150224 -0.03936,0.293107 -0.03673,0.137086 -0.08308,0.163847 -0.02318,0.01338 -0.136845,0.01721 -0.143534,0.0056 -0.247171,0.02683 -0.106978,0.01541 -0.246032,0.0957 -0.370813,0.214089 -0.403896,0.611726 -0.02729,0.394292 0.2905,0.944716 0.190673,0.330255 0.411803,0.418892 0.223579,0.0795 0.501687,-0.08107 0.127467,-0.07359 0.212585,-0.153635 0.08756,-0.08918 0.14861,-0.170775 0.06104,-0.08159 0.08912,-0.113252 0.07263,-0.08828 0.08422,-0.09498 0.08691,-0.05018 0.258342,0.05943 0.177229,0.106259 0.240786,0.216343 0.08697,0.150643 -0.05315,0.362874 -0.137678,0.203093 -0.351814,0.380801 -0.214136,0.177707 -0.347397,0.254645 z"
             style="font-style:italic;font-variant:normal;font-weight:bold;font-stretch:normal;font-family:Asap;-inkscape-font-specification:'Asap Bold Italic';fill:#808080;fill-opacity:1;stroke-width:0.632153"
             id="path1145" />
          <path
             d="m 58.757417,69.222248 q -0.701066,0.40476 -1.079066,-0.249955 -0.05352,-0.0927 -0.07448,-0.142404 l -0.614256,-1.344914 q -0.08632,-0.189647 -0.208469,-0.227277 -0.125495,-0.04342 -0.299317,0.05693 -0.26652,0.153875 -0.307605,0.617935 l 0.880138,1.979383 q 0.08966,0.195441 -0.257974,0.39615 l -0.162229,0.09366 q -0.168025,0.09701 -0.285039,0.09504 -0.117014,-0.002 -0.148911,-0.08398 L 54.30499,66.153423 q -0.08966,-0.195441 0.257974,-0.396149 l 0.16223,-0.09366 q 0.168025,-0.09701 0.285038,-0.09504 0.117015,0.002 0.148911,0.08398 l 0.713298,1.596742 q 0.05943,-0.258342 0.227627,-0.502232 0.164855,-0.249685 0.396613,-0.38349 0.370812,-0.214088 0.659021,-0.156453 0.294002,0.05429 0.508091,0.425101 0.05352,0.0927 0.07783,0.148199 l 0.665329,1.446756 q 0.05532,0.122569 0.125978,0.151299 0.07645,0.02538 0.169159,-0.02814 0.05214,-0.0301 0.08846,-0.07425 0.04211,-0.04749 0.05949,-0.05752 0.02897,-0.01673 0.0448,-0.0027 0.01828,0.0049 0.04169,0.04545 0.08028,0.139055 0.156807,0.365258 0.058,0.167367 -0.05495,0.333007 -0.107158,0.162292 -0.280976,0.262646 z"
             style="font-style:italic;font-variant:normal;font-weight:bold;font-stretch:normal;font-family:Asap;-inkscape-font-specification:'Asap Bold Italic';fill:#808080;fill-opacity:1;stroke-width:0.632153"
             id="path1147" />
          <path
             d="m 63.803847,65.358483 q 0.02897,-0.01672 0.0448,-0.0027 0.01828,0.0049 0.04169,0.04545 0.08028,0.139054 0.156807,0.365258 0.05801,0.167367 -0.05495,0.333007 -0.107158,0.162291 -0.280975,0.262645 -0.695273,0.401416 -1.093344,-0.288062 -0.06021,-0.104291 -0.08786,-0.165581 l -0.586599,-1.283629 q -0.08632,-0.189647 -0.208468,-0.227278 -0.125496,-0.04342 -0.299317,0.05693 -0.144849,0.08363 -0.215448,0.255719 -0.07394,0.166295 -0.09216,0.362217 l 0.897521,1.969347 q 0.08966,0.195441 -0.257974,0.39615 l -0.162231,0.09366 q -0.168024,0.09701 -0.285038,0.09504 -0.120359,-0.0078 -0.155601,-0.09557 l -0.878346,-1.949517 q -0.08632,-0.189647 -0.208468,-0.227278 -0.125495,-0.04342 -0.299316,0.05693 -0.272315,0.157221 -0.304261,0.62373 l 0.888382,1.966898 q 0.08966,0.195441 -0.257974,0.39615 l -0.16223,0.09366 q -0.168024,0.09701 -0.285039,0.09504 -0.120358,-0.0078 -0.155601,-0.09557 l -0.20119,-0.455512 Q 58.57129,66.370901 58.393998,66.063822 l -0.122883,-0.199439 q -0.02922,-0.03721 -0.07605,-0.118322 -0.05352,-0.0927 0.104225,-0.261031 0.157751,-0.168327 0.447447,-0.335583 0.168025,-0.09701 0.408635,0.266217 0.05274,-0.269932 0.222489,-0.537893 0.166407,-0.273757 0.415547,-0.417598 0.602569,-0.347893 0.987611,0.02465 0.04115,-0.263239 0.224939,-0.547031 0.183789,-0.283792 0.444515,-0.434323 0.370813,-0.214089 0.659021,-0.156453 0.294003,0.05429 0.508091,0.425101 0.05352,0.0927 0.07783,0.148199 l 0.66533,1.446755 q 0.05532,0.12257 0.125977,0.1513 0.07645,0.02538 0.16916,-0.02814 0.05214,-0.03011 0.08846,-0.07425 0.04211,-0.04749 0.05949,-0.05752 z"
             style="font-style:italic;font-variant:normal;font-weight:bold;font-stretch:normal;font-family:Asap;-inkscape-font-specification:'Asap Bold Italic';fill:#808080;fill-opacity:1;stroke-width:0.632153"
             id="path1149" />
          <path
             d="m 65.464338,65.357731 q -0.428751,0.247539 -0.871012,0.07026 -0.445606,-0.183069 -0.793499,-0.785638 -0.317788,-0.550425 -0.399752,-1.067046 -0.08196,-0.516621 0.07393,-0.915635 0.15834,-0.408154 0.534946,-0.625588 0.22017,-0.127115 0.44751,-0.134764 0.233134,-0.011 0.430848,0.03708 -0.03549,-0.141743 -0.03328,-0.204819 -0.0011,-0.06887 0.05501,-0.132186 0.0528,-0.06911 0.19765,-0.152738 l 0.06952,-0.04014 q 0.173819,-0.100354 0.278348,-0.106629 0.104527,-0.0063 0.152256,0.08977 l 0.957973,2.127576 q 0.05531,0.122568 0.125978,0.151299 0.07645,0.02538 0.169159,-0.02814 0.05214,-0.03011 0.08846,-0.07425 0.04211,-0.04749 0.05949,-0.05752 0.02897,-0.01672 0.0448,-0.0027 0.01828,0.0049 0.04169,0.04545 0.08028,0.139054 0.156807,0.365257 0.058,0.167368 -0.05495,0.333008 -0.107158,0.162291 -0.280976,0.262645 -0.550424,0.317788 -0.920533,-0.05565 -0.01373,0.270585 -0.148721,0.518477 -0.138333,0.242097 -0.381679,0.382593 z m -0.0803,-0.888395 q 0.23755,-0.13715 0.257909,-0.596968 l -0.370481,-0.829011 q -0.159256,-0.356119 -0.201431,-0.50945 -0.269931,-0.05274 -0.472718,0.06434 -0.295492,0.170602 -0.28712,0.559756 0.01082,0.380016 0.328608,0.930441 0.351239,0.608362 0.745226,0.380893 z"
             style="font-style:italic;font-variant:normal;font-weight:bold;font-stretch:normal;font-family:Asap;-inkscape-font-specification:'Asap Bold Italic';fill:#808080;fill-opacity:1;stroke-width:0.632153"
             id="path1151" />
          <path
             d="m 68.007627,63.835286 q -0.168025,0.09701 -0.288384,0.08925 -0.120359,-0.0078 -0.162292,-0.107158 L 66.673468,61.832202 Q 66.53518,61.52578 66.4181,61.322991 66.36792,61.236081 66.32532,61.1757 q -0.04594,-0.06618 -0.06601,-0.100941 -0.05776,-0.113435 0.06367,-0.237615 0.123878,-0.133332 0.454132,-0.324004 0.202789,-0.11708 0.436708,0.234558 0.02287,-0.268139 0.112405,-0.474336 0.09198,-0.215336 0.312151,-0.342451 0.272315,-0.157221 0.426192,0.109301 0.08363,0.144848 0.110453,0.392019 0.03262,0.243824 -0.03111,0.280622 -0.02317,0.01338 -0.10029,0.027 -0.08046,0.0078 -0.167367,0.05801 -0.133261,0.07694 -0.219691,0.234988 -0.08978,0.152256 -0.113781,0.351525 l 0.878345,1.949517 q 0.09635,0.207029 -0.251284,0.407737 z"
             style="font-style:italic;font-variant:normal;font-weight:bold;font-stretch:normal;font-family:Asap;-inkscape-font-specification:'Asap Bold Italic';fill:#808080;fill-opacity:1;stroke-width:0.632153"
             id="path1153" />
          <path
             d="m 70.116614,62.617661 q -0.179612,0.103699 -0.281698,0.100827 -0.102078,-0.0029 -0.155601,-0.09557 l -1.891873,-4.253599 q -0.08966,-0.195441 0.257974,-0.396149 l 0.16223,-0.09366 q 0.179612,-0.103699 0.281694,-0.100836 0.102078,0.0029 0.155601,0.09557 l 1.081328,2.434894 0.02653,-0.0076 0.205681,-1.517021 q 0.012,-0.09963 0.08308,-0.163847 0.07353,-0.07335 0.218377,-0.15698 l 0.214376,-0.12377 q 0.156436,-0.09032 0.25093,-0.113975 0.09449,-0.02365 0.114562,0.01111 0.02341,0.04056 7.23e-4,0.161812 l -0.2589,1.679076 1.65102,1.039898 q 0.06242,0.04121 0.08918,0.08757 0.0301,0.05214 -0.02849,0.124597 -0.06194,0.06666 -0.247347,0.173705 l -0.243347,0.140497 q -0.283902,0.163911 -0.399606,0.08393 l -1.435682,-0.947915 -0.01982,0.01918 0.589287,1.32843 q 0.08966,0.19544 -0.257974,0.396148 z"
             style="font-style:italic;font-variant:normal;font-weight:bold;font-stretch:normal;font-family:Asap;-inkscape-font-specification:'Asap Bold Italic';fill:#808080;fill-opacity:1;stroke-width:0.632153"
             id="path1155" />
          <path
             d="m 48.991806,84.742052 q -0.312873,0.180637 -0.628019,0.223532 -0.312696,0.03375 -0.39967,-0.116887 -0.08363,-0.144849 -0.108181,-0.254276 -0.02455,-0.109429 0.02179,-0.136189 0.03476,-0.02007 0.142639,-0.02055 0.164261,-0.0099 0.31849,-0.0371 0.150882,-0.03304 0.3247,-0.133391 0.249139,-0.143841 0.339569,-0.335105 0.08709,-0.197059 -0.01996,-0.382465 -0.07694,-0.133261 -0.193294,-0.174235 -0.113908,-0.05011 -0.239168,-0.0396 -0.122809,0.0014 -0.348357,0.03889 -0.377327,0.05562 -0.673123,-0.02854 -0.29914,-0.08995 -0.479777,-0.402822 -0.250885,-0.434546 -0.09009,-0.851838 0.166583,-0.420637 0.630098,-0.688248 0.272315,-0.157221 0.56494,-0.225744 0.292624,-0.06852 0.376253,0.07633 0.04683,0.08111 0.03352,0.258759 -0.01666,0.171849 -0.0804,0.208646 -0.01738,0.01003 -0.118567,0.0221 -0.09873,0.0029 -0.210614,0.03662 -0.109427,0.02455 -0.248482,0.104836 -0.237551,0.137151 -0.320635,0.300998 -0.08308,0.163847 0.01058,0.326077 0.07359,0.127467 0.199088,0.170891 0.122149,0.03763 0.226685,0.03135 0.104527,-0.0063 0.393156,-0.04158 0.380672,-0.04982 0.658189,0.02943 0.279966,0.07012 0.467293,0.394579 0.170602,0.295492 0.156213,0.605083 -0.0086,0.306248 -0.189934,0.580899 -0.184686,0.268859 -0.51494,0.459532 z"
             style="font-style:italic;font-variant:normal;font-weight:500;font-stretch:normal;font-family:Asap;-inkscape-font-specification:'Asap Medium Italic';fill:#808080;fill-opacity:1;stroke-width:0.632153"
             id="path1157" />
          <path
             d="m 51.535334,83.273545 q -0.67789,0.39138 -1.065926,-0.280717 -0.02676,-0.04635 -0.08208,-0.16892 l -0.823927,-1.841881 -0.243343,0.140495 q -0.121673,0.07025 -0.201957,-0.06881 l -0.02765,-0.06129 -0.04194,-0.09939 q -0.05197,-0.116775 -0.04396,-0.183202 0.0047,-0.07221 0.07998,-0.1157 l 0.254932,-0.147186 -0.221979,-0.65209 q -0.02945,-0.09115 0.0084,-0.159363 0.03787,-0.06821 0.159542,-0.138461 l 0.05214,-0.03011 q 0.127467,-0.07359 0.203027,-0.06314 0.07221,0.0047 0.110803,0.09826 l 0.273231,0.60705 0.411369,-0.237504 q 0.127467,-0.07359 0.211096,0.07125 l 0.03099,0.06708 0.04103,0.08446 q 0.05197,0.116775 0.04152,0.192335 -0.008,0.06642 -0.07753,0.106562 l -0.422957,0.244195 0.830617,1.853468 q 0.01427,0.03811 0.04437,0.09026 0.140495,0.243345 0.38384,0.10285 0.104292,-0.06021 0.157989,-0.11439 0.05949,-0.05752 0.07688,-0.06756 0.01738,-0.01004 0.02987,-0.0018 0.01494,-8.88e-4 0.035,0.03387 0.05687,0.0985 0.114872,0.265864 0.04618,0.12012 -0.05363,0.254998 -0.09402,0.13153 -0.244659,0.218503 z"
             style="font-style:italic;font-variant:normal;font-weight:500;font-stretch:normal;font-family:Asap;-inkscape-font-specification:'Asap Medium Italic';fill:#808080;fill-opacity:1;stroke-width:0.632153"
             id="path1159" />
          <path
             d="m 53.557413,82.106097 q -0.237552,0.137151 -0.527969,0.142593 -0.290417,0.0054 -0.595832,-0.189039 -0.302967,-0.203619 -0.560542,-0.649752 -0.311097,-0.538837 -0.387267,-1.058803 -0.07038,-0.523311 0.108691,-0.935707 0.181516,-0.421532 0.587092,-0.655692 0.399782,-0.230814 0.901534,-0.111063 -0.03573,-0.19568 -0.01703,-0.283727 0.01869,-0.08804 0.148611,-0.170775 l 0.04636,-0.02676 q 0.115879,-0.0669 0.183196,-0.04397 0.06976,0.0138 0.117494,0.109845 l 1.034255,2.299841 q 0.113975,0.250932 0.293586,0.147233 0.06952,-0.04014 0.117432,-0.09097 0.0479,-0.05083 0.06528,-0.06087 0.04056,-0.02341 0.07066,0.02873 0.05687,0.0985 0.114872,0.265865 0.04038,0.123464 -0.05363,0.254998 -0.09402,0.13153 -0.215689,0.201777 -0.544631,0.314443 -0.893181,-0.249123 0.01082,0.380017 -0.131514,0.655325 -0.14568,0.269515 -0.406408,0.420046 z m -0.120554,-0.610221 q 0.196994,-0.113735 0.286944,-0.412875 0.0924,-0.308279 -0.0027,-0.794138 l -0.354648,-0.814977 q -0.111527,-0.26007 -0.148565,-0.377741 -0.372013,-0.0556 -0.702267,0.135071 -0.388194,0.224124 -0.385137,0.7245 0.0089,0.497031 0.33333,1.059042 0.451593,0.782181 0.973048,0.481119 z"
             style="font-style:italic;font-variant:normal;font-weight:500;font-stretch:normal;font-family:Asap;-inkscape-font-specification:'Asap Medium Italic';fill:#808080;fill-opacity:1;stroke-width:0.632153"
             id="path1161" />
          <path
             d="m 56.674541,80.306423 q -0.677891,0.39138 -1.065927,-0.280717 -0.02676,-0.04635 -0.08208,-0.16892 l -0.823927,-1.841881 -0.243346,0.140496 q -0.121672,0.07025 -0.201956,-0.06881 l -0.02765,-0.06129 -0.04194,-0.09939 q -0.05197,-0.116775 -0.04397,-0.183197 0.0047,-0.07221 0.07998,-0.1157 l 0.254934,-0.147186 -0.22198,-0.65209 q -0.02945,-0.09115 0.0084,-0.159364 0.03787,-0.06821 0.159541,-0.13846 l 0.05214,-0.03011 q 0.127466,-0.07359 0.203027,-0.06314 0.07221,0.0047 0.110803,0.09826 l 0.273231,0.60705 0.41137,-0.237505 q 0.127467,-0.07359 0.211095,0.07126 l 0.03099,0.06708 0.04103,0.08446 q 0.05197,0.116774 0.04152,0.192335 -0.008,0.06642 -0.07753,0.106562 l -0.422957,0.244194 0.830618,1.853468 q 0.01427,0.03811 0.04437,0.09026 0.140496,0.243346 0.383842,0.10285 0.10429,-0.06021 0.157989,-0.11439 0.05949,-0.05752 0.07687,-0.06756 0.01738,-0.01004 0.02987,-0.0018 0.01494,-8.87e-4 0.035,0.03387 0.05687,0.0985 0.114872,0.265864 0.04618,0.120121 -0.05363,0.254998 -0.09402,0.13153 -0.244658,0.218503 z"
             style="font-style:italic;font-variant:normal;font-weight:500;font-stretch:normal;font-family:Asap;-inkscape-font-specification:'Asap Medium Italic';fill:#808080;fill-opacity:1;stroke-width:0.632153"
             id="path1163" />
          <path
             d="m 60.223097,77.554664 q 0.04056,-0.02341 0.07066,0.02873 0.05687,0.0985 0.114872,0.265864 0.04618,0.120121 -0.04784,0.251653 -0.09402,0.13153 -0.21569,0.201778 -0.260727,0.150531 -0.482514,0.100899 -0.221786,-0.04963 -0.421358,-0.328398 -0.03977,0.38605 -0.216872,0.681429 -0.177098,0.29538 -0.449413,0.452601 -0.376606,0.217433 -0.674851,0.142416 -0.298243,-0.07502 -0.502296,-0.428447 -0.05352,-0.0927 -0.07448,-0.142405 L 56.334339,76.58613 q -0.06625,-0.154883 0.194481,-0.305414 l 0.06952,-0.04014 q 0.266522,-0.153877 0.332768,10e-4 l 0.94035,2.083674 q 0.01092,0.03232 0.04103,0.08446 0.217433,0.376606 0.617215,0.145792 0.214376,-0.12377 0.327501,-0.436291 0.113126,-0.312521 0.02047,-0.807518 L 58.101475,75.56586 q -0.06625,-0.154883 0.194481,-0.305414 l 0.06373,-0.03679 q 0.266521,-0.153876 0.338562,-0.0023 l 1.054326,2.334606 q 0.113975,0.250931 0.293586,0.147233 0.06373,-0.03679 0.111637,-0.08763 0.0479,-0.05083 0.06528,-0.06087 z"
             style="font-style:italic;font-variant:normal;font-weight:500;font-stretch:normal;font-family:Asap;-inkscape-font-specification:'Asap Medium Italic';fill:#808080;fill-opacity:1;stroke-width:0.632153"
             id="path1165" />
          <path
             d="m 61.732639,77.386128 q -0.312873,0.180638 -0.628019,0.223532 -0.312696,0.03376 -0.39967,-0.116887 -0.08363,-0.144849 -0.108181,-0.254275 -0.02455,-0.109429 0.0218,-0.136189 0.03476,-0.02007 0.142638,-0.02055 0.164262,-0.0099 0.31849,-0.0371 0.150882,-0.03304 0.324701,-0.133391 0.249139,-0.143841 0.339569,-0.335105 0.08709,-0.197059 -0.01996,-0.382465 -0.07694,-0.133261 -0.193294,-0.174235 -0.113908,-0.05011 -0.239168,-0.0396 -0.122808,0.0014 -0.348357,0.03889 -0.377327,0.05562 -0.673122,-0.02854 -0.299141,-0.08995 -0.479778,-0.402822 -0.250885,-0.434546 -0.0901,-0.851838 0.166583,-0.420637 0.630098,-0.688248 0.272316,-0.157221 0.56494,-0.225744 0.292624,-0.06852 0.376253,0.07633 0.04683,0.08111 0.03352,0.258759 -0.01666,0.171849 -0.08039,0.208646 -0.01738,0.01003 -0.118566,0.0221 -0.09873,0.0029 -0.210614,0.03662 -0.109427,0.02455 -0.248483,0.104837 -0.23755,0.13715 -0.320634,0.300998 -0.08308,0.163847 0.01058,0.326077 0.07359,0.127466 0.199088,0.170891 0.122149,0.03763 0.226684,0.03135 0.104527,-0.0063 0.393156,-0.04158 0.380672,-0.04983 0.658189,0.02943 0.279966,0.07012 0.467293,0.394579 0.170602,0.295492 0.156214,0.605083 -0.0086,0.306247 -0.189936,0.5809 -0.184684,0.268858 -0.514939,0.459531 z"
             style="font-style:italic;font-variant:normal;font-weight:500;font-stretch:normal;font-family:Asap;-inkscape-font-specification:'Asap Medium Italic';fill:#808080;fill-opacity:1;stroke-width:0.632153"
             id="path1167" />
        </g>
        <path
           d="m 41.365995,69.366114 q -0.851709,0.491735 -1.499687,0.332803 -0.647977,-0.158933 -1.129676,-0.99326 -0.699133,-1.210933 -0.520018,-2.171847 0.175769,-0.966709 1.212884,-1.565488 0.278109,-0.160566 0.587219,-0.254056 0.305765,-0.09928 0.509931,-0.09355 0.165158,0.0051 0.211991,0.08619 0.05018,0.08691 0.02796,0.316041 -0.01977,0.219996 -0.08929,0.260137 -0.01738,0.01004 -0.17585,0.01655 -0.156018,-0.0026 -0.365739,0.04893 -0.203922,0.04821 -0.447267,0.188706 -0.706861,0.408106 -0.794233,1.099746 -0.09072,0.685847 0.444503,1.612877 0.344549,0.596776 0.778327,0.732597 0.439572,0.132474 0.995789,-0.188658 0.272315,-0.157221 0.435859,-0.328893 0.165994,-0.180811 0.317706,-0.399735 0.0626,-0.105665 0.09736,-0.125736 0.06952,-0.04014 0.213544,0.06212 0.149807,0.09891 0.199984,0.185823 0.03011,0.05214 0.009,0.149329 -0.02449,0.09139 -0.09043,0.191264 -0.12854,0.205541 -0.387234,0.439876 -0.252902,0.230987 -0.542598,0.398244 z"
           style="font-style:italic;font-variant:normal;font-weight:500;font-stretch:normal;font-family:Asap;-inkscape-font-specification:'Asap Medium Italic';fill:#dc78f3;fill-opacity:1;stroke-width:0.632153"
           id="path942" />
        <path
           d="m 45.688269,66.870648 q -0.266521,0.153876 -0.497447,0.101795 -0.230925,-0.05208 -0.401526,-0.347572 -0.05352,-0.0927 -0.07783,-0.148199 l -0.689642,-1.502247 q -0.01427,-0.03811 -0.04772,-0.09605 -0.210744,-0.365018 -0.569968,-0.15762 -0.237552,0.13715 -0.363161,0.441428 -0.119815,0.300934 -0.04299,0.781894 l 0.799616,1.78639 q 0.03434,0.07287 -0.01755,0.156915 -0.05525,0.07825 -0.182716,0.151841 l -0.06373,0.03679 q -0.127466,0.07359 -0.220409,0.07318 -0.08715,-0.0038 -0.114805,-0.06505 l -1.927118,-4.341401 q -0.06625,-0.154883 0.19448,-0.305414 l 0.06373,-0.03679 q 0.133261,-0.07694 0.220409,-0.07318 0.08959,-0.0054 0.11815,0.07084 l 0.786234,1.763214 q 0.04981,-0.368668 0.225354,-0.639975 0.172201,-0.277102 0.438722,-0.430978 0.376607,-0.217434 0.674851,-0.142416 0.298244,0.07502 0.502297,0.428447 0.05352,0.0927 0.07448,0.142404 l 0.731576,1.60164 q 0.113976,0.250931 0.293587,0.147233 0.06373,-0.03679 0.111637,-0.08763 0.0479,-0.05083 0.06528,-0.06087 0.04056,-0.02341 0.07066,0.02873 0.05687,0.0985 0.114872,0.265864 0.04038,0.123464 -0.05363,0.254997 -0.09402,0.13153 -0.21569,0.201778 z"
           style="font-style:italic;font-variant:normal;font-weight:500;font-stretch:normal;font-family:Asap;-inkscape-font-specification:'Asap Medium Italic';fill:#dc78f3;fill-opacity:1;stroke-width:0.632153"
           id="path944" />
        <path
           d="m 46.978658,64.449262 q -0.301284,0.173947 -0.556457,0.267196 l 0.0067,0.01159 q 0.254231,0.44034 0.551579,0.500423 0.303141,0.05674 0.679747,-0.160695 0.237551,-0.137151 0.386162,-0.307925 0.148612,-0.170776 0.268905,-0.363835 0.0626,-0.105666 0.08577,-0.119046 0.02318,-0.01338 0.03566,-0.0051 0.01828,0.0049 0.04504,0.05125 0.08363,0.144849 0.14922,0.338737 0.06983,0.214615 -0.197761,0.50044 -0.270939,0.28003 -0.549049,0.440596 -0.585188,0.337859 -1.116565,0.273838 -0.534724,-0.06981 -0.916069,-0.730323 -0.501769,-0.869091 -0.390565,-1.613116 0.116997,-0.747372 0.870209,-1.182239 0.376606,-0.217433 0.681957,-0.223772 0.311145,-0.0097 0.516685,0.118855 0.202196,0.122746 0.30255,0.296564 0.317787,0.550423 0.03622,1.052897 -0.275772,0.499127 -0.889929,0.853711 z m -0.388773,-1.583251 q -0.365017,0.210743 -0.459625,0.5821 -0.09461,0.371358 0.08251,0.825318 l 0.370812,-0.214089 q 0.341843,-0.197363 0.602745,-0.494775 0.257558,-0.303206 0.08027,-0.610284 -0.09366,-0.162231 -0.283791,-0.18379 -0.184334,-0.0249 -0.392916,0.09552 z"
           style="font-style:italic;font-variant:normal;font-weight:500;font-stretch:normal;font-family:Asap;-inkscape-font-specification:'Asap Medium Italic';fill:#dc78f3;fill-opacity:1;stroke-width:0.632153"
           id="path946" />
        <path
           d="m 50.833267,63.900182 q -0.648921,0.374655 -1.143984,0.266492 -0.492613,-0.117303 -0.860577,-0.754636 -0.518496,-0.898061 -0.388117,-1.622256 0.132827,-0.733335 0.891832,-1.171547 0.307079,-0.177292 0.617984,-0.240913 0.310904,-0.06362 0.384497,0.06384 0.04348,0.07532 0.02282,0.280383 -0.01821,0.195922 -0.07615,0.229373 -0.02317,0.01338 -0.09204,0.01452 -0.143534,0.0056 -0.291073,0.04445 -0.145088,0.02969 -0.3247,0.133391 -0.446134,0.257575 -0.480528,0.733223 -0.03774,0.469854 0.336915,1.118775 0.234159,0.405576 0.512573,0.499767 0.284207,0.09085 0.660813,-0.126588 0.168025,-0.09701 0.27787,-0.214503 0.109846,-0.117493 0.223691,-0.268202 0.02228,-0.02831 0.03632,-0.04414 0.01648,-0.02497 0.02807,-0.03166 0.06373,-0.03679 0.197714,0.04808 0.133978,0.08488 0.184156,0.171787 0.08028,0.139054 -0.166584,0.420636 -0.250211,0.27579 -0.551496,0.449737 z"
           style="font-style:italic;font-variant:normal;font-weight:500;font-stretch:normal;font-family:Asap;-inkscape-font-specification:'Asap Medium Italic';fill:#dc78f3;fill-opacity:1;stroke-width:0.632153"
           id="path948" />
        <path
           d="m 52.601067,62.840917 q -0.139055,0.08028 -0.217064,0.07897 -0.07801,-0.0013 -0.121495,-0.07663 l -1.923772,-4.335614 q -0.07204,-0.151538 0.194481,-0.305415 l 0.06373,-0.03679 q 0.139054,-0.08028 0.217064,-0.07897 0.07801,0.0013 0.121494,0.07663 l 1.178575,2.656858 0.02318,-0.01338 0.440481,-1.899791 q 0.02759,-0.139532 0.276733,-0.283375 l 0.08111,-0.04683 q 0.110085,-0.06356 0.181404,-0.07383 0.07377,-0.01941 0.09384,0.01535 0.0301,0.05214 7.24e-4,0.161813 l -0.446275,1.903136 1.878295,0.831427 q 0.07401,0.03452 0.09073,0.06349 0.03345,0.05794 -0.0169,0.117907 -0.05369,0.05418 -0.210134,0.144496 l -0.0927,0.05352 q -0.121673,0.07025 -0.212823,0.0997 -0.09115,0.02945 -0.150225,-0.006 l -1.782663,-0.786212 -0.01983,0.01918 0.616049,1.37478 q 0.06625,0.154884 -0.200274,0.30876 z"
           style="font-style:italic;font-variant:normal;font-weight:500;font-stretch:normal;font-family:Asap;-inkscape-font-specification:'Asap Medium Italic';fill:#dc78f3;fill-opacity:1;stroke-width:0.632153"
           id="path950" />
        <path
           d="m 57.635341,59.973003 q -0.677891,0.391381 -1.065926,-0.280716 -0.02676,-0.04635 -0.08208,-0.168921 l -0.823927,-1.84188 -0.243346,0.140496 q -0.121673,0.07025 -0.201956,-0.06881 l -0.02765,-0.06129 -0.04193,-0.09939 q -0.05197,-0.116774 -0.04397,-0.183196 0.0047,-0.07221 0.07998,-0.115701 L 55.439469,57.14641 55.21749,56.494319 q -0.02945,-0.09115 0.0084,-0.159364 0.03787,-0.06821 0.159543,-0.138462 l 0.05214,-0.0301 q 0.127467,-0.07359 0.203028,-0.06314 0.07221,0.0047 0.110804,0.09826 l 0.273231,0.607051 0.41137,-0.237505 q 0.127466,-0.07359 0.211094,0.07126 l 0.03099,0.06708 0.04103,0.08446 q 0.05197,0.116774 0.04152,0.192335 -0.008,0.06642 -0.07753,0.106562 l -0.422958,0.244195 0.830618,1.853469 q 0.01427,0.03811 0.04438,0.09026 0.140495,0.243345 0.38384,0.10285 0.104292,-0.06021 0.15799,-0.11439 0.05949,-0.05752 0.07687,-0.06756 0.01738,-0.01004 0.02987,-0.0018 0.01494,-8.88e-4 0.035,0.03387 0.05687,0.0985 0.114872,0.265864 0.04618,0.12012 -0.05363,0.254997 -0.09402,0.13153 -0.244659,0.218503 z"
           style="font-style:italic;font-variant:normal;font-weight:500;font-stretch:normal;font-family:Asap;-inkscape-font-specification:'Asap Medium Italic';fill:#dc78f3;fill-opacity:1;stroke-width:0.632153"
           id="path952" />
        <path
           d="m 61.140667,57.949202 q -0.266521,0.153876 -0.497447,0.101795 -0.230926,-0.05208 -0.401527,-0.347572 -0.05352,-0.0927 -0.07783,-0.148199 L 59.474222,56.05298 q -0.01427,-0.03811 -0.04772,-0.09605 -0.210743,-0.365019 -0.569967,-0.157621 -0.237551,0.13715 -0.363161,0.441429 -0.119815,0.300933 -0.04299,0.781893 L 59.25,58.809021 q 0.03434,0.07287 -0.01756,0.156915 -0.05525,0.07825 -0.182718,0.151842 l -0.06373,0.03679 q -0.127467,0.07359 -0.220409,0.07318 -0.08715,-0.0038 -0.114805,-0.06505 L 56.72366,54.821293 q -0.06625,-0.154883 0.19448,-0.305414 l 0.06373,-0.03679 q 0.133261,-0.07694 0.220409,-0.07318 0.0896,-0.0054 0.11815,0.07084 l 0.786237,1.763212 q 0.04981,-0.368668 0.225355,-0.639975 0.172201,-0.277102 0.438722,-0.430978 0.376606,-0.217434 0.67485,-0.142416 0.298245,0.07502 0.502298,0.428447 0.05352,0.0927 0.07448,0.142404 l 0.731576,1.60164 q 0.113976,0.250932 0.293587,0.147233 0.06373,-0.03679 0.111638,-0.08763 0.0479,-0.05083 0.06528,-0.06087 0.04056,-0.02341 0.07066,0.02873 0.05687,0.0985 0.114872,0.265864 0.04038,0.123464 -0.05363,0.254997 -0.09402,0.131529 -0.215689,0.201777 z"
           style="font-style:italic;font-variant:normal;font-weight:500;font-stretch:normal;font-family:Asap;-inkscape-font-specification:'Asap Medium Italic';fill:#dc78f3;fill-opacity:1;stroke-width:0.632153"
           id="path954" />
        <path
           d="m 62.431055,55.527817 q -0.301285,0.173947 -0.556457,0.267196 l 0.0067,0.01159 q 0.254231,0.44034 0.551578,0.500424 0.303142,0.05674 0.679748,-0.160696 0.237551,-0.13715 0.386162,-0.307925 0.148611,-0.170775 0.268906,-0.363835 0.0626,-0.105665 0.08577,-0.119046 0.02317,-0.01338 0.03566,-0.0051 0.01828,0.0049 0.04504,0.05125 0.08363,0.144849 0.14922,0.338737 0.06983,0.214614 -0.197761,0.50044 -0.270939,0.280029 -0.549049,0.440596 -0.585187,0.337858 -1.116565,0.273838 -0.534724,-0.06981 -0.916069,-0.730324 -0.501769,-0.86909 -0.390566,-1.613115 0.116999,-0.747373 0.870211,-1.18224 0.376606,-0.217433 0.681956,-0.223771 0.311145,-0.0097 0.516685,0.118855 0.202197,0.122745 0.302551,0.296563 0.317787,0.550423 0.03622,1.052897 -0.275772,0.499127 -0.889929,0.853711 z m -0.388773,-1.583251 q -0.365018,0.210743 -0.459625,0.5821 -0.09461,0.371357 0.08251,0.825317 l 0.370812,-0.214088 q 0.341843,-0.197363 0.602746,-0.494776 0.257557,-0.303205 0.08026,-0.610284 -0.09366,-0.162231 -0.283791,-0.183789 -0.184334,-0.0249 -0.392916,0.09552 z"
           style="font-style:italic;font-variant:normal;font-weight:500;font-stretch:normal;font-family:Asap;-inkscape-font-specification:'Asap Medium Italic';fill:#dc78f3;fill-opacity:1;stroke-width:0.632153"
           id="path956" />
        <path
           d="m 45.373445,76.949487 q -0.388193,0.224124 -0.875013,0.103477 0.03214,0.135949 0.02748,0.208164 -0.0022,0.06307 -0.05501,0.132185 -0.05035,0.05997 -0.195203,0.1436 l -0.06952,0.04014 q -0.35343,0.204053 -0.429712,0.03179 l -1.89946,-4.28012 q -0.08966,-0.195441 0.257974,-0.39615 l 0.16223,-0.09366 q 0.16223,-0.09366 0.27345,-0.08835 0.117014,0.002 0.160501,0.07729 l 0.676502,1.533009 q 0.04294,-0.233374 0.172377,-0.423983 0.129435,-0.190607 0.338017,-0.311032 0.480896,-0.277646 0.955472,-0.111303 0.477025,0.157204 0.824919,0.759773 0.317787,0.550424 0.38237,1.07708 0.07038,0.523312 -0.111141,0.944846 -0.184861,0.415739 -0.596231,0.653243 z m -0.588374,-0.564156 q 0.347636,-0.200708 0.371579,-0.600794 0.0206,-0.40588 -0.297189,-0.956304 -0.180637,-0.312873 -0.385937,-0.387474 -0.208647,-0.08039 -0.475168,0.07348 -0.231757,0.133805 -0.258806,0.582036 l 0.357101,0.805835 q 0.05532,0.122569 0.154358,0.374397 l 0.07049,0.175609 q 0.260792,0.05029 0.46358,-0.06679 z"
           style="font-style:italic;font-variant:normal;font-weight:bold;font-stretch:normal;font-family:Asap;-inkscape-font-specification:'Asap Bold Italic';fill:#6426ca;fill-opacity:1;stroke-width:0.632153"
           id="path958" />
        <path
           d="m 48.62687,72.027373 q 0.210744,0.365018 0.162488,0.709614 -0.04246,0.341251 -0.262807,0.615246 -0.220345,0.273997 -0.533218,0.454634 -0.318667,0.183982 -0.625984,0.307337 0.217193,0.322669 0.441428,0.363162 0.22089,0.0347 0.504793,-0.129213 0.347637,-0.200708 0.661757,-0.660175 0.06594,-0.09987 0.08912,-0.113252 0.04635,-0.02676 0.09318,0.05435 0.06356,0.110085 0.132254,0.255829 0.06535,0.13995 0.07897,0.217064 0.06004,0.25117 -0.195969,0.530307 -0.259351,0.273339 -0.578018,0.457321 -0.689478,0.398071 -1.225338,0.259385 -0.530066,-0.14203 -0.87796,-0.7446 -0.545256,-0.944411 -0.360043,-1.653914 0.185213,-0.709502 0.886279,-1.114263 0.434546,-0.250885 0.763968,-0.255671 0.331871,-0.01393 0.534964,0.123753 0.203092,0.137678 0.310136,0.323084 z m -1.248608,1.369805 q 0.370811,-0.214088 0.469485,-0.417836 0.09533,-0.209543 0.0084,-0.360186 -0.08028,-0.139054 -0.209782,-0.149265 -0.132843,-0.016 -0.295073,0.07766 -0.254933,0.147186 -0.30767,0.417116 -0.05029,0.260792 0.05658,0.593079 z"
           style="font-style:italic;font-variant:normal;font-weight:bold;font-stretch:normal;font-family:Asap;-inkscape-font-specification:'Asap Bold Italic';fill:#6426ca;fill-opacity:1;stroke-width:0.632153"
           id="path960" />
        <path
           d="m 52.824355,71.697496 q 0.02897,-0.01673 0.0448,-0.0027 0.01828,0.0049 0.04169,0.04545 0.08028,0.139054 0.156807,0.365257 0.05801,0.167368 -0.05495,0.333007 -0.107158,0.162291 -0.280976,0.262645 -0.695272,0.401416 -1.100033,-0.299651 -0.05687,-0.0985 -0.08117,-0.153992 l -0.586599,-1.283629 q -0.08632,-0.189647 -0.208468,-0.227278 -0.125495,-0.04342 -0.299317,0.05693 -0.156436,0.09032 -0.229484,0.271548 -0.06725,0.177883 -0.07633,0.376255 l 0.878346,1.949515 q 0.08966,0.195442 -0.257974,0.39615 l -0.16223,0.09366 q -0.168025,0.09701 -0.285039,0.09504 -0.117014,-0.002 -0.148911,-0.08398 L 49.257586,71.848629 Q 49.126885,71.568728 49.059983,71.45285 L 48.9371,71.253411 q -0.02922,-0.03721 -0.07605,-0.118322 -0.05352,-0.0927 0.104226,-0.261032 0.15775,-0.168326 0.447447,-0.335583 0.179612,-0.103699 0.415324,0.277805 0.0436,-0.272379 0.2158,-0.549481 0.172201,-0.277101 0.427133,-0.424287 0.370813,-0.214088 0.659022,-0.156453 0.294002,0.05429 0.508091,0.425101 0.05352,0.0927 0.07783,0.148199 l 0.665329,1.446756 q 0.05532,0.122569 0.125978,0.151299 0.07645,0.02538 0.169159,-0.02814 0.05214,-0.03011 0.08846,-0.07425 0.04211,-0.04749 0.05949,-0.05752 z"
           style="font-style:italic;font-variant:normal;font-weight:bold;font-stretch:normal;font-family:Asap;-inkscape-font-specification:'Asap Bold Italic';fill:#6426ca;fill-opacity:1;stroke-width:0.632153"
           id="path962" />
        <path
           d="m 54.892867,71.453446 q -0.666302,0.38469 -1.168055,0.264939 -0.501753,-0.119751 -0.859682,-0.739702 -0.531876,-0.921237 -0.38077,-1.649674 0.147761,-0.73423 0.964706,-1.205894 0.301285,-0.173947 0.639606,-0.230222 0.344116,-0.05962 0.44447,0.114198 0.03345,0.05794 0.03083,0.213958 -0.006,0.150224 -0.03936,0.293107 -0.03673,0.137086 -0.08308,0.163847 -0.02318,0.01338 -0.136845,0.01721 -0.143534,0.0056 -0.247171,0.02683 -0.106978,0.01541 -0.246032,0.0957 -0.370813,0.214089 -0.403896,0.611726 -0.02729,0.394292 0.2905,0.944716 0.190673,0.330255 0.411803,0.418892 0.223579,0.0795 0.501687,-0.08107 0.127467,-0.07359 0.212585,-0.153635 0.08756,-0.08918 0.14861,-0.170775 0.06104,-0.08159 0.08912,-0.113252 0.07263,-0.08828 0.08422,-0.09498 0.08691,-0.05018 0.258342,0.05943 0.177229,0.106259 0.240786,0.216343 0.08697,0.150643 -0.05315,0.362874 -0.137678,0.203093 -0.351814,0.380801 -0.214136,0.177707 -0.347397,0.254645 z"
           style="font-style:italic;font-variant:normal;font-weight:bold;font-stretch:normal;font-family:Asap;-inkscape-font-specification:'Asap Bold Italic';fill:#6426ca;fill-opacity:1;stroke-width:0.632153"
           id="path964" />
        <path
           d="m 58.757417,69.222248 q -0.701066,0.40476 -1.079066,-0.249955 -0.05352,-0.0927 -0.07448,-0.142404 l -0.614256,-1.344914 q -0.08632,-0.189647 -0.208469,-0.227277 -0.125495,-0.04342 -0.299317,0.05693 -0.26652,0.153875 -0.307605,0.617935 l 0.880138,1.979383 q 0.08966,0.195441 -0.257974,0.39615 l -0.162229,0.09366 q -0.168025,0.09701 -0.285039,0.09504 -0.117014,-0.002 -0.148911,-0.08398 L 54.30499,66.153423 q -0.08966,-0.195441 0.257974,-0.396149 l 0.16223,-0.09366 q 0.168025,-0.09701 0.285038,-0.09504 0.117015,0.002 0.148911,0.08398 l 0.713298,1.596742 q 0.05943,-0.258342 0.227627,-0.502232 0.164855,-0.249685 0.396613,-0.38349 0.370812,-0.214088 0.659021,-0.156453 0.294002,0.05429 0.508091,0.425101 0.05352,0.0927 0.07783,0.148199 l 0.665329,1.446756 q 0.05532,0.122569 0.125978,0.151299 0.07645,0.02538 0.169159,-0.02814 0.05214,-0.0301 0.08846,-0.07425 0.04211,-0.04749 0.05949,-0.05752 0.02897,-0.01673 0.0448,-0.0027 0.01828,0.0049 0.04169,0.04545 0.08028,0.139055 0.156807,0.365258 0.058,0.167367 -0.05495,0.333007 -0.107158,0.162292 -0.280976,0.262646 z"
           style="font-style:italic;font-variant:normal;font-weight:bold;font-stretch:normal;font-family:Asap;-inkscape-font-specification:'Asap Bold Italic';fill:#6426ca;fill-opacity:1;stroke-width:0.632153"
           id="path966" />
        <path
           d="m 63.803847,65.358483 q 0.02897,-0.01672 0.0448,-0.0027 0.01828,0.0049 0.04169,0.04545 0.08028,0.139054 0.156807,0.365258 0.05801,0.167367 -0.05495,0.333007 -0.107158,0.162291 -0.280975,0.262645 -0.695273,0.401416 -1.093344,-0.288062 -0.06021,-0.104291 -0.08786,-0.165581 l -0.586599,-1.283629 q -0.08632,-0.189647 -0.208468,-0.227278 -0.125496,-0.04342 -0.299317,0.05693 -0.144849,0.08363 -0.215448,0.255719 -0.07394,0.166295 -0.09216,0.362217 l 0.897521,1.969347 q 0.08966,0.195441 -0.257974,0.39615 l -0.162231,0.09366 q -0.168024,0.09701 -0.285038,0.09504 -0.120359,-0.0078 -0.155601,-0.09557 l -0.878346,-1.949517 q -0.08632,-0.189647 -0.208468,-0.227278 -0.125495,-0.04342 -0.299316,0.05693 -0.272315,0.157221 -0.304261,0.62373 l 0.888382,1.966898 q 0.08966,0.195441 -0.257974,0.39615 l -0.16223,0.09366 q -0.168024,0.09701 -0.285039,0.09504 -0.120358,-0.0078 -0.155601,-0.09557 l -0.20119,-0.455512 Q 58.57129,66.370901 58.393998,66.063822 l -0.122883,-0.199439 q -0.02922,-0.03721 -0.07605,-0.118322 -0.05352,-0.0927 0.104225,-0.261031 0.157751,-0.168327 0.447447,-0.335583 0.168025,-0.09701 0.408635,0.266217 0.05274,-0.269932 0.222489,-0.537893 0.166407,-0.273757 0.415547,-0.417598 0.602569,-0.347893 0.987611,0.02465 0.04115,-0.263239 0.224939,-0.547031 0.183789,-0.283792 0.444515,-0.434323 0.370813,-0.214089 0.659021,-0.156453 0.294003,0.05429 0.508091,0.425101 0.05352,0.0927 0.07783,0.148199 l 0.66533,1.446755 q 0.05532,0.12257 0.125977,0.1513 0.07645,0.02538 0.16916,-0.02814 0.05214,-0.03011 0.08846,-0.07425 0.04211,-0.04749 0.05949,-0.05752 z"
           style="font-style:italic;font-variant:normal;font-weight:bold;font-stretch:normal;font-family:Asap;-inkscape-font-specification:'Asap Bold Italic';fill:#6426ca;fill-opacity:1;stroke-width:0.632153"
           id="path968" />
        <path
           d="m 65.464338,65.357731 q -0.428751,0.247539 -0.871012,0.07026 -0.445606,-0.183069 -0.793499,-0.785638 -0.317788,-0.550425 -0.399752,-1.067046 -0.08196,-0.516621 0.07393,-0.915635 0.15834,-0.408154 0.534946,-0.625588 0.22017,-0.127115 0.44751,-0.134764 0.233134,-0.011 0.430848,0.03708 -0.03549,-0.141743 -0.03328,-0.204819 -0.0011,-0.06887 0.05501,-0.132186 0.0528,-0.06911 0.19765,-0.152738 l 0.06952,-0.04014 q 0.173819,-0.100354 0.278348,-0.106629 0.104527,-0.0063 0.152256,0.08977 l 0.957973,2.127576 q 0.05531,0.122568 0.125978,0.151299 0.07645,0.02538 0.169159,-0.02814 0.05214,-0.03011 0.08846,-0.07425 0.04211,-0.04749 0.05949,-0.05752 0.02897,-0.01672 0.0448,-0.0027 0.01828,0.0049 0.04169,0.04545 0.08028,0.139054 0.156807,0.365257 0.058,0.167368 -0.05495,0.333008 -0.107158,0.162291 -0.280976,0.262645 -0.550424,0.317788 -0.920533,-0.05565 -0.01373,0.270585 -0.148721,0.518477 -0.138333,0.242097 -0.381679,0.382593 z m -0.0803,-0.888395 q 0.23755,-0.13715 0.257909,-0.596968 l -0.370481,-0.829011 q -0.159256,-0.356119 -0.201431,-0.50945 -0.269931,-0.05274 -0.472718,0.06434 -0.295492,0.170602 -0.28712,0.559756 0.01082,0.380016 0.328608,0.930441 0.351239,0.608362 0.745226,0.380893 z"
           style="font-style:italic;font-variant:normal;font-weight:bold;font-stretch:normal;font-family:Asap;-inkscape-font-specification:'Asap Bold Italic';fill:#6426ca;fill-opacity:1;stroke-width:0.632153"
           id="path970" />
        <path
           d="m 68.007627,63.835286 q -0.168025,0.09701 -0.288384,0.08925 -0.120359,-0.0078 -0.162292,-0.107158 L 66.673468,61.832202 Q 66.53518,61.52578 66.4181,61.322991 66.36792,61.236081 66.32532,61.1757 q -0.04594,-0.06618 -0.06601,-0.100941 -0.05776,-0.113435 0.06367,-0.237615 0.123878,-0.133332 0.454132,-0.324004 0.202789,-0.11708 0.436708,0.234558 0.02287,-0.268139 0.112405,-0.474336 0.09198,-0.215336 0.312151,-0.342451 0.272315,-0.157221 0.426192,0.109301 0.08363,0.144848 0.110453,0.392019 0.03262,0.243824 -0.03111,0.280622 -0.02317,0.01338 -0.10029,0.027 -0.08046,0.0078 -0.167367,0.05801 -0.133261,0.07694 -0.219691,0.234988 -0.08978,0.152256 -0.113781,0.351525 l 0.878345,1.949517 q 0.09635,0.207029 -0.251284,0.407737 z"
           style="font-style:italic;font-variant:normal;font-weight:bold;font-stretch:normal;font-family:Asap;-inkscape-font-specification:'Asap Bold Italic';fill:#6426ca;fill-opacity:1;stroke-width:0.632153"
           id="path972" />
        <path
           d="m 70.116614,62.617661 q -0.179612,0.103699 -0.281698,0.100827 -0.102078,-0.0029 -0.155601,-0.09557 l -1.891873,-4.253599 q -0.08966,-0.195441 0.257974,-0.396149 l 0.16223,-0.09366 q 0.179612,-0.103699 0.281694,-0.100836 0.102078,0.0029 0.155601,0.09557 l 1.081328,2.434894 0.02653,-0.0076 0.205681,-1.517021 q 0.012,-0.09963 0.08308,-0.163847 0.07353,-0.07335 0.218377,-0.15698 l 0.214376,-0.12377 q 0.156436,-0.09032 0.25093,-0.113975 0.09449,-0.02365 0.114562,0.01111 0.02341,0.04056 7.23e-4,0.161812 l -0.2589,1.679076 1.65102,1.039898 q 0.06242,0.04121 0.08918,0.08757 0.0301,0.05214 -0.02849,0.124597 -0.06194,0.06666 -0.247347,0.173705 l -0.243347,0.140497 q -0.283902,0.163911 -0.399606,0.08393 l -1.435682,-0.947915 -0.01982,0.01918 0.589287,1.32843 q 0.08966,0.19544 -0.257974,0.396148 z"
           style="font-style:italic;font-variant:normal;font-weight:bold;font-stretch:normal;font-family:Asap;-inkscape-font-specification:'Asap Bold Italic';fill:#6426ca;fill-opacity:1;stroke-width:0.632153"
           id="path974" />
        <path
           d="m 48.991806,84.742052 q -0.312873,0.180637 -0.628019,0.223532 -0.312696,0.03375 -0.39967,-0.116887 -0.08363,-0.144849 -0.108181,-0.254276 -0.02455,-0.109429 0.02179,-0.136189 0.03476,-0.02007 0.142639,-0.02055 0.164261,-0.0099 0.31849,-0.0371 0.150882,-0.03304 0.3247,-0.133391 0.249139,-0.143841 0.339569,-0.335105 0.08709,-0.197059 -0.01996,-0.382465 -0.07694,-0.133261 -0.193294,-0.174235 -0.113908,-0.05011 -0.239168,-0.0396 -0.122809,0.0014 -0.348357,0.03889 -0.377327,0.05562 -0.673123,-0.02854 -0.29914,-0.08995 -0.479777,-0.402822 -0.250885,-0.434546 -0.09009,-0.851838 0.166583,-0.420637 0.630098,-0.688248 0.272315,-0.157221 0.56494,-0.225744 0.292624,-0.06852 0.376253,0.07633 0.04683,0.08111 0.03352,0.258759 -0.01666,0.171849 -0.0804,0.208646 -0.01738,0.01003 -0.118567,0.0221 -0.09873,0.0029 -0.210614,0.03662 -0.109427,0.02455 -0.248482,0.104836 -0.237551,0.137151 -0.320635,0.300998 -0.08308,0.163847 0.01058,0.326077 0.07359,0.127467 0.199088,0.170891 0.122149,0.03763 0.226685,0.03135 0.104527,-0.0063 0.393156,-0.04158 0.380672,-0.04982 0.658189,0.02943 0.279966,0.07012 0.467293,0.394579 0.170602,0.295492 0.156213,0.605083 -0.0086,0.306248 -0.189934,0.580899 -0.184686,0.268859 -0.51494,0.459532 z"
           style="font-style:italic;font-variant:normal;font-weight:500;font-stretch:normal;font-family:Asap;-inkscape-font-specification:'Asap Medium Italic';fill:#dc78f3;fill-opacity:1;stroke-width:0.632153"
           id="path976" />
        <path
           d="m 51.535334,83.273545 q -0.67789,0.39138 -1.065926,-0.280717 -0.02676,-0.04635 -0.08208,-0.16892 l -0.823927,-1.841881 -0.243343,0.140495 q -0.121673,0.07025 -0.201957,-0.06881 l -0.02765,-0.06129 -0.04194,-0.09939 q -0.05197,-0.116775 -0.04396,-0.183202 0.0047,-0.07221 0.07998,-0.1157 l 0.254932,-0.147186 -0.221979,-0.65209 q -0.02945,-0.09115 0.0084,-0.159363 0.03787,-0.06821 0.159542,-0.138461 l 0.05214,-0.03011 q 0.127467,-0.07359 0.203027,-0.06314 0.07221,0.0047 0.110803,0.09826 l 0.273231,0.60705 0.411369,-0.237504 q 0.127467,-0.07359 0.211096,0.07125 l 0.03099,0.06708 0.04103,0.08446 q 0.05197,0.116775 0.04152,0.192335 -0.008,0.06642 -0.07753,0.106562 l -0.422957,0.244195 0.830617,1.853468 q 0.01427,0.03811 0.04437,0.09026 0.140495,0.243345 0.38384,0.10285 0.104292,-0.06021 0.157989,-0.11439 0.05949,-0.05752 0.07688,-0.06756 0.01738,-0.01004 0.02987,-0.0018 0.01494,-8.88e-4 0.035,0.03387 0.05687,0.0985 0.114872,0.265864 0.04618,0.12012 -0.05363,0.254998 -0.09402,0.13153 -0.244659,0.218503 z"
           style="font-style:italic;font-variant:normal;font-weight:500;font-stretch:normal;font-family:Asap;-inkscape-font-specification:'Asap Medium Italic';fill:#dc78f3;fill-opacity:1;stroke-width:0.632153"
           id="path978" />
        <path
           d="m 53.557413,82.106097 q -0.237552,0.137151 -0.527969,0.142593 -0.290417,0.0054 -0.595832,-0.189039 -0.302967,-0.203619 -0.560542,-0.649752 -0.311097,-0.538837 -0.387267,-1.058803 -0.07038,-0.523311 0.108691,-0.935707 0.181516,-0.421532 0.587092,-0.655692 0.399782,-0.230814 0.901534,-0.111063 -0.03573,-0.19568 -0.01703,-0.283727 0.01869,-0.08804 0.148611,-0.170775 l 0.04636,-0.02676 q 0.115879,-0.0669 0.183196,-0.04397 0.06976,0.0138 0.117494,0.109845 l 1.034255,2.299841 q 0.113975,0.250932 0.293586,0.147233 0.06952,-0.04014 0.117432,-0.09097 0.0479,-0.05083 0.06528,-0.06087 0.04056,-0.02341 0.07066,0.02873 0.05687,0.0985 0.114872,0.265865 0.04038,0.123464 -0.05363,0.254998 -0.09402,0.13153 -0.215689,0.201777 -0.544631,0.314443 -0.893181,-0.249123 0.01082,0.380017 -0.131514,0.655325 -0.14568,0.269515 -0.406408,0.420046 z m -0.120554,-0.610221 q 0.196994,-0.113735 0.286944,-0.412875 0.0924,-0.308279 -0.0027,-0.794138 l -0.354648,-0.814977 q -0.111527,-0.26007 -0.148565,-0.377741 -0.372013,-0.0556 -0.702267,0.135071 -0.388194,0.224124 -0.385137,0.7245 0.0089,0.497031 0.33333,1.059042 0.451593,0.782181 0.973048,0.481119 z"
           style="font-style:italic;font-variant:normal;font-weight:500;font-stretch:normal;font-family:Asap;-inkscape-font-specification:'Asap Medium Italic';fill:#dc78f3;fill-opacity:1;stroke-width:0.632153"
           id="path980" />
        <path
           d="m 56.674541,80.306423 q -0.677891,0.39138 -1.065927,-0.280717 -0.02676,-0.04635 -0.08208,-0.16892 l -0.823927,-1.841881 -0.243346,0.140496 q -0.121672,0.07025 -0.201956,-0.06881 l -0.02765,-0.06129 -0.04194,-0.09939 q -0.05197,-0.116775 -0.04397,-0.183197 0.0047,-0.07221 0.07998,-0.1157 l 0.254934,-0.147186 -0.22198,-0.65209 q -0.02945,-0.09115 0.0084,-0.159364 0.03787,-0.06821 0.159541,-0.13846 l 0.05214,-0.03011 q 0.127466,-0.07359 0.203027,-0.06314 0.07221,0.0047 0.110803,0.09826 l 0.273231,0.60705 0.41137,-0.237505 q 0.127467,-0.07359 0.211095,0.07126 l 0.03099,0.06708 0.04103,0.08446 q 0.05197,0.116774 0.04152,0.192335 -0.008,0.06642 -0.07753,0.106562 l -0.422957,0.244194 0.830618,1.853468 q 0.01427,0.03811 0.04437,0.09026 0.140496,0.243346 0.383842,0.10285 0.10429,-0.06021 0.157989,-0.11439 0.05949,-0.05752 0.07687,-0.06756 0.01738,-0.01004 0.02987,-0.0018 0.01494,-8.87e-4 0.035,0.03387 0.05687,0.0985 0.114872,0.265864 0.04618,0.120121 -0.05363,0.254998 -0.09402,0.13153 -0.244658,0.218503 z"
           style="font-style:italic;font-variant:normal;font-weight:500;font-stretch:normal;font-family:Asap;-inkscape-font-specification:'Asap Medium Italic';fill:#dc78f3;fill-opacity:1;stroke-width:0.632153"
           id="path982" />
        <path
           d="m 60.223097,77.554664 q 0.04056,-0.02341 0.07066,0.02873 0.05687,0.0985 0.114872,0.265864 0.04618,0.120121 -0.04784,0.251653 -0.09402,0.13153 -0.21569,0.201778 -0.260727,0.150531 -0.482514,0.100899 -0.221786,-0.04963 -0.421358,-0.328398 -0.03977,0.38605 -0.216872,0.681429 -0.177098,0.29538 -0.449413,0.452601 -0.376606,0.217433 -0.674851,0.142416 -0.298243,-0.07502 -0.502296,-0.428447 -0.05352,-0.0927 -0.07448,-0.142405 L 56.334339,76.58613 q -0.06625,-0.154883 0.194481,-0.305414 l 0.06952,-0.04014 q 0.266522,-0.153877 0.332768,10e-4 l 0.94035,2.083674 q 0.01092,0.03232 0.04103,0.08446 0.217433,0.376606 0.617215,0.145792 0.214376,-0.12377 0.327501,-0.436291 0.113126,-0.312521 0.02047,-0.807518 L 58.101475,75.56586 q -0.06625,-0.154883 0.194481,-0.305414 l 0.06373,-0.03679 q 0.266521,-0.153876 0.338562,-0.0023 l 1.054326,2.334606 q 0.113975,0.250931 0.293586,0.147233 0.06373,-0.03679 0.111637,-0.08763 0.0479,-0.05083 0.06528,-0.06087 z"
           style="font-style:italic;font-variant:normal;font-weight:500;font-stretch:normal;font-family:Asap;-inkscape-font-specification:'Asap Medium Italic';fill:#dc78f3;fill-opacity:1;stroke-width:0.632153"
           id="path984" />
        <path
           d="m 61.732639,77.386128 q -0.312873,0.180638 -0.628019,0.223532 -0.312696,0.03376 -0.39967,-0.116887 -0.08363,-0.144849 -0.108181,-0.254275 -0.02455,-0.109429 0.0218,-0.136189 0.03476,-0.02007 0.142638,-0.02055 0.164262,-0.0099 0.31849,-0.0371 0.150882,-0.03304 0.324701,-0.133391 0.249139,-0.143841 0.339569,-0.335105 0.08709,-0.197059 -0.01996,-0.382465 -0.07694,-0.133261 -0.193294,-0.174235 -0.113908,-0.05011 -0.239168,-0.0396 -0.122808,0.0014 -0.348357,0.03889 -0.377327,0.05562 -0.673122,-0.02854 -0.299141,-0.08995 -0.479778,-0.402822 -0.250885,-0.434546 -0.0901,-0.851838 0.166583,-0.420637 0.630098,-0.688248 0.272316,-0.157221 0.56494,-0.225744 0.292624,-0.06852 0.376253,0.07633 0.04683,0.08111 0.03352,0.258759 -0.01666,0.171849 -0.08039,0.208646 -0.01738,0.01003 -0.118566,0.0221 -0.09873,0.0029 -0.210614,0.03662 -0.109427,0.02455 -0.248483,0.104837 -0.23755,0.13715 -0.320634,0.300998 -0.08308,0.163847 0.01058,0.326077 0.07359,0.127466 0.199088,0.170891 0.122149,0.03763 0.226684,0.03135 0.104527,-0.0063 0.393156,-0.04158 0.380672,-0.04983 0.658189,0.02943 0.279966,0.07012 0.467293,0.394579 0.170602,0.295492 0.156214,0.605083 -0.0086,0.306247 -0.189936,0.5809 -0.184684,0.268858 -0.514939,0.459531 z"
           style="font-style:italic;font-variant:normal;font-weight:500;font-stretch:normal;font-family:Asap;-inkscape-font-specification:'Asap Medium Italic';fill:#dc78f3;fill-opacity:1;stroke-width:0.632153"
           id="path986" />
      </g>
      <path
         id="path1685"
         style="color:#000000;font-style:normal;font-variant:normal;font-weight:normal;font-stretch:normal;font-size:medium;line-height:1.25;font-family:sans-serif;font-variant-ligatures:normal;font-variant-position:normal;font-variant-caps:normal;font-variant-numeric:normal;font-variant-alternates:normal;font-variant-east-asian:normal;font-feature-settings:normal;font-variation-settings:normal;text-indent:0;text-align:start;text-decoration:none;text-decoration-line:none;text-decoration-style:solid;text-decoration-color:#000000;letter-spacing:0px;word-spacing:0px;text-transform:none;writing-mode:lr-tb;direction:ltr;text-orientation:mixed;dominant-baseline:auto;baseline-shift:baseline;text-anchor:start;white-space:normal;shape-padding:0;shape-margin:0;inline-size:0;clip-rule:nonzero;display:inline;overflow:visible;visibility:visible;isolation:auto;mix-blend-mode:normal;color-interpolation:sRGB;color-interpolation-filters:linearRGB;solid-color:#000000;solid-opacity:1;vector-effect:none;fill:#6426ca;fill-opacity:1;fill-rule:nonzero;stroke:none;stroke-width:0.669605;stroke-linecap:butt;stroke-linejoin:miter;stroke-miterlimit:4;stroke-dasharray:none;stroke-dashoffset:0;stroke-opacity:1;color-rendering:auto;image-rendering:auto;shape-rendering:auto;text-rendering:auto;enable-background:accumulate;stop-color:#000000"
         d="m 20.480501,16.149063 c 0,0 5.157215,0.178004 5.157215,4.368354 0,1.636801 -1.706324,3.172997 -4.202738,3.841909 -5.518107,1.478573 -7.026981,5.951096 -7.364995,7.314591 l -0.799664,-2.034164 0.654853,3.587089 2.295785,-2.71622 -1.653334,1.305306 c 0.287004,-1.238063 1.659656,-5.615424 6.958963,-7.035368 2.68895,-0.720502 4.408354,-2.240312 4.408354,-4.22354 0,-4.257385 -5.454439,-4.407957 -5.454439,-4.407957 z" />
    </g>
  </g>
</svg>
