<?xml version="1.0" encoding="UTF-8" standalone="no"?>
<svg
   xmlns:dc="http://purl.org/dc/elements/1.1/"
   xmlns:cc="http://creativecommons.org/ns#"
   xmlns:rdf="http://www.w3.org/1999/02/22-rdf-syntax-ns#"
   xmlns:svg="http://www.w3.org/2000/svg"
   xmlns="http://www.w3.org/2000/svg"
   xmlns:sodipodi="http://sodipodi.sourceforge.net/DTD/sodipodi-0.dtd"
   xmlns:inkscape="http://www.inkscape.org/namespaces/inkscape"
   width="100"
   height="125"
   viewBox="0 0 26.458333 33.072917"
   version="1.1"
   id="svg1872"
   inkscape:version="1.0.1 (3bc2e813f5, 2020-09-07)"
   sodipodi:docname="benchmarkResult.svg">
  <defs
     id="defs1866">
    <rect
       x="29.944963"
       y="7.1063386"
       width="37.623437"
       height="27.065452"
       id="rect887" />
    <filter
       inkscape:collect="always"
       style="color-interpolation-filters:sRGB"
       id="filter1229"
       x="-0.010892308"
       width="1.0217846"
       y="-0.01335849"
       height="1.026717">
      <feGaussianBlur
         inkscape:collect="always"
         stdDeviation="0.13167927"
         id="feGaussianBlur1231" />
    </filter>
  </defs>
  <sodipodi:namedview
     id="base"
     pagecolor="#ffffff"
     bordercolor="#666666"
     borderopacity="1.0"
     inkscape:pageopacity="0.0"
     inkscape:pageshadow="2"
     inkscape:zoom="2.6462094"
     inkscape:cx="-23.493449"
     inkscape:cy="40.535759"
     inkscape:document-units="mm"
     inkscape:current-layer="layer1"
     inkscape:document-rotation="0"
     showgrid="false"
     units="px"
     inkscape:window-width="1920"
     inkscape:window-height="997"
     inkscape:window-x="1920"
     inkscape:window-y="28"
     inkscape:window-maximized="1"
     inkscape:snap-global="false" />
  <metadata
     id="metadata1869">
    <rdf:RDF>
      <cc:Work
         rdf:about="">
        <dc:format>image/svg+xml</dc:format>
        <dc:type
           rdf:resource="http://purl.org/dc/dcmitype/StillImage" />
        <dc:title />
      </cc:Work>
    </rdf:RDF>
  </metadata>
  <g
     inkscape:label="Layer 1"
     inkscape:groupmode="layer"
     id="layer1">
    <path
       id="path1688"
       style="color:#000000;font-style:normal;font-variant:normal;font-weight:normal;font-stretch:normal;font-size:medium;line-height:1.25;font-family:sans-serif;font-variant-ligatures:normal;font-variant-position:normal;font-variant-caps:normal;font-variant-numeric:normal;font-variant-alternates:normal;font-variant-east-asian:normal;font-feature-settings:normal;font-variation-settings:normal;text-indent:0;text-align:start;text-decoration:none;text-decoration-line:none;text-decoration-style:solid;text-decoration-color:#000000;letter-spacing:0px;word-spacing:0px;text-transform:none;writing-mode:lr-tb;direction:ltr;text-orientation:mixed;dominant-baseline:auto;baseline-shift:baseline;text-anchor:start;white-space:normal;shape-padding:0;shape-margin:0;inline-size:0;clip-rule:nonzero;display:inline;overflow:visible;visibility:visible;isolation:auto;mix-blend-mode:normal;color-interpolation:sRGB;color-interpolation-filters:linearRGB;solid-color:#000000;solid-opacity:1;vector-effect:none;fill:#6426ca;fill-opacity:1;fill-rule:nonzero;stroke:none;stroke-width:0.613368;stroke-linecap:butt;stroke-linejoin:miter;stroke-miterlimit:4;stroke-dasharray:none;stroke-dashoffset:0;stroke-opacity:1;color-rendering:auto;image-rendering:auto;shape-rendering:auto;text-rendering:auto;enable-background:accumulate;stop-color:#000000"
       d="m 20.186019,14.979284 c 3.887465,1.973901 3.985221,7.276443 -0.966235,8.684574 -5.054673,1.354394 -6.436822,5.451293 -6.746449,6.700275 l -0.732502,-1.863325 0.599852,3.285828 2.102974,-2.488098 -1.514474,1.19568 c 0.262897,-1.134084 1.520267,-5.143814 6.374513,-6.444504 4.827336,-1.277448 5.227536,-6.986702 0.882321,-9.07043 z"
       sodipodi:nodetypes="ccccccccc" />
    <path
       id="path1704"
       style="color:#000000;font-style:normal;font-variant:normal;font-weight:normal;font-stretch:normal;font-size:medium;line-height:1.25;font-family:sans-serif;font-variant-ligatures:normal;font-variant-position:normal;font-variant-caps:normal;font-variant-numeric:normal;font-variant-alternates:normal;font-variant-east-asian:normal;font-feature-settings:normal;font-variation-settings:normal;text-indent:0;text-align:start;text-decoration:none;text-decoration-line:none;text-decoration-style:solid;text-decoration-color:#000000;letter-spacing:0px;word-spacing:0px;text-transform:none;writing-mode:lr-tb;direction:ltr;text-orientation:mixed;dominant-baseline:auto;baseline-shift:baseline;text-anchor:start;white-space:normal;shape-padding:0;shape-margin:0;inline-size:0;clip-rule:nonzero;display:inline;overflow:visible;visibility:visible;isolation:auto;mix-blend-mode:normal;color-interpolation:sRGB;color-interpolation-filters:linearRGB;solid-color:#000000;solid-opacity:1;vector-effect:none;fill:#6426ca;fill-opacity:1;fill-rule:nonzero;stroke:none;stroke-width:0.613368;stroke-linecap:butt;stroke-linejoin:miter;stroke-miterlimit:4;stroke-dasharray:none;stroke-dashoffset:0;stroke-opacity:1;color-rendering:auto;image-rendering:auto;shape-rendering:auto;text-rendering:auto;enable-background:accumulate;stop-color:#000000"
       d="m 20.186019,14.979284 c 3.887465,1.973901 3.985221,7.276443 -0.966235,8.684574 -5.054673,1.354394 -6.436822,5.451293 -6.746449,6.700275 l -0.732502,-1.863325 0.599852,3.285828 2.102974,-2.488098 -1.514474,1.19568 c 0.262897,-1.134084 1.520267,-5.143814 6.374513,-6.444504 4.827336,-1.277448 5.227536,-6.986702 0.882321,-9.07043 z"
       sodipodi:nodetypes="ccccccccc" />
    <g
       aria-label="Check out our Contest
status!
"
       transform="matrix(0.78381016,-0.2100213,0.2100213,0.78381016,-24.668561,5.9681487)"
       id="text885"
       style="font-style:normal;font-weight:normal;font-size:4.93889px;line-height:0;font-family:sans-serif;letter-spacing:0px;word-spacing:0px;white-space:pre;shape-inside:url(#rect887);fill:#808080;fill-opacity:1;stroke:none;filter:url(#filter1229)">
      <path
         d="m 31.575146,13.659441 q -0.726017,0 -1.081617,-0.340784 -0.3556,-0.340783 -0.3556,-1.051983 0,-1.032228 0.469195,-1.580445 0.469194,-0.553156 1.353256,-0.553156 0.237066,0 0.469194,0.05433 0.232128,0.04939 0.360539,0.128411 0.103717,0.06421 0.103717,0.13335 0,0.07408 -0.09878,0.212373 -0.09384,0.13335 -0.153106,0.13335 -0.01482,0 -0.118533,-0.05433 -0.09878,-0.05927 -0.251883,-0.103717 -0.148167,-0.04445 -0.3556,-0.04445 -0.602545,0 -0.913695,0.409928 -0.31115,0.404989 -0.31115,1.195211 0,0.508706 0.227189,0.755651 0.232128,0.246944 0.706261,0.246944 0.232128,0 0.40005,-0.04939 0.172861,-0.05433 0.350661,-0.138289 0.07902,-0.04445 0.108656,-0.04445 0.05927,0 0.113594,0.118534 0.05927,0.118533 0.05927,0.192616 0,0.04445 -0.04939,0.09878 -0.04939,0.04939 -0.128411,0.0889 -0.158044,0.08396 -0.409928,0.138289 -0.246944,0.05433 -0.493889,0.05433 z"
         style="font-style:italic;font-variant:normal;font-weight:500;font-stretch:normal;line-height:1.05;font-family:Asap;-inkscape-font-specification:'Asap Medium Italic';fill:#808080;fill-opacity:1"
         id="path1126" />
      <path
         d="m 35.259556,13.659441 q -0.227189,0 -0.3556,-0.118534 -0.128412,-0.118533 -0.128412,-0.370416 0,-0.07902 0.0049,-0.123473 l 0.113595,-1.214967 q 0.0049,-0.02963 0.0049,-0.07902 0,-0.31115 -0.306212,-0.31115 -0.202494,0 -0.395111,0.148167 -0.187678,0.148167 -0.316089,0.484011 l -0.148166,1.437217 q -0.0049,0.05927 -0.06914,0.09384 -0.06421,0.02963 -0.172861,0.02963 h -0.05433 q -0.108655,0 -0.167922,-0.03457 -0.05433,-0.03457 -0.04939,-0.08396 l 0.370417,-3.486856 q 0.01482,-0.1234726 0.237067,-0.1234726 h 0.05433 q 0.113595,0 0.167923,0.034572 0.05927,0.029633 0.04939,0.0889 l -0.148166,1.417461 q 0.167922,-0.217311 0.380294,-0.325967 0.212373,-0.113594 0.439562,-0.113594 0.321027,0 0.484011,0.158044 0.162983,0.158045 0.162983,0.459317 0,0.07902 -0.0049,0.118533 l -0.123472,1.29399 q -0.01976,0.202494 0.13335,0.202494 0.05433,0 0.103717,-0.01482 0.04939,-0.01482 0.06421,-0.01482 0.03457,0 0.03457,0.04445 0,0.08396 -0.02469,0.212372 -0.01976,0.09384 -0.128411,0.143228 -0.108656,0.04939 -0.212372,0.04939 z"
         style="font-style:italic;font-variant:normal;font-weight:500;font-stretch:normal;line-height:1.05;font-family:Asap;-inkscape-font-specification:'Asap Medium Italic';fill:#808080;fill-opacity:1"
         id="path1128" />
      <path
         d="m 36.978282,12.587702 q -0.256822,0 -0.454378,-0.03457 v 0.0099 q 0,0.375356 0.167923,0.523523 0.172861,0.148166 0.493889,0.148166 0.202494,0 0.360539,-0.05433 0.158044,-0.05433 0.306211,-0.13335 0.07902,-0.04445 0.09878,-0.04445 0.01975,0 0.02469,0.0099 0.0099,0.0099 0.0099,0.04939 0,0.123472 -0.02963,0.271639 -0.03457,0.162983 -0.311151,0.246945 -0.276577,0.07902 -0.513644,0.07902 -0.498828,0 -0.814917,-0.237067 -0.316089,-0.242006 -0.316089,-0.805039 0,-0.740834 0.345722,-1.175456 0.350662,-0.434622 0.992717,-0.434622 0.321028,0 0.518584,0.108655 0.202494,0.108656 0.286455,0.2667 0.08396,0.153106 0.08396,0.301273 0,0.469194 -0.365477,0.686505 -0.360539,0.217312 -0.884062,0.217312 z m 0.335845,-1.155701 q -0.31115,0 -0.508706,0.202495 -0.197555,0.202494 -0.251883,0.558094 h 0.316089 q 0.291394,0 0.567972,-0.09384 0.276578,-0.09878 0.276578,-0.360539 0,-0.138289 -0.113595,-0.22225 -0.108655,-0.08396 -0.286455,-0.08396 z"
         style="font-style:italic;font-variant:normal;font-weight:500;font-stretch:normal;line-height:1.05;font-family:Asap;-inkscape-font-specification:'Asap Medium Italic';fill:#808080;fill-opacity:1"
         id="path1130" />
      <path
         d="m 39.645273,13.659441 q -0.553155,0 -0.829733,-0.251884 -0.271639,-0.256822 -0.271639,-0.8001 0,-0.765528 0.350661,-1.180394 0.3556,-0.419806 1.002595,-0.419806 0.261761,0 0.484011,0.07408 0.22225,0.07408 0.22225,0.182739 0,0.06421 -0.0889,0.187678 -0.08396,0.118533 -0.13335,0.118533 -0.01976,0 -0.06421,-0.02469 -0.09384,-0.04939 -0.202494,-0.07902 -0.103717,-0.03457 -0.256822,-0.03457 -0.380295,0 -0.57785,0.291395 -0.197556,0.286456 -0.197556,0.839611 0,0.345722 0.143228,0.508706 0.148166,0.162983 0.469194,0.162983 0.143228,0 0.256823,-0.03457 0.113594,-0.03457 0.242005,-0.0889 0.0247,-0.0099 0.03951,-0.01482 0.01976,-0.0099 0.02963,-0.0099 0.05433,0 0.108655,0.103716 0.05433,0.103717 0.05433,0.1778 0,0.118534 -0.261761,0.207434 -0.261761,0.08396 -0.518584,0.08396 z"
         style="font-style:italic;font-variant:normal;font-weight:500;font-stretch:normal;line-height:1.05;font-family:Asap;-inkscape-font-specification:'Asap Medium Italic';fill:#808080;fill-opacity:1"
         id="path1132" />
      <path
         d="m 41.166445,13.634746 q -0.118533,0 -0.167922,-0.02963 -0.04939,-0.02963 -0.04939,-0.09384 l 0.370417,-3.481917 q 0.0099,-0.1234726 0.237066,-0.1234726 h 0.05433 q 0.118534,0 0.167922,0.029633 0.04939,0.029633 0.04939,0.093839 l -0.227189,2.1336 h 0.01976 l 0.982839,-1.051983 q 0.06914,-0.07902 0.281517,-0.07902 h 0.06914 q 0.09384,0 0.143228,0.01976 0.05433,0.01482 0.05433,0.04445 0,0.04445 -0.05927,0.103717 l -0.987778,1.051983 0.893939,1.224845 q 0.03457,0.04939 0.03457,0.07408 0,0.04939 -0.05433,0.06915 -0.05433,0.01482 -0.187678,0.01482 h -0.07902 q -0.103717,0 -0.172861,-0.01482 -0.06914,-0.01482 -0.09384,-0.05927 l -0.849489,-1.160639 -0.01976,0.0049 -0.113595,1.106311 q -0.01482,0.123472 -0.242005,0.123472 z"
         style="font-style:italic;font-variant:normal;font-weight:500;font-stretch:normal;line-height:1.05;font-family:Asap;-inkscape-font-specification:'Asap Medium Italic';fill:#808080;fill-opacity:1"
         id="path1134" />
      <path
         d="m 45.804061,13.659441 q -0.518584,0 -0.8001,-0.286456 -0.281517,-0.291394 -0.281517,-0.824794 0,-0.67169 0.306211,-1.106312 0.31115,-0.434622 0.972962,-0.434622 0.503766,0 0.780344,0.296333 0.276578,0.291395 0.276578,0.824795 0,0.745772 -0.330906,1.140883 -0.325966,0.390173 -0.923572,0.390173 z m 0.03457,-0.424745 q 0.696384,0 0.696384,-1.091494 0,-0.345723 -0.153106,-0.528462 -0.148167,-0.182739 -0.439561,-0.182739 -0.350661,0 -0.528461,0.281517 -0.172862,0.281517 -0.172862,0.814917 0,0.345722 0.153106,0.528461 0.153106,0.1778 0.4445,0.1778 z"
         style="font-style:italic;font-variant:normal;font-weight:500;font-stretch:normal;line-height:1.05;font-family:Asap;-inkscape-font-specification:'Asap Medium Italic';fill:#808080;fill-opacity:1"
         id="path1136" />
      <path
         d="m 49.849003,13.210002 q 0.03457,0 0.03457,0.04445 0,0.08396 -0.02469,0.212372 -0.01482,0.09384 -0.123472,0.143228 -0.108656,0.04939 -0.212373,0.04939 -0.22225,0 -0.345722,-0.113595 -0.123472,-0.113594 -0.148167,-0.365478 -0.167922,0.232128 -0.390172,0.355601 -0.22225,0.123472 -0.454378,0.123472 -0.321028,0 -0.484011,-0.158045 -0.162983,-0.158044 -0.162983,-0.459316 0,-0.07902 0.0049,-0.118534 l 0.1778,-1.768122 q 0.01482,-0.123473 0.237066,-0.123473 h 0.05927 q 0.227189,0 0.212372,0.123473 l -0.167922,1.679222 q -0.0049,0.0247 -0.0049,0.06915 0,0.321027 0.340784,0.321027 0.182738,0 0.370416,-0.158044 0.187678,-0.158045 0.31115,-0.508706 l 0.148167,-1.402644 q 0.01482,-0.123473 0.237067,-0.123473 h 0.05433 q 0.227189,0 0.217311,0.123473 l -0.187678,1.881717 q -0.01976,0.202494 0.13335,0.202494 0.05433,0 0.103717,-0.01482 0.04939,-0.01482 0.06421,-0.01482 z"
         style="font-style:italic;font-variant:normal;font-weight:500;font-stretch:normal;line-height:1.05;font-family:Asap;-inkscape-font-specification:'Asap Medium Italic';fill:#808080;fill-opacity:1"
         id="path1138" />
      <path
         d="m 51.004699,13.659441 q -0.57785,0 -0.57785,-0.572911 0,-0.03951 0.0099,-0.138289 l 0.153105,-1.481667 h -0.207433 q -0.103717,0 -0.103717,-0.118534 l 0.0049,-0.04939 0.0099,-0.07902 q 0.0099,-0.09384 0.03951,-0.13335 0.02963,-0.04445 0.09384,-0.04445 h 0.217311 l 0.09878,-0.498828 q 0.01482,-0.06914 0.06421,-0.09878 0.04939,-0.02963 0.153105,-0.02963 h 0.04445 q 0.108656,0 0.153106,0.03457 0.04445,0.02963 0.03457,0.103717 l -0.04939,0.48895 h 0.350661 q 0.108656,0 0.108656,0.123472 l -0.0049,0.05433 -0.0049,0.06915 q -0.0099,0.09384 -0.04445,0.138289 -0.02963,0.03951 -0.0889,0.03951 h -0.360539 l -0.153105,1.491544 q -0.0049,0.02963 -0.0049,0.07408 0,0.207433 0.207433,0.207433 0.0889,0 0.143228,-0.01482 0.05927,-0.01482 0.07408,-0.01482 0.01482,0 0.01976,0.0099 0.0099,0.0049 0.0099,0.03457 0,0.08396 -0.0247,0.212372 -0.01482,0.09384 -0.128411,0.143228 -0.108656,0.04939 -0.237067,0.04939 z"
         style="font-style:italic;font-variant:normal;font-weight:500;font-stretch:normal;line-height:1.05;font-family:Asap;-inkscape-font-specification:'Asap Medium Italic';fill:#808080;fill-opacity:1"
         id="path1140" />
      <path
         d="m 54.239668,13.659441 q -0.518584,0 -0.8001,-0.286456 -0.281517,-0.291394 -0.281517,-0.824794 0,-0.67169 0.306211,-1.106312 0.31115,-0.434622 0.972961,-0.434622 0.503767,0 0.780345,0.296333 0.276578,0.291395 0.276578,0.824795 0,0.745772 -0.330906,1.140883 -0.325966,0.390173 -0.923572,0.390173 z m 0.03457,-0.424745 q 0.696384,0 0.696384,-1.091494 0,-0.345723 -0.153106,-0.528462 -0.148167,-0.182739 -0.439561,-0.182739 -0.350661,0 -0.528461,0.281517 -0.172862,0.281517 -0.172862,0.814917 0,0.345722 0.153106,0.528461 0.153106,0.1778 0.4445,0.1778 z"
         style="font-style:italic;font-variant:normal;font-weight:500;font-stretch:normal;line-height:1.05;font-family:Asap;-inkscape-font-specification:'Asap Medium Italic';fill:#808080;fill-opacity:1"
         id="path1142" />
      <path
         d="m 58.284609,13.210002 q 0.03457,0 0.03457,0.04445 0,0.08396 -0.02469,0.212372 -0.01482,0.09384 -0.123472,0.143228 -0.108656,0.04939 -0.212373,0.04939 -0.22225,0 -0.345722,-0.113595 -0.123472,-0.113594 -0.148167,-0.365478 -0.167922,0.232128 -0.390172,0.355601 -0.22225,0.123472 -0.454378,0.123472 -0.321028,0 -0.484011,-0.158045 -0.162983,-0.158044 -0.162983,-0.459316 0,-0.07902 0.0049,-0.118534 l 0.1778,-1.768122 q 0.01482,-0.123473 0.237066,-0.123473 h 0.05927 q 0.227189,0 0.212372,0.123473 l -0.167922,1.679222 q -0.0049,0.0247 -0.0049,0.06915 0,0.321027 0.340784,0.321027 0.182738,0 0.370416,-0.158044 0.187678,-0.158045 0.31115,-0.508706 l 0.148167,-1.402644 q 0.01482,-0.123473 0.237067,-0.123473 h 0.05433 q 0.227189,0 0.217311,0.123473 l -0.187678,1.881717 q -0.01976,0.202494 0.13335,0.202494 0.05433,0 0.103717,-0.01482 0.04939,-0.01482 0.06421,-0.01482 z"
         style="font-style:italic;font-variant:normal;font-weight:500;font-stretch:normal;line-height:1.05;font-family:Asap;-inkscape-font-specification:'Asap Medium Italic';fill:#808080;fill-opacity:1"
         id="path1144" />
      <path
         d="m 58.951357,13.634746 q -0.108656,0 -0.167922,-0.03457 -0.05433,-0.03457 -0.04939,-0.09384 l 0.182739,-1.698978 q 0.01976,-0.182739 0.01976,-0.316089 0,-0.103717 -0.0099,-0.172861 -0.0099,-0.07408 -0.0099,-0.09878 0.0049,-0.07408 0.09878,-0.108655 0.09384,-0.03457 0.296333,-0.03457 0.08396,0 0.113594,0.09878 0.02963,0.09384 0.01976,0.232128 0.113594,-0.182739 0.276578,-0.291395 0.162983,-0.108655 0.350661,-0.108655 0.103717,0 0.172861,0.05433 0.06914,0.05433 0.06914,0.148166 0,0.103717 -0.04939,0.217312 -0.04445,0.108655 -0.09878,0.108655 -0.01976,0 -0.09384,-0.02469 -0.06914,-0.0247 -0.172861,-0.0247 -0.118533,0 -0.251883,0.07902 -0.128412,0.07408 -0.227189,0.227189 l -0.172862,1.713795 q -0.01482,0.128411 -0.242005,0.128411 z"
         style="font-style:italic;font-variant:normal;font-weight:500;font-stretch:normal;line-height:1.05;font-family:Asap;-inkscape-font-specification:'Asap Medium Italic';fill:#808080;fill-opacity:1"
         id="path1146" />
      <path
         d="m 32.553045,21.836123 q -1.164166,0 -1.730727,-0.535517 -0.5588,-0.543278 -0.5588,-1.668639 0,-1.637594 0.745067,-2.491316 0.752827,-0.861483 2.17311,-0.861483 0.380295,0 0.776111,0.08537 0.403578,0.07761 0.613128,0.20955 0.170744,0.108656 0.170744,0.232833 0,0.108656 -0.108655,0.287161 -0.108656,0.178506 -0.248356,0.318206 -0.1397,0.1397 -0.225072,0.1397 -0.02328,0 -0.178505,-0.06985 -0.147461,-0.06985 -0.380295,-0.124178 -0.225072,-0.05433 -0.551039,-0.05433 -0.745066,0 -1.148644,0.5588 -0.403578,0.5588 -0.403578,1.591028 0,1.365955 1.164167,1.365955 0.34925,0 0.613128,-0.06985 0.263877,-0.06985 0.512233,-0.178505 0.1397,-0.06209 0.178505,-0.06209 0.108656,0 0.194028,0.124178 0.09313,0.124177 0.1397,0.287161 0.05433,0.155222 0.05433,0.248355 0,0.100895 -0.08537,0.201789 -0.08537,0.100894 -0.217311,0.170744 -0.256117,0.1397 -0.690739,0.217311 -0.426861,0.07761 -0.807156,0.07761 z"
         style="font-style:italic;font-variant:normal;font-weight:bold;font-stretch:normal;font-size:7.76111px;line-height:1.05;font-family:Asap;-inkscape-font-specification:'Asap Bold Italic';fill:#808080;fill-opacity:1"
         id="path1148" />
      <path
         d="m 36.775085,21.836123 q -0.830439,0 -1.280583,-0.450145 -0.442383,-0.457905 -0.442383,-1.288344 0,-1.078794 0.481189,-1.761772 0.481188,-0.682978 1.606549,-0.682978 0.830439,0 1.272822,0.457906 0.450145,0.450144 0.450145,1.288344 0,1.179689 -0.551039,1.808339 -0.543278,0.62865 -1.5367,0.62865 z m 0.09313,-0.90805 q 0.403578,0 0.613128,-0.364772 0.20955,-0.372534 0.20955,-1.109839 0,-0.426861 -0.170744,-0.659694 -0.162984,-0.232834 -0.473428,-0.232834 -0.830439,0 -0.830439,1.482372 0,0.4191 0.170745,0.651933 0.170744,0.232834 0.481188,0.232834 z"
         style="font-style:italic;font-variant:normal;font-weight:bold;font-stretch:normal;font-size:7.76111px;line-height:1.05;font-family:Asap;-inkscape-font-specification:'Asap Bold Italic';fill:#808080;fill-opacity:1"
         id="path1150" />
      <path
         d="m 43.286643,20.881506 q 0.03881,0 0.04657,0.02328 0.01552,0.01552 0.01552,0.06985 0,0.186267 -0.05433,0.457906 -0.03881,0.201789 -0.248355,0.302683 -0.201789,0.100895 -0.434622,0.100895 -0.931333,0 -0.931333,-0.939095 0,-0.131939 0.0078,-0.201789 l 0.155222,-1.629833 q 0.02328,-0.240594 -0.07761,-0.34925 -0.100895,-0.116416 -0.333728,-0.116416 -0.20955,0 -0.388055,0.1397 -0.170745,0.1397 -0.294923,0.333727 L 40.500405,21.5412 q -0.02328,0.248356 -0.48895,0.248356 h -0.217311 q -0.225072,0 -0.341489,-0.06985 -0.116417,-0.06985 -0.100894,-0.170744 l 0.263877,-2.58445 q 0.03105,-0.357011 0.03105,-0.512233 l -0.0078,-0.271639 q -0.0078,-0.05433 -0.0078,-0.162983 0,-0.124178 0.256116,-0.201789 0.256117,-0.07761 0.644172,-0.07761 0.240595,0 0.256117,0.519994 0.201789,-0.248356 0.535516,-0.426861 0.333728,-0.178506 0.675217,-0.178506 0.496711,0 0.752828,0.225073 0.263877,0.225072 0.263877,0.721783 0,0.124178 -0.0078,0.194028 l -0.170744,1.839383 q -0.01552,0.155222 0.0388,0.225072 0.06209,0.06985 0.186267,0.06985 0.06985,0 0.131939,-0.02328 0.06985,-0.02328 0.09313,-0.02328 z"
         style="font-style:italic;font-variant:normal;font-weight:bold;font-stretch:normal;font-size:7.76111px;line-height:1.05;font-family:Asap;-inkscape-font-specification:'Asap Bold Italic';fill:#808080;fill-opacity:1"
         id="path1152" />
      <path
         d="m 44.931993,21.836123 q -0.457906,0 -0.737306,-0.232834 -0.271639,-0.232833 -0.271639,-0.737305 0,-0.06209 0.01552,-0.217311 l 0.20955,-2.02565 h -0.178506 q -0.20955,0 -0.20955,-0.263878 0,-0.07761 0.0078,-0.124177 l 0.01552,-0.131939 q 0.02328,-0.20955 0.08537,-0.294922 0.06985,-0.09313 0.194027,-0.09313 h 0.194028 l 0.147461,-0.706261 q 0.03104,-0.147461 0.1397,-0.20955 0.116417,-0.06985 0.318206,-0.06985 h 0.170744 q 0.442383,0 0.4191,0.302684 l -0.06209,0.682977 h 0.357011 q 0.108656,0 0.155222,0.06209 0.04657,0.06209 0.04657,0.201789 0,0.07761 -0.0078,0.124178 l -0.01552,0.131939 q -0.02328,0.201788 -0.08537,0.294922 -0.06209,0.09313 -0.186266,0.09313 h -0.357011 l -0.20955,2.010128 q -0.03104,0.294922 0.240594,0.294922 0.116417,0 0.186267,-0.02328 0.07761,-0.02328 0.09313,-0.02328 0.03881,0 0.04657,0.02328 0.01552,0.01552 0.01552,0.06985 0,0.186267 -0.05433,0.457906 -0.0388,0.201789 -0.248355,0.302683 -0.201789,0.100895 -0.434622,0.100895 z"
         style="font-style:italic;font-variant:normal;font-weight:bold;font-stretch:normal;font-size:7.76111px;line-height:1.05;font-family:Asap;-inkscape-font-specification:'Asap Bold Italic';fill:#808080;fill-opacity:1"
         id="path1154" />
      <path
         d="m 50.038796,18.778245 q 0,0.48895 -0.248355,0.807156 -0.240595,0.318205 -0.620889,0.465666 -0.380294,0.147461 -0.799394,0.147461 -0.426861,0 -0.807156,-0.05433 0.03105,0.450144 0.232834,0.620888 0.201789,0.162984 0.582083,0.162984 0.465666,0 1.04775,-0.2794 0.124177,-0.06209 0.155222,-0.06209 0.06209,0 0.06209,0.108655 0,0.147462 -0.01552,0.333728 -0.01552,0.178506 -0.04657,0.263878 -0.08537,0.287161 -0.504472,0.4191 -0.4191,0.124178 -0.845961,0.124178 -0.923572,0 -1.381478,-0.450145 -0.450144,-0.450144 -0.450144,-1.2573 0,-1.26506 0.597605,-1.870427 0.597606,-0.605367 1.5367,-0.605367 0.582083,0 0.915811,0.186267 0.341489,0.178506 0.465667,0.434622 0.124177,0.256117 0.124177,0.504472 z m -2.048933,0.651934 q 0.496711,0 0.714023,-0.147462 0.217311,-0.155222 0.217311,-0.357011 0,-0.186266 -0.124178,-0.271638 -0.124178,-0.09313 -0.341489,-0.09313 -0.341489,0 -0.551039,0.240595 -0.201789,0.232833 -0.287161,0.62865 z"
         style="font-style:italic;font-variant:normal;font-weight:bold;font-stretch:normal;font-size:7.76111px;line-height:1.05;font-family:Asap;-inkscape-font-specification:'Asap Bold Italic';fill:#808080;fill-opacity:1"
         id="path1156" />
      <path
         d="m 51.614297,21.836123 q -0.225072,0 -0.48895,-0.06209 -0.263878,-0.06209 -0.450145,-0.194028 -0.178505,-0.131939 -0.178505,-0.325967 0,-0.302683 0.04657,-0.442383 0.05433,-0.147461 0.124177,-0.147461 0.03881,0 0.178506,0.06985 0.186267,0.09313 0.333728,0.147461 0.147461,0.04657 0.341488,0.04657 0.263878,0 0.388056,-0.06985 0.124178,-0.06985 0.124178,-0.240595 0,-0.162983 -0.131939,-0.256116 -0.124178,-0.100895 -0.287161,-0.170745 -0.162984,-0.07761 -0.225072,-0.108655 -0.388056,-0.186267 -0.566561,-0.434622 -0.170745,-0.256117 -0.170745,-0.620889 0,-0.667456 0.4191,-1.016706 0.426861,-0.357011 1.1176,-0.357011 0.4191,0 0.776111,0.116417 0.357011,0.108656 0.357011,0.357011 0,0.07761 -0.07761,0.217311 -0.06985,0.1397 -0.170745,0.256117 -0.09313,0.108655 -0.162983,0.108655 -0.03104,0 -0.201789,-0.07761 -0.170744,-0.07761 -0.434622,-0.07761 -0.442383,0 -0.442383,0.287161 0,0.178506 0.116416,0.271639 0.124178,0.08537 0.287162,0.155222 0.162983,0.06209 0.232833,0.09313 0.310444,0.131938 0.527755,0.403577 0.217311,0.263878 0.217311,0.62865 0,0.6985 -0.442383,1.071033 -0.442383,0.372534 -1.156405,0.372534 z"
         style="font-style:italic;font-variant:normal;font-weight:bold;font-stretch:normal;font-size:7.76111px;line-height:1.05;font-family:Asap;-inkscape-font-specification:'Asap Bold Italic';fill:#808080;fill-opacity:1"
         id="path1158" />
      <path
         d="m 54.974843,21.836123 q -0.457905,0 -0.737305,-0.232834 -0.271639,-0.232833 -0.271639,-0.737305 0,-0.06209 0.01552,-0.217311 l 0.20955,-2.02565 h -0.178505 q -0.20955,0 -0.20955,-0.263878 0,-0.07761 0.0078,-0.124177 l 0.01552,-0.131939 q 0.02328,-0.20955 0.08537,-0.294922 0.06985,-0.09313 0.194028,-0.09313 h 0.194028 l 0.147461,-0.706261 q 0.03104,-0.147461 0.1397,-0.20955 0.116416,-0.06985 0.318205,-0.06985 h 0.170745 q 0.442383,0 0.419099,0.302684 l -0.06209,0.682977 h 0.357011 q 0.108655,0 0.155222,0.06209 0.04657,0.06209 0.04657,0.201789 0,0.07761 -0.0078,0.124178 l -0.01552,0.131939 q -0.02328,0.201788 -0.08537,0.294922 -0.06209,0.09313 -0.186267,0.09313 h -0.357011 l -0.20955,2.010128 q -0.03104,0.294922 0.240595,0.294922 0.116416,0 0.186266,-0.02328 0.07761,-0.02328 0.09313,-0.02328 0.0388,0 0.04657,0.02328 0.01552,0.01552 0.01552,0.06985 0,0.186267 -0.05433,0.457906 -0.03881,0.201789 -0.248356,0.302683 -0.201789,0.100895 -0.434622,0.100895 z"
         style="font-style:italic;font-variant:normal;font-weight:bold;font-stretch:normal;font-size:7.76111px;line-height:1.05;font-family:Asap;-inkscape-font-specification:'Asap Bold Italic';fill:#808080;fill-opacity:1"
         id="path1160" />
      <path
         d="m 30.775046,27.587082 q -0.2667,0 -0.484011,-0.0889 -0.212372,-0.09384 -0.212372,-0.22225 0,-0.123472 0.02469,-0.202495 0.02469,-0.07902 0.06421,-0.07902 0.02963,0 0.09878,0.03951 0.108656,0.05433 0.217312,0.09384 0.108655,0.03457 0.256822,0.03457 0.212372,0 0.340783,-0.0889 0.128411,-0.09384 0.128411,-0.251883 0,-0.113595 -0.05927,-0.182739 -0.05433,-0.07408 -0.138289,-0.113594 -0.07902,-0.04445 -0.237067,-0.103717 -0.261761,-0.103717 -0.419806,-0.2667 -0.158044,-0.167923 -0.158044,-0.434623 0,-0.370416 0.256822,-0.57785 0.261761,-0.207433 0.656873,-0.207433 0.232127,0 0.4445,0.06421 0.212372,0.06421 0.212372,0.187678 0,0.06914 -0.07408,0.1778 -0.07408,0.103717 -0.128412,0.103717 -0.01482,0 -0.08396,-0.02963 -0.06421,-0.03457 -0.148166,-0.05433 -0.07902,-0.02469 -0.197556,-0.02469 -0.202495,0 -0.316089,0.07408 -0.113594,0.07408 -0.113594,0.212372 0,0.108656 0.06421,0.182739 0.06421,0.06914 0.13335,0.103717 0.06914,0.03457 0.2667,0.118533 0.261761,0.108656 0.409928,0.261761 0.153106,0.148167 0.153106,0.424745 0,0.251883 -0.123473,0.4445 -0.118533,0.192617 -0.335844,0.301272 -0.217311,0.103717 -0.498828,0.103717 z"
         style="font-style:italic;font-variant:normal;font-weight:500;font-stretch:normal;line-height:1.05;font-family:Asap;-inkscape-font-specification:'Asap Medium Italic';fill:#808080;fill-opacity:1"
         id="path1162" />
      <path
         d="m 32.94321,27.587082 q -0.57785,0 -0.57785,-0.572911 0,-0.03951 0.0099,-0.138289 l 0.153105,-1.481667 H 32.32091 q -0.103717,0 -0.103717,-0.118534 l 0.0049,-0.04939 0.0099,-0.07902 q 0.0099,-0.09384 0.03951,-0.13335 0.02963,-0.04445 0.09384,-0.04445 h 0.217311 l 0.09878,-0.498828 q 0.01482,-0.06914 0.06421,-0.09878 0.04939,-0.02963 0.153106,-0.02963 h 0.04445 q 0.108655,0 0.153105,0.03457 0.04445,0.02963 0.03457,0.103717 l -0.04939,0.48895 h 0.350661 q 0.108656,0 0.108656,0.123472 l -0.0049,0.05433 -0.0049,0.06915 q -0.0099,0.09384 -0.04445,0.138289 -0.02963,0.03951 -0.0889,0.03951 h -0.360539 l -0.153106,1.491544 q -0.0049,0.02963 -0.0049,0.07408 0,0.207433 0.207434,0.207433 0.0889,0 0.143227,-0.01482 0.05927,-0.01482 0.07408,-0.01482 0.01482,0 0.01975,0.0099 0.0099,0.0049 0.0099,0.03457 0,0.08396 -0.02469,0.212372 -0.01482,0.09384 -0.128411,0.143228 -0.108656,0.04939 -0.237067,0.04939 z"
         style="font-style:italic;font-variant:normal;font-weight:500;font-stretch:normal;line-height:1.05;font-family:Asap;-inkscape-font-specification:'Asap Medium Italic';fill:#808080;fill-opacity:1"
         id="path1164" />
      <path
         d="m 34.666878,27.587082 q -0.202495,0 -0.390172,-0.103717 -0.187678,-0.103717 -0.311151,-0.340783 -0.118533,-0.242006 -0.118533,-0.6223 0,-0.459317 0.143228,-0.819856 0.148167,-0.360539 0.414867,-0.558095 0.271639,-0.202494 0.617361,-0.202494 0.340783,0 0.617361,0.261761 0.04939,-0.138289 0.09384,-0.187678 0.04445,-0.04939 0.158045,-0.05433 h 0.03951 q 0.09878,0 0.13335,0.03951 0.03951,0.03457 0.03457,0.113595 l -0.187678,1.852084 q -0.01976,0.202494 0.13335,0.202494 0.05927,0 0.108656,-0.01482 0.04939,-0.01482 0.06421,-0.01482 0.03457,0 0.03457,0.04445 0,0.08396 -0.0247,0.212372 -0.01976,0.09384 -0.128411,0.143228 -0.108656,0.04939 -0.212372,0.04939 -0.464256,0 -0.479073,-0.48895 -0.13335,0.246944 -0.325966,0.370416 -0.192617,0.118534 -0.414867,0.118534 z m 0.148167,-0.434622 q 0.167922,0 0.335844,-0.158045 0.172861,-0.162983 0.291395,-0.508706 l 0.07408,-0.651933 q 0.02469,-0.207433 0.04445,-0.296333 -0.217311,-0.172862 -0.498828,-0.172862 -0.330906,0 -0.513645,0.321028 -0.1778,0.321028 -0.1778,0.8001 0,0.666751 0.444501,0.666751 z"
         style="font-style:italic;font-variant:normal;font-weight:500;font-stretch:normal;line-height:1.05;font-family:Asap;-inkscape-font-specification:'Asap Medium Italic';fill:#808080;fill-opacity:1"
         id="path1166" />
      <path
         d="m 37.323991,27.587082 q -0.57785,0 -0.57785,-0.572911 0,-0.03951 0.0099,-0.138289 l 0.153106,-1.481667 h -0.207434 q -0.103717,0 -0.103717,-0.118534 l 0.0049,-0.04939 0.0099,-0.07902 q 0.0099,-0.09384 0.03951,-0.13335 0.02963,-0.04445 0.09384,-0.04445 h 0.217311 l 0.09878,-0.498828 q 0.01482,-0.06914 0.06421,-0.09878 0.04939,-0.02963 0.153105,-0.02963 h 0.04445 q 0.108656,0 0.153106,0.03457 0.04445,0.02963 0.03457,0.103717 l -0.04939,0.48895 h 0.350661 q 0.108656,0 0.108656,0.123472 l -0.0049,0.05433 -0.0049,0.06915 q -0.0099,0.09384 -0.04445,0.138289 -0.02963,0.03951 -0.0889,0.03951 H 37.41783 l -0.153105,1.491544 q -0.0049,0.02963 -0.0049,0.07408 0,0.207433 0.207433,0.207433 0.0889,0 0.143228,-0.01482 0.05927,-0.01482 0.07408,-0.01482 0.01482,0 0.01976,0.0099 0.0099,0.0049 0.0099,0.03457 0,0.08396 -0.02469,0.212372 -0.01482,0.09384 -0.128411,0.143228 -0.108656,0.04939 -0.237067,0.04939 z"
         style="font-style:italic;font-variant:normal;font-weight:500;font-stretch:normal;line-height:1.05;font-family:Asap;-inkscape-font-specification:'Asap Medium Italic';fill:#808080;fill-opacity:1"
         id="path1168" />
      <path
         d="m 40.608349,27.137643 q 0.03457,0 0.03457,0.04445 0,0.08396 -0.02469,0.212372 -0.01482,0.09384 -0.123472,0.143228 -0.108656,0.04939 -0.212373,0.04939 -0.22225,0 -0.345722,-0.113595 -0.123472,-0.113594 -0.148167,-0.365477 -0.167922,0.232127 -0.390172,0.3556 -0.22225,0.123472 -0.454378,0.123472 -0.321028,0 -0.484011,-0.158045 -0.162983,-0.158044 -0.162983,-0.459316 0,-0.07902 0.0049,-0.118534 l 0.1778,-1.768122 q 0.01482,-0.123473 0.237066,-0.123473 h 0.05927 q 0.227189,0 0.212372,0.123473 l -0.167922,1.679222 q -0.0049,0.02469 -0.0049,0.06914 0,0.321028 0.340784,0.321028 0.182738,0 0.370416,-0.158045 0.187678,-0.158044 0.31115,-0.508706 l 0.148167,-1.402644 q 0.01482,-0.123473 0.237067,-0.123473 h 0.05433 q 0.227189,0 0.217311,0.123473 l -0.187678,1.881717 q -0.01976,0.202494 0.13335,0.202494 0.05433,0 0.103717,-0.01482 0.04939,-0.01482 0.0642,-0.01482 z"
         style="font-style:italic;font-variant:normal;font-weight:500;font-stretch:normal;line-height:1.05;font-family:Asap;-inkscape-font-specification:'Asap Medium Italic';fill:#808080;fill-opacity:1"
         id="path1170" />
      <path
         d="m 41.635634,27.587082 q -0.2667,0 -0.484011,-0.0889 -0.212372,-0.09384 -0.212372,-0.22225 0,-0.123472 0.02469,-0.202495 0.02469,-0.07902 0.06421,-0.07902 0.02963,0 0.09878,0.03951 0.108656,0.05433 0.217312,0.09384 0.108655,0.03457 0.256822,0.03457 0.212372,0 0.340783,-0.0889 0.128411,-0.09384 0.128411,-0.251883 0,-0.113595 -0.05927,-0.182739 -0.05433,-0.07408 -0.138289,-0.113594 -0.07902,-0.04445 -0.237067,-0.103717 -0.261761,-0.103717 -0.419806,-0.2667 -0.158044,-0.167923 -0.158044,-0.434623 0,-0.370416 0.256822,-0.57785 0.261761,-0.207433 0.656873,-0.207433 0.232127,0 0.4445,0.06421 0.212372,0.06421 0.212372,0.187678 0,0.06914 -0.07408,0.1778 -0.07408,0.103717 -0.128412,0.103717 -0.01482,0 -0.08396,-0.02963 -0.06421,-0.03457 -0.148166,-0.05433 -0.07902,-0.02469 -0.197556,-0.02469 -0.202494,0 -0.316089,0.07408 -0.113594,0.07408 -0.113594,0.212372 0,0.108656 0.06421,0.182739 0.06421,0.06914 0.13335,0.103717 0.06914,0.03457 0.2667,0.118533 0.261761,0.108656 0.409928,0.261761 0.153106,0.148167 0.153106,0.424745 0,0.251883 -0.123473,0.4445 -0.118533,0.192617 -0.335844,0.301272 -0.217311,0.103717 -0.498828,0.103717 z"
         style="font-style:italic;font-variant:normal;font-weight:500;font-stretch:normal;line-height:1.05;font-family:Asap;-inkscape-font-specification:'Asap Medium Italic';fill:#808080;fill-opacity:1"
         id="path1172" />
      <path
         d="m 43.463015,26.525221 q -0.103717,0 -0.143228,-0.02963 -0.03457,-0.03457 -0.02469,-0.09878 l 0.232127,-2.187928 q 0.01482,-0.123472 0.237067,-0.123472 h 0.13335 q 0.237067,0 0.212372,0.128411 l -0.40005,2.187928 q -0.0099,0.06421 -0.05433,0.09384 -0.04445,0.02963 -0.138288,0.02963 z m -0.13335,1.037166 q -0.118534,0 -0.167923,-0.02963 -0.04445,-0.02963 -0.04445,-0.09384 l 0.03951,-0.365478 q 0.0099,-0.123472 0.237066,-0.123472 h 0.108656 q 0.118533,0 0.167922,0.03457 0.04939,0.02963 0.04445,0.0889 l -0.03951,0.365478 q -0.01482,0.123472 -0.237067,0.123472 z"
         style="font-style:italic;font-variant:normal;font-weight:500;font-stretch:normal;line-height:1.05;font-family:Asap;-inkscape-font-specification:'Asap Medium Italic';fill:#808080;fill-opacity:1"
         id="path1174" />
    </g>
    <text
       xml:space="preserve"
       style="font-style:normal;font-weight:normal;font-size:10.5833px;line-height:1.25;font-family:sans-serif;letter-spacing:0px;word-spacing:0px;fill:#000000;fill-opacity:1;stroke:none;stroke-width:0.264583"
       x="59.76255"
       y="18.083391"
       id="text893"><tspan
         sodipodi:role="line"
         id="tspan891"
         x="59.76255"
         y="18.083391"
         style="stroke-width:0.264583"> </tspan></text>
    <g
       aria-label="Check out our Contest
status!
"
       transform="matrix(0.78381016,-0.2100213,0.2100213,0.78381016,-24.527908,5.7957791)"
       id="g1227"
       style="font-style:normal;font-weight:normal;font-size:4.93889px;line-height:0;font-family:sans-serif;letter-spacing:0px;word-spacing:0px;white-space:pre;shape-inside:url(#rect887);fill:#6426ca;fill-opacity:1;stroke:none">
      <path
         d="m 31.575146,13.659441 q -0.726017,0 -1.081617,-0.340784 -0.3556,-0.340783 -0.3556,-1.051983 0,-1.032228 0.469195,-1.580445 0.469194,-0.553156 1.353256,-0.553156 0.237066,0 0.469194,0.05433 0.232128,0.04939 0.360539,0.128411 0.103717,0.06421 0.103717,0.13335 0,0.07408 -0.09878,0.212373 -0.09384,0.13335 -0.153106,0.13335 -0.01482,0 -0.118533,-0.05433 -0.09878,-0.05927 -0.251883,-0.103717 -0.148167,-0.04445 -0.3556,-0.04445 -0.602545,0 -0.913695,0.409928 -0.31115,0.404989 -0.31115,1.195211 0,0.508706 0.227189,0.755651 0.232128,0.246944 0.706261,0.246944 0.232128,0 0.40005,-0.04939 0.172861,-0.05433 0.350661,-0.138289 0.07902,-0.04445 0.108656,-0.04445 0.05927,0 0.113594,0.118534 0.05927,0.118533 0.05927,0.192616 0,0.04445 -0.04939,0.09878 -0.04939,0.04939 -0.128411,0.0889 -0.158044,0.08396 -0.409928,0.138289 -0.246944,0.05433 -0.493889,0.05433 z"
         style="font-style:italic;font-variant:normal;font-weight:500;font-stretch:normal;line-height:1.05;font-family:Asap;-inkscape-font-specification:'Asap Medium Italic';fill:#6426ca;fill-opacity:1"
         id="path1177" />
      <path
         d="m 35.259556,13.659441 q -0.227189,0 -0.3556,-0.118534 -0.128412,-0.118533 -0.128412,-0.370416 0,-0.07902 0.0049,-0.123473 l 0.113595,-1.214967 q 0.0049,-0.02963 0.0049,-0.07902 0,-0.31115 -0.306212,-0.31115 -0.202494,0 -0.395111,0.148167 -0.187678,0.148167 -0.316089,0.484011 l -0.148166,1.437217 q -0.0049,0.05927 -0.06914,0.09384 -0.06421,0.02963 -0.172861,0.02963 h -0.05433 q -0.108655,0 -0.167922,-0.03457 -0.05433,-0.03457 -0.04939,-0.08396 l 0.370417,-3.486856 q 0.01482,-0.1234726 0.237067,-0.1234726 h 0.05433 q 0.113595,0 0.167923,0.034572 0.05927,0.029633 0.04939,0.0889 l -0.148166,1.417461 q 0.167922,-0.217311 0.380294,-0.325967 0.212373,-0.113594 0.439562,-0.113594 0.321027,0 0.484011,0.158044 0.162983,0.158045 0.162983,0.459317 0,0.07902 -0.0049,0.118533 l -0.123472,1.29399 q -0.01976,0.202494 0.13335,0.202494 0.05433,0 0.103717,-0.01482 0.04939,-0.01482 0.06421,-0.01482 0.03457,0 0.03457,0.04445 0,0.08396 -0.02469,0.212372 -0.01976,0.09384 -0.128411,0.143228 -0.108656,0.04939 -0.212372,0.04939 z"
         style="font-style:italic;font-variant:normal;font-weight:500;font-stretch:normal;line-height:1.05;font-family:Asap;-inkscape-font-specification:'Asap Medium Italic';fill:#6426ca;fill-opacity:1"
         id="path1179" />
      <path
         d="m 36.978282,12.587702 q -0.256822,0 -0.454378,-0.03457 v 0.0099 q 0,0.375356 0.167923,0.523523 0.172861,0.148166 0.493889,0.148166 0.202494,0 0.360539,-0.05433 0.158044,-0.05433 0.306211,-0.13335 0.07902,-0.04445 0.09878,-0.04445 0.01975,0 0.02469,0.0099 0.0099,0.0099 0.0099,0.04939 0,0.123472 -0.02963,0.271639 -0.03457,0.162983 -0.311151,0.246945 -0.276577,0.07902 -0.513644,0.07902 -0.498828,0 -0.814917,-0.237067 -0.316089,-0.242006 -0.316089,-0.805039 0,-0.740834 0.345722,-1.175456 0.350662,-0.434622 0.992717,-0.434622 0.321028,0 0.518584,0.108655 0.202494,0.108656 0.286455,0.2667 0.08396,0.153106 0.08396,0.301273 0,0.469194 -0.365477,0.686505 -0.360539,0.217312 -0.884062,0.217312 z m 0.335845,-1.155701 q -0.31115,0 -0.508706,0.202495 -0.197555,0.202494 -0.251883,0.558094 h 0.316089 q 0.291394,0 0.567972,-0.09384 0.276578,-0.09878 0.276578,-0.360539 0,-0.138289 -0.113595,-0.22225 -0.108655,-0.08396 -0.286455,-0.08396 z"
         style="font-style:italic;font-variant:normal;font-weight:500;font-stretch:normal;line-height:1.05;font-family:Asap;-inkscape-font-specification:'Asap Medium Italic';fill:#6426ca;fill-opacity:1"
         id="path1181" />
      <path
         d="m 39.645273,13.659441 q -0.553155,0 -0.829733,-0.251884 -0.271639,-0.256822 -0.271639,-0.8001 0,-0.765528 0.350661,-1.180394 0.3556,-0.419806 1.002595,-0.419806 0.261761,0 0.484011,0.07408 0.22225,0.07408 0.22225,0.182739 0,0.06421 -0.0889,0.187678 -0.08396,0.118533 -0.13335,0.118533 -0.01976,0 -0.06421,-0.02469 -0.09384,-0.04939 -0.202494,-0.07902 -0.103717,-0.03457 -0.256822,-0.03457 -0.380295,0 -0.57785,0.291395 -0.197556,0.286456 -0.197556,0.839611 0,0.345722 0.143228,0.508706 0.148166,0.162983 0.469194,0.162983 0.143228,0 0.256823,-0.03457 0.113594,-0.03457 0.242005,-0.0889 0.0247,-0.0099 0.03951,-0.01482 0.01976,-0.0099 0.02963,-0.0099 0.05433,0 0.108655,0.103716 0.05433,0.103717 0.05433,0.1778 0,0.118534 -0.261761,0.207434 -0.261761,0.08396 -0.518584,0.08396 z"
         style="font-style:italic;font-variant:normal;font-weight:500;font-stretch:normal;line-height:1.05;font-family:Asap;-inkscape-font-specification:'Asap Medium Italic';fill:#6426ca;fill-opacity:1"
         id="path1183" />
      <path
         d="m 41.166445,13.634746 q -0.118533,0 -0.167922,-0.02963 -0.04939,-0.02963 -0.04939,-0.09384 l 0.370417,-3.481917 q 0.0099,-0.1234726 0.237066,-0.1234726 h 0.05433 q 0.118534,0 0.167922,0.029633 0.04939,0.029633 0.04939,0.093839 l -0.227189,2.1336 h 0.01976 l 0.982839,-1.051983 q 0.06914,-0.07902 0.281517,-0.07902 h 0.06914 q 0.09384,0 0.143228,0.01976 0.05433,0.01482 0.05433,0.04445 0,0.04445 -0.05927,0.103717 l -0.987778,1.051983 0.893939,1.224845 q 0.03457,0.04939 0.03457,0.07408 0,0.04939 -0.05433,0.06915 -0.05433,0.01482 -0.187678,0.01482 h -0.07902 q -0.103717,0 -0.172861,-0.01482 -0.06914,-0.01482 -0.09384,-0.05927 l -0.849489,-1.160639 -0.01976,0.0049 -0.113595,1.106311 q -0.01482,0.123472 -0.242005,0.123472 z"
         style="font-style:italic;font-variant:normal;font-weight:500;font-stretch:normal;line-height:1.05;font-family:Asap;-inkscape-font-specification:'Asap Medium Italic';fill:#6426ca;fill-opacity:1"
         id="path1185" />
      <path
         d="m 45.804061,13.659441 q -0.518584,0 -0.8001,-0.286456 -0.281517,-0.291394 -0.281517,-0.824794 0,-0.67169 0.306211,-1.106312 0.31115,-0.434622 0.972962,-0.434622 0.503766,0 0.780344,0.296333 0.276578,0.291395 0.276578,0.824795 0,0.745772 -0.330906,1.140883 -0.325966,0.390173 -0.923572,0.390173 z m 0.03457,-0.424745 q 0.696384,0 0.696384,-1.091494 0,-0.345723 -0.153106,-0.528462 -0.148167,-0.182739 -0.439561,-0.182739 -0.350661,0 -0.528461,0.281517 -0.172862,0.281517 -0.172862,0.814917 0,0.345722 0.153106,0.528461 0.153106,0.1778 0.4445,0.1778 z"
         style="font-style:italic;font-variant:normal;font-weight:500;font-stretch:normal;line-height:1.05;font-family:Asap;-inkscape-font-specification:'Asap Medium Italic';fill:#6426ca;fill-opacity:1"
         id="path1187" />
      <path
         d="m 49.849003,13.210002 q 0.03457,0 0.03457,0.04445 0,0.08396 -0.02469,0.212372 -0.01482,0.09384 -0.123472,0.143228 -0.108656,0.04939 -0.212373,0.04939 -0.22225,0 -0.345722,-0.113595 -0.123472,-0.113594 -0.148167,-0.365478 -0.167922,0.232128 -0.390172,0.355601 -0.22225,0.123472 -0.454378,0.123472 -0.321028,0 -0.484011,-0.158045 -0.162983,-0.158044 -0.162983,-0.459316 0,-0.07902 0.0049,-0.118534 l 0.1778,-1.768122 q 0.01482,-0.123473 0.237066,-0.123473 h 0.05927 q 0.227189,0 0.212372,0.123473 l -0.167922,1.679222 q -0.0049,0.0247 -0.0049,0.06915 0,0.321027 0.340784,0.321027 0.182738,0 0.370416,-0.158044 0.187678,-0.158045 0.31115,-0.508706 l 0.148167,-1.402644 q 0.01482,-0.123473 0.237067,-0.123473 h 0.05433 q 0.227189,0 0.217311,0.123473 l -0.187678,1.881717 q -0.01976,0.202494 0.13335,0.202494 0.05433,0 0.103717,-0.01482 0.04939,-0.01482 0.06421,-0.01482 z"
         style="font-style:italic;font-variant:normal;font-weight:500;font-stretch:normal;line-height:1.05;font-family:Asap;-inkscape-font-specification:'Asap Medium Italic';fill:#6426ca;fill-opacity:1"
         id="path1189" />
      <path
         d="m 51.004699,13.659441 q -0.57785,0 -0.57785,-0.572911 0,-0.03951 0.0099,-0.138289 l 0.153105,-1.481667 h -0.207433 q -0.103717,0 -0.103717,-0.118534 l 0.0049,-0.04939 0.0099,-0.07902 q 0.0099,-0.09384 0.03951,-0.13335 0.02963,-0.04445 0.09384,-0.04445 h 0.217311 l 0.09878,-0.498828 q 0.01482,-0.06914 0.06421,-0.09878 0.04939,-0.02963 0.153105,-0.02963 h 0.04445 q 0.108656,0 0.153106,0.03457 0.04445,0.02963 0.03457,0.103717 l -0.04939,0.48895 h 0.350661 q 0.108656,0 0.108656,0.123472 l -0.0049,0.05433 -0.0049,0.06915 q -0.0099,0.09384 -0.04445,0.138289 -0.02963,0.03951 -0.0889,0.03951 h -0.360539 l -0.153105,1.491544 q -0.0049,0.02963 -0.0049,0.07408 0,0.207433 0.207433,0.207433 0.0889,0 0.143228,-0.01482 0.05927,-0.01482 0.07408,-0.01482 0.01482,0 0.01976,0.0099 0.0099,0.0049 0.0099,0.03457 0,0.08396 -0.0247,0.212372 -0.01482,0.09384 -0.128411,0.143228 -0.108656,0.04939 -0.237067,0.04939 z"
         style="font-style:italic;font-variant:normal;font-weight:500;font-stretch:normal;line-height:1.05;font-family:Asap;-inkscape-font-specification:'Asap Medium Italic';fill:#6426ca;fill-opacity:1"
         id="path1191" />
      <path
         d="m 54.239668,13.659441 q -0.518584,0 -0.8001,-0.286456 -0.281517,-0.291394 -0.281517,-0.824794 0,-0.67169 0.306211,-1.106312 0.31115,-0.434622 0.972961,-0.434622 0.503767,0 0.780345,0.296333 0.276578,0.291395 0.276578,0.824795 0,0.745772 -0.330906,1.140883 -0.325966,0.390173 -0.923572,0.390173 z m 0.03457,-0.424745 q 0.696384,0 0.696384,-1.091494 0,-0.345723 -0.153106,-0.528462 -0.148167,-0.182739 -0.439561,-0.182739 -0.350661,0 -0.528461,0.281517 -0.172862,0.281517 -0.172862,0.814917 0,0.345722 0.153106,0.528461 0.153106,0.1778 0.4445,0.1778 z"
         style="font-style:italic;font-variant:normal;font-weight:500;font-stretch:normal;line-height:1.05;font-family:Asap;-inkscape-font-specification:'Asap Medium Italic';fill:#6426ca;fill-opacity:1"
         id="path1193" />
      <path
         d="m 58.284609,13.210002 q 0.03457,0 0.03457,0.04445 0,0.08396 -0.02469,0.212372 -0.01482,0.09384 -0.123472,0.143228 -0.108656,0.04939 -0.212373,0.04939 -0.22225,0 -0.345722,-0.113595 -0.123472,-0.113594 -0.148167,-0.365478 -0.167922,0.232128 -0.390172,0.355601 -0.22225,0.123472 -0.454378,0.123472 -0.321028,0 -0.484011,-0.158045 -0.162983,-0.158044 -0.162983,-0.459316 0,-0.07902 0.0049,-0.118534 l 0.1778,-1.768122 q 0.01482,-0.123473 0.237066,-0.123473 h 0.05927 q 0.227189,0 0.212372,0.123473 l -0.167922,1.679222 q -0.0049,0.0247 -0.0049,0.06915 0,0.321027 0.340784,0.321027 0.182738,0 0.370416,-0.158044 0.187678,-0.158045 0.31115,-0.508706 l 0.148167,-1.402644 q 0.01482,-0.123473 0.237067,-0.123473 h 0.05433 q 0.227189,0 0.217311,0.123473 l -0.187678,1.881717 q -0.01976,0.202494 0.13335,0.202494 0.05433,0 0.103717,-0.01482 0.04939,-0.01482 0.06421,-0.01482 z"
         style="font-style:italic;font-variant:normal;font-weight:500;font-stretch:normal;line-height:1.05;font-family:Asap;-inkscape-font-specification:'Asap Medium Italic';fill:#6426ca;fill-opacity:1"
         id="path1195" />
      <path
         d="m 58.951357,13.634746 q -0.108656,0 -0.167922,-0.03457 -0.05433,-0.03457 -0.04939,-0.09384 l 0.182739,-1.698978 q 0.01976,-0.182739 0.01976,-0.316089 0,-0.103717 -0.0099,-0.172861 -0.0099,-0.07408 -0.0099,-0.09878 0.0049,-0.07408 0.09878,-0.108655 0.09384,-0.03457 0.296333,-0.03457 0.08396,0 0.113594,0.09878 0.02963,0.09384 0.01976,0.232128 0.113594,-0.182739 0.276578,-0.291395 0.162983,-0.108655 0.350661,-0.108655 0.103717,0 0.172861,0.05433 0.06914,0.05433 0.06914,0.148166 0,0.103717 -0.04939,0.217312 -0.04445,0.108655 -0.09878,0.108655 -0.01976,0 -0.09384,-0.02469 -0.06914,-0.0247 -0.172861,-0.0247 -0.118533,0 -0.251883,0.07902 -0.128412,0.07408 -0.227189,0.227189 l -0.172862,1.713795 q -0.01482,0.128411 -0.242005,0.128411 z"
         style="font-style:italic;font-variant:normal;font-weight:500;font-stretch:normal;line-height:1.05;font-family:Asap;-inkscape-font-specification:'Asap Medium Italic';fill:#6426ca;fill-opacity:1"
         id="path1197" />
      <path
         d="m 32.553045,21.836123 q -1.164166,0 -1.730727,-0.535517 -0.5588,-0.543278 -0.5588,-1.668639 0,-1.637594 0.745067,-2.491316 0.752827,-0.861483 2.17311,-0.861483 0.380295,0 0.776111,0.08537 0.403578,0.07761 0.613128,0.20955 0.170744,0.108656 0.170744,0.232833 0,0.108656 -0.108655,0.287161 -0.108656,0.178506 -0.248356,0.318206 -0.1397,0.1397 -0.225072,0.1397 -0.02328,0 -0.178505,-0.06985 -0.147461,-0.06985 -0.380295,-0.124178 -0.225072,-0.05433 -0.551039,-0.05433 -0.745066,0 -1.148644,0.5588 -0.403578,0.5588 -0.403578,1.591028 0,1.365955 1.164167,1.365955 0.34925,0 0.613128,-0.06985 0.263877,-0.06985 0.512233,-0.178505 0.1397,-0.06209 0.178505,-0.06209 0.108656,0 0.194028,0.124178 0.09313,0.124177 0.1397,0.287161 0.05433,0.155222 0.05433,0.248355 0,0.100895 -0.08537,0.201789 -0.08537,0.100894 -0.217311,0.170744 -0.256117,0.1397 -0.690739,0.217311 -0.426861,0.07761 -0.807156,0.07761 z"
         style="font-style:italic;font-variant:normal;font-weight:bold;font-stretch:normal;font-size:7.76111px;line-height:1.05;font-family:Asap;-inkscape-font-specification:'Asap Bold Italic';fill:#fe8efe;fill-opacity:1"
         id="path1199" />
      <path
         d="m 36.775085,21.836123 q -0.830439,0 -1.280583,-0.450145 -0.442383,-0.457905 -0.442383,-1.288344 0,-1.078794 0.481189,-1.761772 0.481188,-0.682978 1.606549,-0.682978 0.830439,0 1.272822,0.457906 0.450145,0.450144 0.450145,1.288344 0,1.179689 -0.551039,1.808339 -0.543278,0.62865 -1.5367,0.62865 z m 0.09313,-0.90805 q 0.403578,0 0.613128,-0.364772 0.20955,-0.372534 0.20955,-1.109839 0,-0.426861 -0.170744,-0.659694 -0.162984,-0.232834 -0.473428,-0.232834 -0.830439,0 -0.830439,1.482372 0,0.4191 0.170745,0.651933 0.170744,0.232834 0.481188,0.232834 z"
         style="font-style:italic;font-variant:normal;font-weight:bold;font-stretch:normal;font-size:7.76111px;line-height:1.05;font-family:Asap;-inkscape-font-specification:'Asap Bold Italic';fill:#fe8efe;fill-opacity:1"
         id="path1201" />
      <path
         d="m 43.286643,20.881506 q 0.03881,0 0.04657,0.02328 0.01552,0.01552 0.01552,0.06985 0,0.186267 -0.05433,0.457906 -0.03881,0.201789 -0.248355,0.302683 -0.201789,0.100895 -0.434622,0.100895 -0.931333,0 -0.931333,-0.939095 0,-0.131939 0.0078,-0.201789 l 0.155222,-1.629833 q 0.02328,-0.240594 -0.07761,-0.34925 -0.100895,-0.116416 -0.333728,-0.116416 -0.20955,0 -0.388055,0.1397 -0.170745,0.1397 -0.294923,0.333727 L 40.500405,21.5412 q -0.02328,0.248356 -0.48895,0.248356 h -0.217311 q -0.225072,0 -0.341489,-0.06985 -0.116417,-0.06985 -0.100894,-0.170744 l 0.263877,-2.58445 q 0.03105,-0.357011 0.03105,-0.512233 l -0.0078,-0.271639 q -0.0078,-0.05433 -0.0078,-0.162983 0,-0.124178 0.256116,-0.201789 0.256117,-0.07761 0.644172,-0.07761 0.240595,0 0.256117,0.519994 0.201789,-0.248356 0.535516,-0.426861 0.333728,-0.178506 0.675217,-0.178506 0.496711,0 0.752828,0.225073 0.263877,0.225072 0.263877,0.721783 0,0.124178 -0.0078,0.194028 l -0.170744,1.839383 q -0.01552,0.155222 0.0388,0.225072 0.06209,0.06985 0.186267,0.06985 0.06985,0 0.131939,-0.02328 0.06985,-0.02328 0.09313,-0.02328 z"
         style="font-style:italic;font-variant:normal;font-weight:bold;font-stretch:normal;font-size:7.76111px;line-height:1.05;font-family:Asap;-inkscape-font-specification:'Asap Bold Italic';fill:#fe8efe;fill-opacity:1"
         id="path1203" />
      <path
         d="m 44.931993,21.836123 q -0.457906,0 -0.737306,-0.232834 -0.271639,-0.232833 -0.271639,-0.737305 0,-0.06209 0.01552,-0.217311 l 0.20955,-2.02565 h -0.178506 q -0.20955,0 -0.20955,-0.263878 0,-0.07761 0.0078,-0.124177 l 0.01552,-0.131939 q 0.02328,-0.20955 0.08537,-0.294922 0.06985,-0.09313 0.194027,-0.09313 h 0.194028 l 0.147461,-0.706261 q 0.03104,-0.147461 0.1397,-0.20955 0.116417,-0.06985 0.318206,-0.06985 h 0.170744 q 0.442383,0 0.4191,0.302684 l -0.06209,0.682977 h 0.357011 q 0.108656,0 0.155222,0.06209 0.04657,0.06209 0.04657,0.201789 0,0.07761 -0.0078,0.124178 l -0.01552,0.131939 q -0.02328,0.201788 -0.08537,0.294922 -0.06209,0.09313 -0.186266,0.09313 h -0.357011 l -0.20955,2.010128 q -0.03104,0.294922 0.240594,0.294922 0.116417,0 0.186267,-0.02328 0.07761,-0.02328 0.09313,-0.02328 0.03881,0 0.04657,0.02328 0.01552,0.01552 0.01552,0.06985 0,0.186267 -0.05433,0.457906 -0.0388,0.201789 -0.248355,0.302683 -0.201789,0.100895 -0.434622,0.100895 z"
         style="font-style:italic;font-variant:normal;font-weight:bold;font-stretch:normal;font-size:7.76111px;line-height:1.05;font-family:Asap;-inkscape-font-specification:'Asap Bold Italic';fill:#fe8efe;fill-opacity:1"
         id="path1205" />
      <path
         d="m 50.038796,18.778245 q 0,0.48895 -0.248355,0.807156 -0.240595,0.318205 -0.620889,0.465666 -0.380294,0.147461 -0.799394,0.147461 -0.426861,0 -0.807156,-0.05433 0.03105,0.450144 0.232834,0.620888 0.201789,0.162984 0.582083,0.162984 0.465666,0 1.04775,-0.2794 0.124177,-0.06209 0.155222,-0.06209 0.06209,0 0.06209,0.108655 0,0.147462 -0.01552,0.333728 -0.01552,0.178506 -0.04657,0.263878 -0.08537,0.287161 -0.504472,0.4191 -0.4191,0.124178 -0.845961,0.124178 -0.923572,0 -1.381478,-0.450145 -0.450144,-0.450144 -0.450144,-1.2573 0,-1.26506 0.597605,-1.870427 0.597606,-0.605367 1.5367,-0.605367 0.582083,0 0.915811,0.186267 0.341489,0.178506 0.465667,0.434622 0.124177,0.256117 0.124177,0.504472 z m -2.048933,0.651934 q 0.496711,0 0.714023,-0.147462 0.217311,-0.155222 0.217311,-0.357011 0,-0.186266 -0.124178,-0.271638 -0.124178,-0.09313 -0.341489,-0.09313 -0.341489,0 -0.551039,0.240595 -0.201789,0.232833 -0.287161,0.62865 z"
         style="font-style:italic;font-variant:normal;font-weight:bold;font-stretch:normal;font-size:7.76111px;line-height:1.05;font-family:Asap;-inkscape-font-specification:'Asap Bold Italic';fill:#fe8efe;fill-opacity:1"
         id="path1207" />
      <path
         d="m 51.614297,21.836123 q -0.225072,0 -0.48895,-0.06209 -0.263878,-0.06209 -0.450145,-0.194028 -0.178505,-0.131939 -0.178505,-0.325967 0,-0.302683 0.04657,-0.442383 0.05433,-0.147461 0.124177,-0.147461 0.03881,0 0.178506,0.06985 0.186267,0.09313 0.333728,0.147461 0.147461,0.04657 0.341488,0.04657 0.263878,0 0.388056,-0.06985 0.124178,-0.06985 0.124178,-0.240595 0,-0.162983 -0.131939,-0.256116 -0.124178,-0.100895 -0.287161,-0.170745 -0.162984,-0.07761 -0.225072,-0.108655 -0.388056,-0.186267 -0.566561,-0.434622 -0.170745,-0.256117 -0.170745,-0.620889 0,-0.667456 0.4191,-1.016706 0.426861,-0.357011 1.1176,-0.357011 0.4191,0 0.776111,0.116417 0.357011,0.108656 0.357011,0.357011 0,0.07761 -0.07761,0.217311 -0.06985,0.1397 -0.170745,0.256117 -0.09313,0.108655 -0.162983,0.108655 -0.03104,0 -0.201789,-0.07761 -0.170744,-0.07761 -0.434622,-0.07761 -0.442383,0 -0.442383,0.287161 0,0.178506 0.116416,0.271639 0.124178,0.08537 0.287162,0.155222 0.162983,0.06209 0.232833,0.09313 0.310444,0.131938 0.527755,0.403577 0.217311,0.263878 0.217311,0.62865 0,0.6985 -0.442383,1.071033 -0.442383,0.372534 -1.156405,0.372534 z"
         style="font-style:italic;font-variant:normal;font-weight:bold;font-stretch:normal;font-size:7.76111px;line-height:1.05;font-family:Asap;-inkscape-font-specification:'Asap Bold Italic';fill:#fe8efe;fill-opacity:1"
         id="path1209" />
      <path
         d="m 54.974843,21.836123 q -0.457905,0 -0.737305,-0.232834 -0.271639,-0.232833 -0.271639,-0.737305 0,-0.06209 0.01552,-0.217311 l 0.20955,-2.02565 h -0.178505 q -0.20955,0 -0.20955,-0.263878 0,-0.07761 0.0078,-0.124177 l 0.01552,-0.131939 q 0.02328,-0.20955 0.08537,-0.294922 0.06985,-0.09313 0.194028,-0.09313 h 0.194028 l 0.147461,-0.706261 q 0.03104,-0.147461 0.1397,-0.20955 0.116416,-0.06985 0.318205,-0.06985 h 0.170745 q 0.442383,0 0.419099,0.302684 l -0.06209,0.682977 h 0.357011 q 0.108655,0 0.155222,0.06209 0.04657,0.06209 0.04657,0.201789 0,0.07761 -0.0078,0.124178 l -0.01552,0.131939 q -0.02328,0.201788 -0.08537,0.294922 -0.06209,0.09313 -0.186267,0.09313 h -0.357011 l -0.20955,2.010128 q -0.03104,0.294922 0.240595,0.294922 0.116416,0 0.186266,-0.02328 0.07761,-0.02328 0.09313,-0.02328 0.0388,0 0.04657,0.02328 0.01552,0.01552 0.01552,0.06985 0,0.186267 -0.05433,0.457906 -0.03881,0.201789 -0.248356,0.302683 -0.201789,0.100895 -0.434622,0.100895 z"
         style="font-style:italic;font-variant:normal;font-weight:bold;font-stretch:normal;font-size:7.76111px;line-height:1.05;font-family:Asap;-inkscape-font-specification:'Asap Bold Italic';fill:#fe8efe;fill-opacity:1"
         id="path1211" />
      <path
         d="m 30.775046,27.587082 q -0.2667,0 -0.484011,-0.0889 -0.212372,-0.09384 -0.212372,-0.22225 0,-0.123472 0.02469,-0.202495 0.02469,-0.07902 0.06421,-0.07902 0.02963,0 0.09878,0.03951 0.108656,0.05433 0.217312,0.09384 0.108655,0.03457 0.256822,0.03457 0.212372,0 0.340783,-0.0889 0.128411,-0.09384 0.128411,-0.251883 0,-0.113595 -0.05927,-0.182739 -0.05433,-0.07408 -0.138289,-0.113594 -0.07902,-0.04445 -0.237067,-0.103717 -0.261761,-0.103717 -0.419806,-0.2667 -0.158044,-0.167923 -0.158044,-0.434623 0,-0.370416 0.256822,-0.57785 0.261761,-0.207433 0.656873,-0.207433 0.232127,0 0.4445,0.06421 0.212372,0.06421 0.212372,0.187678 0,0.06914 -0.07408,0.1778 -0.07408,0.103717 -0.128412,0.103717 -0.01482,0 -0.08396,-0.02963 -0.06421,-0.03457 -0.148166,-0.05433 -0.07902,-0.02469 -0.197556,-0.02469 -0.202495,0 -0.316089,0.07408 -0.113594,0.07408 -0.113594,0.212372 0,0.108656 0.06421,0.182739 0.06421,0.06914 0.13335,0.103717 0.06914,0.03457 0.2667,0.118533 0.261761,0.108656 0.409928,0.261761 0.153106,0.148167 0.153106,0.424745 0,0.251883 -0.123473,0.4445 -0.118533,0.192617 -0.335844,0.301272 -0.217311,0.103717 -0.498828,0.103717 z"
         style="font-style:italic;font-variant:normal;font-weight:500;font-stretch:normal;line-height:1.05;font-family:Asap;-inkscape-font-specification:'Asap Medium Italic';fill:#6426ca;fill-opacity:1"
         id="path1213" />
      <path
         d="m 32.94321,27.587082 q -0.57785,0 -0.57785,-0.572911 0,-0.03951 0.0099,-0.138289 l 0.153105,-1.481667 H 32.32091 q -0.103717,0 -0.103717,-0.118534 l 0.0049,-0.04939 0.0099,-0.07902 q 0.0099,-0.09384 0.03951,-0.13335 0.02963,-0.04445 0.09384,-0.04445 h 0.217311 l 0.09878,-0.498828 q 0.01482,-0.06914 0.06421,-0.09878 0.04939,-0.02963 0.153106,-0.02963 h 0.04445 q 0.108655,0 0.153105,0.03457 0.04445,0.02963 0.03457,0.103717 l -0.04939,0.48895 h 0.350661 q 0.108656,0 0.108656,0.123472 l -0.0049,0.05433 -0.0049,0.06915 q -0.0099,0.09384 -0.04445,0.138289 -0.02963,0.03951 -0.0889,0.03951 h -0.360539 l -0.153106,1.491544 q -0.0049,0.02963 -0.0049,0.07408 0,0.207433 0.207434,0.207433 0.0889,0 0.143227,-0.01482 0.05927,-0.01482 0.07408,-0.01482 0.01482,0 0.01975,0.0099 0.0099,0.0049 0.0099,0.03457 0,0.08396 -0.02469,0.212372 -0.01482,0.09384 -0.128411,0.143228 -0.108656,0.04939 -0.237067,0.04939 z"
         style="font-style:italic;font-variant:normal;font-weight:500;font-stretch:normal;line-height:1.05;font-family:Asap;-inkscape-font-specification:'Asap Medium Italic';fill:#6426ca;fill-opacity:1"
         id="path1215" />
      <path
         d="m 34.666878,27.587082 q -0.202495,0 -0.390172,-0.103717 -0.187678,-0.103717 -0.311151,-0.340783 -0.118533,-0.242006 -0.118533,-0.6223 0,-0.459317 0.143228,-0.819856 0.148167,-0.360539 0.414867,-0.558095 0.271639,-0.202494 0.617361,-0.202494 0.340783,0 0.617361,0.261761 0.04939,-0.138289 0.09384,-0.187678 0.04445,-0.04939 0.158045,-0.05433 h 0.03951 q 0.09878,0 0.13335,0.03951 0.03951,0.03457 0.03457,0.113595 l -0.187678,1.852084 q -0.01976,0.202494 0.13335,0.202494 0.05927,0 0.108656,-0.01482 0.04939,-0.01482 0.06421,-0.01482 0.03457,0 0.03457,0.04445 0,0.08396 -0.0247,0.212372 -0.01976,0.09384 -0.128411,0.143228 -0.108656,0.04939 -0.212372,0.04939 -0.464256,0 -0.479073,-0.48895 -0.13335,0.246944 -0.325966,0.370416 -0.192617,0.118534 -0.414867,0.118534 z m 0.148167,-0.434622 q 0.167922,0 0.335844,-0.158045 0.172861,-0.162983 0.291395,-0.508706 l 0.07408,-0.651933 q 0.02469,-0.207433 0.04445,-0.296333 -0.217311,-0.172862 -0.498828,-0.172862 -0.330906,0 -0.513645,0.321028 -0.1778,0.321028 -0.1778,0.8001 0,0.666751 0.444501,0.666751 z"
         style="font-style:italic;font-variant:normal;font-weight:500;font-stretch:normal;line-height:1.05;font-family:Asap;-inkscape-font-specification:'Asap Medium Italic';fill:#6426ca;fill-opacity:1"
         id="path1217" />
      <path
         d="m 37.323991,27.587082 q -0.57785,0 -0.57785,-0.572911 0,-0.03951 0.0099,-0.138289 l 0.153106,-1.481667 h -0.207434 q -0.103717,0 -0.103717,-0.118534 l 0.0049,-0.04939 0.0099,-0.07902 q 0.0099,-0.09384 0.03951,-0.13335 0.02963,-0.04445 0.09384,-0.04445 h 0.217311 l 0.09878,-0.498828 q 0.01482,-0.06914 0.06421,-0.09878 0.04939,-0.02963 0.153105,-0.02963 h 0.04445 q 0.108656,0 0.153106,0.03457 0.04445,0.02963 0.03457,0.103717 l -0.04939,0.48895 h 0.350661 q 0.108656,0 0.108656,0.123472 l -0.0049,0.05433 -0.0049,0.06915 q -0.0099,0.09384 -0.04445,0.138289 -0.02963,0.03951 -0.0889,0.03951 H 37.41783 l -0.153105,1.491544 q -0.0049,0.02963 -0.0049,0.07408 0,0.207433 0.207433,0.207433 0.0889,0 0.143228,-0.01482 0.05927,-0.01482 0.07408,-0.01482 0.01482,0 0.01976,0.0099 0.0099,0.0049 0.0099,0.03457 0,0.08396 -0.02469,0.212372 -0.01482,0.09384 -0.128411,0.143228 -0.108656,0.04939 -0.237067,0.04939 z"
         style="font-style:italic;font-variant:normal;font-weight:500;font-stretch:normal;line-height:1.05;font-family:Asap;-inkscape-font-specification:'Asap Medium Italic';fill:#6426ca;fill-opacity:1"
         id="path1219" />
      <path
         d="m 40.608349,27.137643 q 0.03457,0 0.03457,0.04445 0,0.08396 -0.02469,0.212372 -0.01482,0.09384 -0.123472,0.143228 -0.108656,0.04939 -0.212373,0.04939 -0.22225,0 -0.345722,-0.113595 -0.123472,-0.113594 -0.148167,-0.365477 -0.167922,0.232127 -0.390172,0.3556 -0.22225,0.123472 -0.454378,0.123472 -0.321028,0 -0.484011,-0.158045 -0.162983,-0.158044 -0.162983,-0.459316 0,-0.07902 0.0049,-0.118534 l 0.1778,-1.768122 q 0.01482,-0.123473 0.237066,-0.123473 h 0.05927 q 0.227189,0 0.212372,0.123473 l -0.167922,1.679222 q -0.0049,0.02469 -0.0049,0.06914 0,0.321028 0.340784,0.321028 0.182738,0 0.370416,-0.158045 0.187678,-0.158044 0.31115,-0.508706 l 0.148167,-1.402644 q 0.01482,-0.123473 0.237067,-0.123473 h 0.05433 q 0.227189,0 0.217311,0.123473 l -0.187678,1.881717 q -0.01976,0.202494 0.13335,0.202494 0.05433,0 0.103717,-0.01482 0.04939,-0.01482 0.0642,-0.01482 z"
         style="font-style:italic;font-variant:normal;font-weight:500;font-stretch:normal;line-height:1.05;font-family:Asap;-inkscape-font-specification:'Asap Medium Italic';fill:#6426ca;fill-opacity:1"
         id="path1221" />
      <path
         d="m 41.635634,27.587082 q -0.2667,0 -0.484011,-0.0889 -0.212372,-0.09384 -0.212372,-0.22225 0,-0.123472 0.02469,-0.202495 0.02469,-0.07902 0.06421,-0.07902 0.02963,0 0.09878,0.03951 0.108656,0.05433 0.217312,0.09384 0.108655,0.03457 0.256822,0.03457 0.212372,0 0.340783,-0.0889 0.128411,-0.09384 0.128411,-0.251883 0,-0.113595 -0.05927,-0.182739 -0.05433,-0.07408 -0.138289,-0.113594 -0.07902,-0.04445 -0.237067,-0.103717 -0.261761,-0.103717 -0.419806,-0.2667 -0.158044,-0.167923 -0.158044,-0.434623 0,-0.370416 0.256822,-0.57785 0.261761,-0.207433 0.656873,-0.207433 0.232127,0 0.4445,0.06421 0.212372,0.06421 0.212372,0.187678 0,0.06914 -0.07408,0.1778 -0.07408,0.103717 -0.128412,0.103717 -0.01482,0 -0.08396,-0.02963 -0.06421,-0.03457 -0.148166,-0.05433 -0.07902,-0.02469 -0.197556,-0.02469 -0.202494,0 -0.316089,0.07408 -0.113594,0.07408 -0.113594,0.212372 0,0.108656 0.06421,0.182739 0.06421,0.06914 0.13335,0.103717 0.06914,0.03457 0.2667,0.118533 0.261761,0.108656 0.409928,0.261761 0.153106,0.148167 0.153106,0.424745 0,0.251883 -0.123473,0.4445 -0.118533,0.192617 -0.335844,0.301272 -0.217311,0.103717 -0.498828,0.103717 z"
         style="font-style:italic;font-variant:normal;font-weight:500;font-stretch:normal;line-height:1.05;font-family:Asap;-inkscape-font-specification:'Asap Medium Italic';fill:#6426ca;fill-opacity:1"
         id="path1223" />
      <path
         d="m 43.463015,26.525221 q -0.103717,0 -0.143228,-0.02963 -0.03457,-0.03457 -0.02469,-0.09878 l 0.232127,-2.187928 q 0.01482,-0.123472 0.237067,-0.123472 h 0.13335 q 0.237067,0 0.212372,0.128411 l -0.40005,2.187928 q -0.0099,0.06421 -0.05433,0.09384 -0.04445,0.02963 -0.138288,0.02963 z m -0.13335,1.037166 q -0.118534,0 -0.167923,-0.02963 -0.04445,-0.02963 -0.04445,-0.09384 l 0.03951,-0.365478 q 0.0099,-0.123472 0.237066,-0.123472 h 0.108656 q 0.118533,0 0.167922,0.03457 0.04939,0.02963 0.04445,0.0889 l -0.03951,0.365478 q -0.01482,0.123472 -0.237067,0.123472 z"
         style="font-style:italic;font-variant:normal;font-weight:500;font-stretch:normal;line-height:1.05;font-family:Asap;-inkscape-font-specification:'Asap Medium Italic';fill:#6426ca;fill-opacity:1"
         id="path1225" />
    </g>
  </g>
</svg>
