<?xml version="1.0" encoding="UTF-8" standalone="no"?>
<svg
   xmlns:dc="http://purl.org/dc/elements/1.1/"
   xmlns:cc="http://creativecommons.org/ns#"
   xmlns:rdf="http://www.w3.org/1999/02/22-rdf-syntax-ns#"
   xmlns:svg="http://www.w3.org/2000/svg"
   xmlns="http://www.w3.org/2000/svg"
   xmlns:sodipodi="http://sodipodi.sourceforge.net/DTD/sodipodi-0.dtd"
   xmlns:inkscape="http://www.inkscape.org/namespaces/inkscape"
   width="100"
   height="125"
   viewBox="0 0 26.458333 33.072917"
   version="1.1"
   id="svg1872"
   inkscape:version="1.0.1 (3bc2e813f5, 2020-09-07)"
   sodipodi:docname="newBenchmarkResult.svg">
  <defs
     id="defs1866">
    <filter
       inkscape:collect="always"
       style="color-interpolation-filters:sRGB"
       id="filter1612"
       x="-0.0078461096"
       width="1.0156922"
       y="-0.0075207781"
       height="1.0150416">
      <feGaussianBlur
         inkscape:collect="always"
         stdDeviation="0.19365044"
         id="feGaussianBlur1614" />
    </filter>
  </defs>
  <sodipodi:namedview
     id="base"
     pagecolor="#ffffff"
     bordercolor="#666666"
     borderopacity="1.0"
     inkscape:pageopacity="0.0"
     inkscape:pageshadow="2"
     inkscape:zoom="2"
     inkscape:cx="56.519872"
     inkscape:cy="74.693198"
     inkscape:document-units="mm"
     inkscape:current-layer="g3156"
     inkscape:document-rotation="0"
     showgrid="false"
     units="px"
     inkscape:window-width="1920"
     inkscape:window-height="997"
     inkscape:window-x="1920"
     inkscape:window-y="28"
     inkscape:window-maximized="1"
     showguides="true"
     inkscape:guide-bbox="true">
    <sodipodi:guide
       position="13.361458,5.4239584"
       orientation="1,0"
       id="guide3184" />
  </sodipodi:namedview>
  <metadata
     id="metadata1869">
    <rdf:RDF>
      <cc:Work
         rdf:about="">
        <dc:format>image/svg+xml</dc:format>
        <dc:type
           rdf:resource="http://purl.org/dc/dcmitype/StillImage" />
        <dc:title></dc:title>
      </cc:Work>
    </rdf:RDF>
  </metadata>
  <g
     inkscape:label="Layer 1"
     inkscape:groupmode="layer"
     id="layer1">
    <g
       id="g3156"
       transform="matrix(0.6611696,0,0,0.6611696,-0.85305719,-0.52749838)">
      <g
         aria-label="Check the new benchmark  status"
         transform="matrix(0.5469405,-0.31577624,0.31577624,0.5469405,-75.974605,16.552391)"
         id="text1222"
         style="font-style:normal;font-weight:normal;font-size:10.5833px;line-height:1.25;font-family:sans-serif;letter-spacing:0px;word-spacing:0px;white-space:pre;shape-inside:url(#rect1224);fill:#000000;fill-opacity:1;stroke:none">
        <path
           d="m 104.52853,76.939758 q -1.55575,0 -2.31775,-0.730248 -0.76199,-0.730247 -0.76199,-2.254243 0,-2.211909 1.00541,-3.386656 1.00541,-1.185329 2.89982,-1.185329 0.508,0 1.00542,0.116416 0.49741,0.105833 0.77258,0.275166 0.22225,0.137583 0.22225,0.285749 0,0.15875 -0.21167,0.455082 -0.20108,0.285749 -0.32808,0.285749 -0.0317,0 -0.254,-0.116416 -0.21167,-0.127 -0.53975,-0.22225 -0.3175,-0.09525 -0.762,-0.09525 -1.29116,0 -1.95791,0.878414 -0.66674,0.86783 -0.66674,2.561158 0,1.09008 0.48683,1.619245 0.49741,0.529165 1.51341,0.529165 0.49742,0 0.85724,-0.105833 0.37042,-0.116416 0.75142,-0.296332 0.16933,-0.09525 0.23283,-0.09525 0.127,0 0.24342,0.253999 0.127,0.253999 0.127,0.412749 0,0.09525 -0.10583,0.211666 -0.10584,0.105833 -0.27517,0.190499 -0.33867,0.179916 -0.87842,0.296333 -0.52916,0.116416 -1.05832,0.116417 z"
           style="font-style:italic;font-variant:normal;font-weight:500;font-stretch:normal;font-family:Asap;-inkscape-font-specification:'Asap Medium Italic';fill:#808080;fill-opacity:1;filter:url(#filter1612)"
           id="path1528" />
        <path
           d="m 112.42366,76.939758 q -0.48683,0 -0.762,-0.253999 -0.27516,-0.254 -0.27516,-0.793748 0,-0.169333 0.0106,-0.264582 l 0.24342,-2.603492 q 0.0106,-0.0635 0.0106,-0.169333 0,-0.666748 -0.65616,-0.666748 -0.43392,0 -0.84667,0.317499 -0.40216,0.317499 -0.67733,1.037164 l -0.3175,3.07974 q -0.0106,0.126999 -0.14816,0.201083 -0.13759,0.0635 -0.37042,0.0635 h -0.11642 q -0.23283,0 -0.35983,-0.07408 -0.11641,-0.07408 -0.10583,-0.179916 l 0.79375,-7.471809 q 0.0318,-0.264583 0.50799,-0.264583 h 0.11642 q 0.24342,0 0.35983,0.07408 0.127,0.0635 0.10584,0.1905 l -0.3175,3.037407 q 0.35983,-0.465666 0.81491,-0.698498 0.45508,-0.243416 0.94192,-0.243416 0.68791,0 1.03716,0.338666 0.34925,0.338665 0.34925,0.984246 0,0.169333 -0.0106,0.254 l -0.26458,2.772824 q -0.0423,0.433915 0.28575,0.433915 0.11642,0 0.22225,-0.03175 0.10583,-0.03175 0.13758,-0.03175 0.0741,0 0.0741,0.09525 0,0.179916 -0.0529,0.455082 -0.0423,0.201083 -0.27517,0.306916 -0.23283,0.105833 -0.45508,0.105833 z"
           style="font-style:italic;font-variant:normal;font-weight:500;font-stretch:normal;font-family:Asap;-inkscape-font-specification:'Asap Medium Italic';fill:#808080;fill-opacity:1;filter:url(#filter1612)"
           id="path1530" />
        <path
           d="m 116.10664,74.643182 q -0.55034,0 -0.97367,-0.07408 v 0.02117 q 0,0.804331 0.35983,1.12183 0.37042,0.317499 1.05833,0.317499 0.43392,0 0.77259,-0.116416 0.33866,-0.116417 0.65616,-0.285749 0.16933,-0.09525 0.21167,-0.09525 0.0423,0 0.0529,0.02117 0.0212,0.02117 0.0212,0.105833 0,0.264582 -0.0635,0.582081 -0.0741,0.349249 -0.66675,0.529165 -0.59266,0.169333 -1.10066,0.169333 -1.06891,0 -1.74625,-0.507999 -0.67733,-0.518581 -0.67733,-1.725077 0,-1.587495 0.74083,-2.518826 0.75142,-0.93133 2.12725,-0.93133 0.68791,0 1.11124,0.232833 0.43392,0.232832 0.61383,0.571498 0.17992,0.328082 0.17992,0.645581 0,1.005413 -0.78316,1.471079 -0.77258,0.465665 -1.89441,0.465665 z m 0.71966,-2.476492 q -0.66675,0 -1.09008,0.433915 -0.42333,0.433915 -0.53975,1.195913 h 0.67733 q 0.62442,0 1.21708,-0.201083 0.59267,-0.211666 0.59267,-0.772581 0,-0.296332 -0.24342,-0.476248 -0.23283,-0.179916 -0.61383,-0.179916 z"
           style="font-style:italic;font-variant:normal;font-weight:500;font-stretch:normal;font-family:Asap;-inkscape-font-specification:'Asap Medium Italic';fill:#808080;fill-opacity:1;filter:url(#filter1612)"
           id="path1532" />
        <path
           d="m 121.8216,76.939758 q -1.18533,0 -1.778,-0.539748 -0.58208,-0.550332 -0.58208,-1.714495 0,-1.640411 0.75141,-2.529409 0.762,-0.89958 2.14841,-0.89958 0.56092,0 1.03717,0.158749 0.47625,0.15875 0.47625,0.391583 0,0.137582 -0.1905,0.402165 -0.17992,0.253999 -0.28575,0.253999 -0.0423,0 -0.13758,-0.05292 -0.20109,-0.105833 -0.43392,-0.169333 -0.22225,-0.07408 -0.55033,-0.07408 -0.81492,0 -1.23825,0.624414 -0.42333,0.613832 -0.42333,1.799161 0,0.740831 0.30692,1.09008 0.31749,0.349249 1.00541,0.349249 0.30692,0 0.55033,-0.07408 0.24342,-0.07408 0.51858,-0.190499 0.0529,-0.02117 0.0847,-0.03175 0.0423,-0.02117 0.0635,-0.02117 0.11642,0 0.23283,0.222249 0.11642,0.22225 0.11642,0.380999 0,0.253999 -0.56092,0.444499 -0.56091,0.179916 -1.11124,0.179916 z"
           style="font-style:italic;font-variant:normal;font-weight:500;font-stretch:normal;font-family:Asap;-inkscape-font-specification:'Asap Medium Italic';fill:#808080;fill-opacity:1;filter:url(#filter1612)"
           id="path1534" />
        <path
           d="m 125.08124,76.886841 q -0.254,0 -0.35983,-0.0635 -0.10584,-0.0635 -0.10584,-0.201083 l 0.79375,-7.461226 q 0.0212,-0.264583 0.508,-0.264583 h 0.11642 q 0.254,0 0.35983,0.0635 0.10583,0.0635 0.10583,0.201083 l -0.48683,4.571985 h 0.0423 l 2.10608,-2.254243 q 0.14817,-0.169333 0.60325,-0.169333 h 0.14816 q 0.20109,0 0.30692,0.04233 0.11642,0.03175 0.11642,0.09525 0,0.09525 -0.127,0.22225 l -2.11666,2.254242 1.91557,2.624659 q 0.0741,0.105833 0.0741,0.158749 0,0.105833 -0.11642,0.148166 -0.11642,0.03175 -0.40217,0.03175 h -0.16933 q -0.22225,0 -0.37041,-0.03175 -0.14817,-0.03175 -0.20109,-0.126999 l -1.82032,-2.487076 -0.0423,0.01058 -0.24341,2.370659 q -0.0318,0.264582 -0.51858,0.264582 z"
           style="font-style:italic;font-variant:normal;font-weight:500;font-stretch:normal;font-family:Asap;-inkscape-font-specification:'Asap Medium Italic';fill:#808080;fill-opacity:1;filter:url(#filter1612)"
           id="path1536" />
        <path
           d="m 134.24637,76.939758 q -1.23824,0 -1.23824,-1.227663 0,-0.08467 0.0212,-0.296332 l 0.32809,-3.17499 h -0.4445 q -0.22225,0 -0.22225,-0.253999 l 0.0106,-0.105833 0.0212,-0.169333 q 0.0212,-0.201083 0.0847,-0.285749 0.0635,-0.09525 0.20108,-0.09525 h 0.46566 l 0.21167,-1.068913 q 0.0317,-0.148166 0.13758,-0.211666 0.10583,-0.0635 0.32808,-0.0635 h 0.0952 q 0.23284,0 0.32809,0.07408 0.0952,0.0635 0.0741,0.222249 l -0.10583,1.047747 h 0.75141 q 0.23283,0 0.23283,0.264583 l -0.0106,0.116416 -0.0106,0.148166 q -0.0212,0.201083 -0.0953,0.296332 -0.0635,0.08467 -0.1905,0.08467 h -0.77258 l -0.32809,3.196156 q -0.0106,0.0635 -0.0106,0.15875 0,0.444498 0.4445,0.444498 0.1905,0 0.30692,-0.03175 0.12699,-0.03175 0.15874,-0.03175 0.0317,0 0.0423,0.02117 0.0212,0.01058 0.0212,0.07408 0,0.179916 -0.0529,0.455082 -0.0317,0.201083 -0.27517,0.306916 -0.23283,0.105833 -0.508,0.105833 z"
           style="font-style:italic;font-variant:normal;font-weight:500;font-stretch:normal;font-family:Asap;-inkscape-font-specification:'Asap Medium Italic';fill:#808080;fill-opacity:1;filter:url(#filter1612)"
           id="path1538" />
        <path
           d="m 140.64926,76.939758 q -0.48683,0 -0.762,-0.253999 -0.27517,-0.254 -0.27517,-0.793748 0,-0.169333 0.0106,-0.264582 l 0.24341,-2.603492 q 0.0106,-0.0635 0.0106,-0.169333 0,-0.666748 -0.65617,-0.666748 -0.43391,0 -0.84666,0.317499 -0.40217,0.317499 -0.67733,1.037164 l -0.3175,3.07974 q -0.0106,0.126999 -0.14817,0.201083 -0.13758,0.0635 -0.37041,0.0635 h -0.11642 q -0.23283,0 -0.35983,-0.07408 -0.11642,-0.07408 -0.10583,-0.179916 l 0.79374,-7.471809 q 0.0317,-0.264583 0.508,-0.264583 h 0.11642 q 0.24341,0 0.35983,0.07408 0.127,0.0635 0.10583,0.1905 l -0.3175,3.037407 q 0.35984,-0.465666 0.81492,-0.698498 0.45508,-0.243416 0.94191,-0.243416 0.68792,0 1.03716,0.338666 0.34925,0.338665 0.34925,0.984246 0,0.169333 -0.0106,0.254 l -0.26458,2.772824 q -0.0423,0.433915 0.28575,0.433915 0.11641,0 0.22225,-0.03175 0.10583,-0.03175 0.13758,-0.03175 0.0741,0 0.0741,0.09525 0,0.179916 -0.0529,0.455082 -0.0423,0.201083 -0.27517,0.306916 -0.23283,0.105833 -0.45508,0.105833 z"
           style="font-style:italic;font-variant:normal;font-weight:500;font-stretch:normal;font-family:Asap;-inkscape-font-specification:'Asap Medium Italic';fill:#808080;fill-opacity:1;filter:url(#filter1612)"
           id="path1540" />
        <path
           d="m 144.33223,74.643182 q -0.55033,0 -0.97366,-0.07408 v 0.02117 q 0,0.804331 0.35983,1.12183 0.37042,0.317499 1.05833,0.317499 0.43392,0 0.77258,-0.116416 0.33867,-0.116417 0.65617,-0.285749 0.16933,-0.09525 0.21166,-0.09525 0.0423,0 0.0529,0.02117 0.0212,0.02117 0.0212,0.105833 0,0.264582 -0.0635,0.582081 -0.0741,0.349249 -0.66674,0.529165 -0.59267,0.169333 -1.10067,0.169333 -1.06891,0 -1.74624,-0.507999 -0.67733,-0.518581 -0.67733,-1.725077 0,-1.587495 0.74083,-2.518826 0.75141,-0.93133 2.12724,-0.93133 0.68792,0 1.11125,0.232833 0.43391,0.232832 0.61383,0.571498 0.17992,0.328082 0.17992,0.645581 0,1.005413 -0.78317,1.471079 -0.77258,0.465665 -1.89441,0.465665 z m 0.71967,-2.476492 q -0.66675,0 -1.09008,0.433915 -0.42334,0.433915 -0.53975,1.195913 h 0.67733 q 0.62441,0 1.21708,-0.201083 0.59266,-0.211666 0.59266,-0.772581 0,-0.296332 -0.24341,-0.476248 -0.23284,-0.179916 -0.61383,-0.179916 z"
           style="font-style:italic;font-variant:normal;font-weight:500;font-stretch:normal;font-family:Asap;-inkscape-font-specification:'Asap Medium Italic';fill:#808080;fill-opacity:1;filter:url(#filter1612)"
           id="path1542" />
        <path
           d="m 155.56111,75.976678 q 0.0741,0 0.0741,0.09525 0,0.179916 -0.0529,0.455082 -0.0423,0.201083 -0.27516,0.306916 -0.23284,0.105833 -0.45508,0.105833 -1.03717,0 -1.03717,-1.09008 0,-0.169333 0.0106,-0.253999 l 0.24341,-2.571742 q 0.0106,-0.05292 0.0106,-0.148166 0,-0.687915 -0.73024,-0.687915 -0.39158,0 -0.79375,0.338666 -0.40217,0.328082 -0.66675,1.047747 l -0.3175,3.04799 q -0.0106,0.126999 -0.14816,0.201083 -0.127,0.0635 -0.35984,0.0635 h -0.11641 q -0.23283,0 -0.34925,-0.07408 -0.11642,-0.07408 -0.10583,-0.190499 l 0.33866,-3.280823 q 0.0952,-0.878414 0.0952,-1.217079 0,-0.1905 -0.0106,-0.28575 0,-0.09525 0,-0.148166 0,-0.158749 0.254,-0.222249 0.254,-0.0635 0.52916,-0.0635 0.29633,0 0.29633,0.740831 v 0.116416 q 0.35984,-0.486831 0.83609,-0.740831 0.47624,-0.264582 0.97366,-0.264582 0.68791,0 1.03716,0.338666 0.34925,0.338665 0.34925,0.984246 0,0.169333 -0.0106,0.254 l -0.27517,2.772824 q -0.0423,0.433915 0.28575,0.433915 0.127,0 0.23283,-0.03175 0.10584,-0.03175 0.13759,-0.03175 z"
           style="font-style:italic;font-variant:normal;font-weight:500;font-stretch:normal;font-family:Asap;-inkscape-font-specification:'Asap Medium Italic';fill:#808080;fill-opacity:1;filter:url(#filter1612)"
           id="path1544" />
        <path
           d="m 158.47151,74.643182 q -0.55034,0 -0.97367,-0.07408 v 0.02117 q 0,0.804331 0.35983,1.12183 0.37042,0.317499 1.05833,0.317499 0.43392,0 0.77259,-0.116416 0.33866,-0.116417 0.65616,-0.285749 0.16933,-0.09525 0.21167,-0.09525 0.0423,0 0.0529,0.02117 0.0212,0.02117 0.0212,0.105833 0,0.264582 -0.0635,0.582081 -0.0741,0.349249 -0.66675,0.529165 -0.59266,0.169333 -1.10066,0.169333 -1.06891,0 -1.74625,-0.507999 -0.67733,-0.518581 -0.67733,-1.725077 0,-1.587495 0.74083,-2.518826 0.75142,-0.93133 2.12725,-0.93133 0.68791,0 1.11124,0.232833 0.43392,0.232832 0.61383,0.571498 0.17992,0.328082 0.17992,0.645581 0,1.005413 -0.78316,1.471079 -0.77258,0.465665 -1.89441,0.465665 z m 0.71966,-2.476492 q -0.66675,0 -1.09008,0.433915 -0.42333,0.433915 -0.53975,1.195913 h 0.67733 q 0.62442,0 1.21708,-0.201083 0.59267,-0.211666 0.59267,-0.772581 0,-0.296332 -0.24342,-0.476248 -0.23283,-0.179916 -0.61383,-0.179916 z"
           style="font-style:italic;font-variant:normal;font-weight:500;font-stretch:normal;font-family:Asap;-inkscape-font-specification:'Asap Medium Italic';fill:#808080;fill-opacity:1;filter:url(#filter1612)"
           id="path1546" />
        <path
           d="m 163.20223,76.886841 q -0.43392,0 -0.46567,-0.211666 l -0.86783,-5.111733 q -0.0529,-0.254 0.51858,-0.254 h 0.15875 q 0.42334,0 0.45509,0.1905 l 0.46566,2.920991 q 0.127,0.740831 0.127,1.068913 h 0.0423 q 0.0423,-0.179916 0.34925,-1.05833 l 1.04775,-2.920991 q 0.0741,-0.201083 0.47625,-0.201083 h 0.16933 q 0.41275,0 0.4445,0.201083 l 0.4445,2.910408 q 0.127,0.83608 0.127,1.068913 h 0.0423 q 0.0952,-0.370416 0.33867,-1.05833 l 1.05833,-2.836324 q 0.0529,-0.169333 0.14816,-0.22225 0.10583,-0.0635 0.34925,-0.0635 h 0.127 q 0.23283,0 0.32808,0.05292 0.0952,0.04233 0.0952,0.137583 0,0.07408 -0.0423,0.169333 l -1.89441,5.027067 q -0.0741,0.190499 -0.48683,0.190499 h -0.40217 q -0.42333,0 -0.45508,-0.190499 l -0.40217,-2.741075 q -0.0635,-0.444498 -0.0847,-0.973663 h -0.0423 q -0.0741,0.370415 -0.26458,0.89958 l -1.02658,2.815158 q -0.0635,0.190499 -0.47625,0.190499 z"
           style="font-style:italic;font-variant:normal;font-weight:500;font-stretch:normal;font-family:Asap;-inkscape-font-specification:'Asap Medium Italic';fill:#808080;fill-opacity:1;filter:url(#filter1612)"
           id="path1548" />
        <path
           d="m 104.02053,90.498376 q -0.70908,0 -1.28058,-0.550332 -0.0635,0.211666 -0.127,0.306916 -0.0529,0.08467 -0.17992,0.137583 -0.11641,0.04233 -0.38099,0.04233 h -0.127 q -0.64559,0 -0.61384,-0.296332 l 0.78317,-7.365977 q 0.0318,-0.338665 0.66675,-0.338665 h 0.29633 q 0.29633,0 0.4445,0.09525 0.15875,0.09525 0.15875,0.232833 l -0.28575,2.635241 q 0.24341,-0.285749 0.5715,-0.444498 0.32808,-0.15875 0.70908,-0.15875 0.87841,0 1.39699,0.603248 0.52917,0.592665 0.52917,1.693328 0,1.005414 -0.32809,1.777995 -0.3175,0.772581 -0.89958,1.206496 -0.58208,0.423332 -1.33349,0.423332 z M 103.6607,89.26013 q 0.635,0 0.98424,-0.529165 0.34925,-0.539748 0.34925,-1.545162 0,-0.571498 -0.22225,-0.836081 -0.22225,-0.275165 -0.70908,-0.275165 -0.42333,0 -0.81491,0.592664 l -0.14817,1.386413 q -0.0212,0.211666 -0.0847,0.634998 l -0.0423,0.296332 q 0.3175,0.275166 0.68792,0.275166 z"
           style="font-style:italic;font-variant:normal;font-weight:bold;font-stretch:normal;font-family:Asap;-inkscape-font-specification:'Asap Bold Italic';fill:#808080;fill-opacity:1;filter:url(#filter1612)"
           id="path1550" />
        <path
           d="m 112.37073,86.328556 q 0,0.666748 -0.33866,1.100663 -0.32808,0.433915 -0.84667,0.634998 -0.51858,0.201083 -1.09008,0.201083 -0.58208,0 -1.10066,-0.07408 0.0423,0.613831 0.3175,0.846663 0.27517,0.22225 0.79375,0.22225 0.63499,0 1.42874,-0.380999 0.16934,-0.08467 0.21167,-0.08467 0.0847,0 0.0847,0.148166 0,0.201082 -0.0212,0.455082 -0.0212,0.243416 -0.0635,0.359832 -0.11642,0.391582 -0.68792,0.571498 -0.57149,0.169333 -1.15358,0.169333 -1.25941,0 -1.88382,-0.613832 -0.61383,-0.613831 -0.61383,-1.714494 0,-1.725078 0.81491,-2.550575 0.81491,-0.825498 2.09549,-0.825498 0.79375,0 1.24883,0.254 0.46567,0.243415 0.635,0.592664 0.16933,0.349249 0.16933,0.687916 z m -2.79399,0.888997 q 0.67733,0 0.97367,-0.201083 0.29633,-0.211666 0.29633,-0.486832 0,-0.253999 -0.16933,-0.370415 -0.16934,-0.127 -0.46567,-0.127 -0.46567,0 -0.75141,0.328083 -0.27517,0.317499 -0.39159,0.857247 z"
           style="font-style:italic;font-variant:normal;font-weight:bold;font-stretch:normal;font-family:Asap;-inkscape-font-specification:'Asap Bold Italic';fill:#808080;fill-opacity:1;filter:url(#filter1612)"
           id="path1552" />
        <path
           d="m 118.38204,89.19663 q 0.0529,0 0.0635,0.03175 0.0212,0.02117 0.0212,0.09525 0,0.253999 -0.0741,0.624414 -0.0529,0.275166 -0.33867,0.412749 -0.27517,0.137583 -0.59266,0.137583 -1.27,0 -1.27,-1.280579 0,-0.179917 0.0106,-0.275166 l 0.21167,-2.222493 q 0.0318,-0.328082 -0.10583,-0.476249 -0.13759,-0.158749 -0.45509,-0.158749 -0.28575,0 -0.52916,0.190499 -0.23283,0.1905 -0.40217,0.455082 l -0.33866,3.365489 q -0.0318,0.338666 -0.66675,0.338666 h -0.29633 q -0.30692,0 -0.46567,-0.09525 -0.15875,-0.09525 -0.13758,-0.232832 l 0.35983,-3.524239 q 0.0423,-0.486832 0.0423,-0.698498 l -0.0106,-0.370415 q -0.0106,-0.07408 -0.0106,-0.22225 0,-0.169332 0.34925,-0.275165 0.34925,-0.105833 0.87841,-0.105833 0.32808,0 0.34925,0.709081 0.27517,-0.338666 0.73025,-0.582082 0.45508,-0.243416 0.92074,-0.243416 0.67734,0 1.02658,0.306916 0.35984,0.306916 0.35984,0.984247 0,0.169333 -0.0106,0.264582 l -0.23283,2.508242 q -0.0212,0.211666 0.0529,0.306916 0.0847,0.09525 0.254,0.09525 0.0953,0 0.17991,-0.03175 0.0952,-0.03175 0.127,-0.03175 z"
           style="font-style:italic;font-variant:normal;font-weight:bold;font-stretch:normal;font-family:Asap;-inkscape-font-specification:'Asap Bold Italic';fill:#808080;fill-opacity:1;filter:url(#filter1612)"
           id="path1554" />
        <path
           d="m 121.40886,90.498376 q -1.21708,0 -1.80975,-0.560915 -0.59266,-0.560915 -0.59266,-1.693328 0,-1.682745 0.78316,-2.561159 0.78317,-0.888997 2.27541,-0.888997 0.55033,0 1.05833,0.1905 0.51858,0.190499 0.51858,0.507998 0,0.105833 -0.127,0.317499 -0.127,0.201083 -0.28575,0.370416 -0.15874,0.158749 -0.24341,0.158749 -0.0423,0 -0.20108,-0.08467 -0.20109,-0.105833 -0.35984,-0.15875 -0.15875,-0.0635 -0.41274,-0.0635 -0.67734,0 -1.03717,0.518582 -0.34925,0.518582 -0.34925,1.523995 0,0.603248 0.23284,0.899581 0.24341,0.285749 0.75141,0.285749 0.23283,0 0.41275,-0.04233 0.1905,-0.05292 0.33866,-0.116417 0.14817,-0.0635 0.21167,-0.08467 0.16933,-0.0635 0.1905,-0.0635 0.15875,0 0.30692,0.285749 0.15874,0.285749 0.15874,0.486832 0,0.275166 -0.35983,0.455082 -0.34925,0.169333 -0.78316,0.243416 -0.43392,0.07408 -0.67733,0.07408 z"
           style="font-style:italic;font-variant:normal;font-weight:bold;font-stretch:normal;font-family:Asap;-inkscape-font-specification:'Asap Bold Italic';fill:#808080;fill-opacity:1;filter:url(#filter1612)"
           id="path1556" />
        <path
           d="m 128.4679,90.498376 q -1.28057,0 -1.28057,-1.195913 0,-0.169333 0.0106,-0.253999 l 0.22225,-2.328326 q 0.0318,-0.328082 -0.10584,-0.476249 -0.13758,-0.158749 -0.45508,-0.158749 -0.48683,0 -0.91016,0.603248 l -0.35983,3.407822 q -0.0318,0.338666 -0.66675,0.338666 h -0.29633 q -0.30692,0 -0.46567,-0.09525 -0.15875,-0.09525 -0.13758,-0.232832 l 0.77258,-7.334227 q 0.0318,-0.338665 0.66675,-0.338665 h 0.29633 q 0.30692,0 0.46567,0.09525 0.15874,0.09525 0.13758,0.232833 l -0.28575,2.751658 q 0.28575,-0.306916 0.70908,-0.507999 0.42333,-0.211666 0.84666,-0.211666 0.67734,0 1.02658,0.306916 0.35984,0.306916 0.35984,0.984247 0,0.169333 -0.0106,0.264582 l -0.23283,2.508242 q -0.0212,0.211666 0.0529,0.306916 0.0847,0.09525 0.254,0.09525 0.0952,0 0.17991,-0.03175 0.0953,-0.03175 0.127,-0.03175 0.0529,0 0.0635,0.03175 0.0212,0.02117 0.0212,0.09525 0,0.253999 -0.0741,0.624414 -0.0529,0.275166 -0.33866,0.412749 -0.27517,0.137583 -0.59267,0.137583 z"
           style="font-style:italic;font-variant:normal;font-weight:bold;font-stretch:normal;font-family:Asap;-inkscape-font-specification:'Asap Bold Italic';fill:#808080;fill-opacity:1;filter:url(#filter1612)"
           id="path1558" />
        <path
           d="m 138.43736,89.19663 q 0.0529,0 0.0635,0.03175 0.0212,0.02117 0.0212,0.09525 0,0.253999 -0.0741,0.624414 -0.0529,0.275166 -0.33866,0.412749 -0.27517,0.137583 -0.59267,0.137583 -1.27,0 -1.27,-1.259413 0,-0.190499 0.0106,-0.296332 l 0.21166,-2.222493 q 0.0317,-0.328082 -0.10583,-0.476249 -0.13758,-0.158749 -0.45508,-0.158749 -0.26458,0 -0.49742,0.179916 -0.23283,0.169333 -0.41274,0.423332 l -0.32809,3.407822 q -0.0317,0.338666 -0.66674,0.338666 h -0.29634 q -0.30691,0 -0.46566,-0.09525 -0.15875,-0.105833 -0.13759,-0.253999 l 0.33867,-3.365489 q 0.0318,-0.328082 -0.10583,-0.476249 -0.13759,-0.158749 -0.45508,-0.158749 -0.49742,0 -0.91017,0.613831 l -0.33866,3.397239 q -0.0317,0.338666 -0.66675,0.338666 h -0.29633 q -0.30692,0 -0.46567,-0.09525 -0.15875,-0.105833 -0.13758,-0.253999 l 0.0847,-0.783164 q 0.3175,-2.857491 0.3175,-3.418406 l -0.0106,-0.370415 q -0.0106,-0.07408 -0.0106,-0.22225 0,-0.169332 0.34925,-0.275165 0.34924,-0.105833 0.87841,-0.105833 0.30692,0 0.34925,0.687914 0.28575,-0.328082 0.73025,-0.560915 0.44449,-0.243416 0.89958,-0.243416 1.10066,0 1.33349,0.814914 0.26458,-0.328082 0.74083,-0.571498 0.47625,-0.243416 0.9525,-0.243416 0.67733,0 1.02658,0.306916 0.35983,0.306916 0.35983,0.984247 0,0.169333 -0.0106,0.264582 l -0.23283,2.508242 q -0.0212,0.211666 0.0529,0.306916 0.0847,0.09525 0.254,0.09525 0.0952,0 0.17992,-0.03175 0.0952,-0.03175 0.127,-0.03175 z"
           style="font-style:italic;font-variant:normal;font-weight:bold;font-stretch:normal;font-family:Asap;-inkscape-font-specification:'Asap Bold Italic';fill:#808080;fill-opacity:1;filter:url(#filter1612)"
           id="path1560" />
        <path
           d="m 140.71276,90.508959 q -0.78316,0 -1.24883,-0.592665 -0.46566,-0.603248 -0.46566,-1.703911 0,-1.005413 0.29633,-1.777994 0.29633,-0.772581 0.8255,-1.195913 0.53975,-0.433915 1.22766,-0.433915 0.40217,0 0.71967,0.169332 0.32808,0.169333 0.56091,0.391582 0.0635,-0.222249 0.11642,-0.306915 0.0529,-0.09525 0.17991,-0.137583 0.127,-0.05292 0.39159,-0.05292 h 0.12699 q 0.3175,0 0.46567,0.07408 0.14817,0.07408 0.13758,0.243415 l -0.37041,3.672405 q -0.0212,0.211666 0.0529,0.306916 0.0847,0.09525 0.254,0.09525 0.0952,0 0.17992,-0.03175 0.0952,-0.03175 0.127,-0.03175 0.0529,0 0.0635,0.03175 0.0212,0.02117 0.0212,0.09525 0,0.253999 -0.0741,0.624414 -0.0529,0.275166 -0.33866,0.412749 -0.27517,0.137583 -0.59267,0.137583 -1.00541,0 -1.21708,-0.804331 -0.23283,0.359832 -0.61383,0.592665 -0.381,0.222249 -0.8255,0.222249 z m 0.59267,-1.280579 q 0.43391,0 0.8255,-0.613832 l 0.14816,-1.428745 q 0.0635,-0.613831 0.127,-0.857247 -0.32808,-0.285749 -0.6985,-0.285749 -0.53974,0 -0.83608,0.539748 -0.28575,0.529165 -0.28575,1.534578 0,1.111247 0.71967,1.111247 z"
           style="font-style:italic;font-variant:normal;font-weight:bold;font-stretch:normal;font-family:Asap;-inkscape-font-specification:'Asap Bold Italic';fill:#808080;fill-opacity:1;filter:url(#filter1612)"
           id="path1562" />
        <path
           d="m 145.40115,90.434876 q -0.30692,0 -0.46567,-0.105833 -0.15875,-0.105833 -0.13758,-0.275166 l 0.35983,-3.418406 q 0.0529,-0.529165 0.0529,-0.89958 0,-0.15875 -0.0106,-0.275166 -0.0106,-0.126999 -0.0106,-0.190499 0.0106,-0.201083 0.27517,-0.275166 0.27516,-0.08467 0.87841,-0.08467 0.37042,0 0.41275,0.666747 0.24341,-0.349248 0.52916,-0.560914 0.29634,-0.22225 0.6985,-0.22225 0.49742,0 0.49742,0.486832 0,0.264583 -0.15875,0.624415 -0.14817,0.359832 -0.26459,0.359832 -0.0423,0 -0.15874,-0.04233 -0.11642,-0.05292 -0.27517,-0.05292 -0.24342,0 -0.48683,0.148166 -0.24342,0.137583 -0.43392,0.391583 l -0.33866,3.365489 q -0.0318,0.359832 -0.66675,0.359832 z"
           style="font-style:italic;font-variant:normal;font-weight:bold;font-stretch:normal;font-family:Asap;-inkscape-font-specification:'Asap Bold Italic';fill:#808080;fill-opacity:1;filter:url(#filter1612)"
           id="path1564" />
        <path
           d="m 149.25346,90.434876 q -0.32808,0 -0.46567,-0.08467 -0.13758,-0.08467 -0.13758,-0.254 l 0.77258,-7.323643 q 0.0317,-0.338665 0.66675,-0.338665 h 0.29633 q 0.32808,0 0.46567,0.08467 0.13758,0.08467 0.13758,0.253999 l -0.4445,4.190987 0.0423,0.01058 1.48167,-1.915577 q 0.0952,-0.127 0.24341,-0.15875 0.15875,-0.04233 0.42333,-0.04233 h 0.39159 q 0.28574,0 0.43391,0.04233 0.14817,0.04233 0.14817,0.105833 0,0.07408 -0.127,0.22225 l -1.68275,2.095493 1.43933,2.730491 q 0.0529,0.105833 0.0529,0.1905 0,0.09525 -0.13758,0.148166 -0.13759,0.04233 -0.47625,0.04233 h -0.4445 q -0.51858,0 -0.61383,-0.201083 l -1.21708,-2.434159 -0.0423,0.01058 -0.24341,2.285992 q -0.0317,0.338666 -0.66675,0.338666 z"
           style="font-style:italic;font-variant:normal;font-weight:bold;font-stretch:normal;font-family:Asap;-inkscape-font-specification:'Asap Bold Italic';fill:#808080;fill-opacity:1;filter:url(#filter1612)"
           id="path1566" />
        <path
           d="m 102.81403,104.03583 q -0.5715,0 -1.03716,-0.1905 -0.45508,-0.20108 -0.45508,-0.47625 0,-0.26458 0.0529,-0.43391 0.0529,-0.16934 0.13758,-0.16934 0.0635,0 0.21167,0.0847 0.23283,0.11642 0.46566,0.20108 0.23283,0.0741 0.55033,0.0741 0.45509,0 0.73025,-0.19049 0.27517,-0.20109 0.27517,-0.53975 0,-0.24342 -0.127,-0.39158 -0.11642,-0.15875 -0.29633,-0.24342 -0.16934,-0.0952 -0.508,-0.22225 -0.56092,-0.22225 -0.89958,-0.5715 -0.33867,-0.35983 -0.33867,-0.93133 0,-0.793748 0.55033,-1.238246 0.56092,-0.444499 1.40758,-0.444499 0.49742,0 0.9525,0.137583 0.45508,0.137583 0.45508,0.402166 0,0.148166 -0.15875,0.380998 -0.15875,0.22225 -0.27516,0.22225 -0.0318,0 -0.17992,-0.0635 -0.13758,-0.07408 -0.3175,-0.116416 -0.16933,-0.05292 -0.42333,-0.05292 -0.43392,0 -0.67733,0.15875 -0.24342,0.158749 -0.24342,0.455081 0,0.232833 0.13758,0.391583 0.13759,0.14817 0.28575,0.22225 0.14817,0.0741 0.5715,0.254 0.56092,0.23283 0.87842,0.56091 0.32808,0.3175 0.32808,0.91017 0,0.53975 -0.26458,0.9525 -0.254,0.41274 -0.71967,0.64558 -0.46567,0.22225 -1.06891,0.22225 z"
           style="font-style:italic;font-variant:normal;font-weight:500;font-stretch:normal;font-family:Asap;-inkscape-font-specification:'Asap Medium Italic';fill:#808080;fill-opacity:1;filter:url(#filter1612)"
           id="path1568" />
        <path
           d="m 107.46008,104.03583 q -1.23825,0 -1.23825,-1.22766 0,-0.0847 0.0212,-0.29634 l 0.32808,-3.174988 h -0.4445 q -0.22224,0 -0.22224,-0.253999 l 0.0106,-0.105833 0.0212,-0.169333 q 0.0212,-0.201083 0.0847,-0.285749 0.0635,-0.09525 0.20108,-0.09525 h 0.46567 l 0.21167,-1.068913 q 0.0318,-0.148166 0.13758,-0.211666 0.10583,-0.0635 0.32808,-0.0635 h 0.0952 q 0.23283,0 0.32808,0.07408 0.0953,0.0635 0.0741,0.22225 l -0.10584,1.047746 h 0.75142 q 0.23283,0 0.23283,0.264583 l -0.0106,0.116416 -0.0106,0.148166 q -0.0212,0.201083 -0.0952,0.296333 -0.0635,0.08467 -0.1905,0.08467 h -0.77258 l -0.32808,3.196157 q -0.0106,0.0635 -0.0106,0.15875 0,0.4445 0.4445,0.4445 0.1905,0 0.30691,-0.0318 0.127,-0.0318 0.15875,-0.0318 0.0318,0 0.0423,0.0212 0.0212,0.0106 0.0212,0.0741 0,0.17992 -0.0529,0.45508 -0.0318,0.20108 -0.27516,0.30691 -0.23283,0.10584 -0.508,0.10584 z"
           style="font-style:italic;font-variant:normal;font-weight:500;font-stretch:normal;font-family:Asap;-inkscape-font-specification:'Asap Medium Italic';fill:#808080;fill-opacity:1;filter:url(#filter1612)"
           id="path1570" />
        <path
           d="m 111.15364,104.03583 q -0.43391,0 -0.83608,-0.22225 -0.40216,-0.22225 -0.66675,-0.73025 -0.254,-0.51858 -0.254,-1.33349 0,-0.98425 0.30692,-1.756833 0.3175,-0.772581 0.889,-1.195913 0.58208,-0.433915 1.32291,-0.433915 0.73025,0 1.32291,0.560914 0.10584,-0.296332 0.20108,-0.402165 0.0952,-0.105833 0.33867,-0.116416 h 0.0847 q 0.21166,0 0.28575,0.08467 0.0847,0.07408 0.0741,0.243416 l -0.40217,3.968742 q -0.0423,0.43391 0.28575,0.43391 0.127,0 0.23284,-0.0318 0.10583,-0.0318 0.13758,-0.0318 0.0741,0 0.0741,0.0953 0,0.17992 -0.0529,0.45508 -0.0423,0.20108 -0.27516,0.30691 -0.23283,0.10584 -0.45508,0.10584 -0.99483,0 -1.02658,-1.04774 -0.28575,0.52916 -0.6985,0.79374 -0.41275,0.254 -0.889,0.254 z m 0.3175,-0.93133 q 0.35983,0 0.71967,-0.33867 0.37041,-0.34925 0.62441,-1.09008 l 0.15875,-1.39699 q 0.0529,-0.444503 0.0952,-0.635002 -0.46567,-0.370416 -1.06891,-0.370416 -0.70908,0 -1.10067,0.687915 -0.381,0.687913 -0.381,1.714493 0,1.42875 0.9525,1.42875 z"
           style="font-style:italic;font-variant:normal;font-weight:500;font-stretch:normal;font-family:Asap;-inkscape-font-specification:'Asap Medium Italic';fill:#808080;fill-opacity:1;filter:url(#filter1612)"
           id="path1572" />
        <path
           d="m 116.84744,104.03583 q -1.23825,0 -1.23825,-1.22766 0,-0.0847 0.0212,-0.29634 l 0.32808,-3.174988 h -0.4445 q -0.22225,0 -0.22225,-0.253999 l 0.0106,-0.105833 0.0212,-0.169333 q 0.0212,-0.201083 0.0847,-0.285749 0.0635,-0.09525 0.20108,-0.09525 h 0.46567 l 0.21166,-1.068913 q 0.0318,-0.148166 0.13759,-0.211666 0.10583,-0.0635 0.32808,-0.0635 h 0.0952 q 0.23283,0 0.32808,0.07408 0.0953,0.0635 0.0741,0.22225 l -0.10583,1.047746 h 0.75141 q 0.23284,0 0.23284,0.264583 l -0.0106,0.116416 -0.0106,0.148166 q -0.0212,0.201083 -0.0953,0.296333 -0.0635,0.08467 -0.1905,0.08467 h -0.77258 l -0.32808,3.196157 q -0.0106,0.0635 -0.0106,0.15875 0,0.4445 0.4445,0.4445 0.1905,0 0.30692,-0.0318 0.127,-0.0318 0.15875,-0.0318 0.0318,0 0.0423,0.0212 0.0212,0.0106 0.0212,0.0741 0,0.17992 -0.0529,0.45508 -0.0317,0.20108 -0.27516,0.30691 -0.23284,0.10584 -0.508,0.10584 z"
           style="font-style:italic;font-variant:normal;font-weight:500;font-stretch:normal;font-family:Asap;-inkscape-font-specification:'Asap Medium Italic';fill:#808080;fill-opacity:1;filter:url(#filter1612)"
           id="path1574" />
        <path
           d="m 123.88532,103.07275 q 0.0741,0 0.0741,0.0953 0,0.17991 -0.0529,0.45508 -0.0318,0.20108 -0.26458,0.30691 -0.23284,0.10584 -0.45509,0.10584 -0.47624,0 -0.74083,-0.24342 -0.26458,-0.24341 -0.3175,-0.78316 -0.35983,0.49741 -0.83608,0.762 -0.47624,0.26458 -0.97366,0.26458 -0.68791,0 -1.03716,-0.33867 -0.34925,-0.33866 -0.34925,-0.98424 0,-0.16934 0.0106,-0.254 l 0.381,-3.788826 q 0.0318,-0.264582 0.508,-0.264582 h 0.127 q 0.48683,0 0.45508,0.264582 l -0.35983,3.598326 q -0.0106,0.0529 -0.0106,0.14816 0,0.68792 0.73025,0.68792 0.39158,0 0.79375,-0.33867 0.40217,-0.33866 0.66675,-1.09008 l 0.3175,-3.005656 q 0.0318,-0.264582 0.508,-0.264582 h 0.11641 q 0.48683,0 0.46567,0.264582 l -0.40217,4.032236 q -0.0423,0.43392 0.28575,0.43392 0.11642,0 0.22225,-0.0318 0.10583,-0.0318 0.13758,-0.0318 z"
           style="font-style:italic;font-variant:normal;font-weight:500;font-stretch:normal;font-family:Asap;-inkscape-font-specification:'Asap Medium Italic';fill:#808080;fill-opacity:1;filter:url(#filter1612)"
           id="path1576" />
        <path
           d="m 126.08664,104.03583 q -0.5715,0 -1.03716,-0.1905 -0.45508,-0.20108 -0.45508,-0.47625 0,-0.26458 0.0529,-0.43391 0.0529,-0.16934 0.13759,-0.16934 0.0635,0 0.21166,0.0847 0.23283,0.11642 0.46567,0.20108 0.23283,0.0741 0.55033,0.0741 0.45508,0 0.73025,-0.19049 0.27516,-0.20109 0.27516,-0.53975 0,-0.24342 -0.127,-0.39158 -0.11641,-0.15875 -0.29633,-0.24342 -0.16933,-0.0952 -0.508,-0.22225 -0.56091,-0.22225 -0.89958,-0.5715 -0.33867,-0.35983 -0.33867,-0.93133 0,-0.793748 0.55034,-1.238246 0.56091,-0.444499 1.40758,-0.444499 0.49741,0 0.95249,0.137583 0.45508,0.137583 0.45508,0.402166 0,0.148166 -0.15875,0.380998 -0.15874,0.22225 -0.27516,0.22225 -0.0318,0 -0.17992,-0.0635 -0.13758,-0.07408 -0.3175,-0.116416 -0.16933,-0.05292 -0.42333,-0.05292 -0.43391,0 -0.67733,0.15875 -0.24342,0.158749 -0.24342,0.455081 0,0.232833 0.13759,0.391583 0.13758,0.14817 0.28575,0.22225 0.14816,0.0741 0.57149,0.254 0.56092,0.23283 0.87842,0.56091 0.32808,0.3175 0.32808,0.91017 0,0.53975 -0.26458,0.9525 -0.254,0.41274 -0.71967,0.64558 -0.46566,0.22225 -1.06891,0.22225 z"
           style="font-style:italic;font-variant:normal;font-weight:500;font-stretch:normal;font-family:Asap;-inkscape-font-specification:'Asap Medium Italic';fill:#808080;fill-opacity:1;filter:url(#filter1612)"
           id="path1578" />
        <path
           d="m 104.80685,76.673437 q -1.55575,0 -2.31775,-0.730248 -0.76199,-0.730247 -0.76199,-2.254243 0,-2.211909 1.00541,-3.386656 1.00541,-1.185329 2.89982,-1.185329 0.508,0 1.00542,0.116416 0.49741,0.105833 0.77258,0.275166 0.22225,0.137583 0.22225,0.285749 0,0.15875 -0.21167,0.455082 -0.20108,0.285749 -0.32808,0.285749 -0.0317,0 -0.254,-0.116416 -0.21167,-0.127 -0.53975,-0.22225 -0.3175,-0.09525 -0.762,-0.09525 -1.29116,0 -1.95791,0.878414 -0.66674,0.86783 -0.66674,2.561158 0,1.09008 0.48683,1.619245 0.49741,0.529165 1.51341,0.529165 0.49741,0 0.85724,-0.105833 0.37042,-0.116416 0.75142,-0.296332 0.16933,-0.09525 0.23283,-0.09525 0.127,0 0.24342,0.253999 0.127,0.253999 0.127,0.412749 0,0.09525 -0.10583,0.211666 -0.10584,0.105833 -0.27517,0.190499 -0.33867,0.179916 -0.87842,0.296333 -0.52916,0.116416 -1.05832,0.116417 z"
           style="font-style:italic;font-variant:normal;font-weight:500;font-stretch:normal;font-family:Asap;-inkscape-font-specification:'Asap Medium Italic';fill:#dc78f3;fill-opacity:1"
           id="path1475" />
        <path
           d="m 112.70198,76.673437 q -0.48683,0 -0.762,-0.253999 -0.27516,-0.254 -0.27516,-0.793748 0,-0.169333 0.0106,-0.264582 l 0.24342,-2.603492 q 0.0106,-0.0635 0.0106,-0.169333 0,-0.666748 -0.65616,-0.666748 -0.43392,0 -0.84667,0.317499 -0.40216,0.317499 -0.67733,1.037164 l -0.3175,3.07974 q -0.0106,0.126999 -0.14816,0.201083 -0.13759,0.0635 -0.37042,0.0635 h -0.11642 q -0.23283,0 -0.35983,-0.07408 -0.11641,-0.07408 -0.10583,-0.179916 l 0.79375,-7.471809 q 0.0318,-0.264583 0.50799,-0.264583 h 0.11642 q 0.24342,0 0.35983,0.07408 0.127,0.0635 0.10584,0.1905 l -0.3175,3.037407 q 0.35983,-0.465666 0.81491,-0.698498 0.45508,-0.243416 0.94192,-0.243416 0.68791,0 1.03716,0.338666 0.34925,0.338665 0.34925,0.984246 0,0.169333 -0.0106,0.254 l -0.26458,2.772824 q -0.0423,0.433915 0.28575,0.433915 0.11642,0 0.22225,-0.03175 0.10583,-0.03175 0.13758,-0.03175 0.0741,0 0.0741,0.09525 0,0.179916 -0.0529,0.455082 -0.0423,0.201083 -0.27517,0.306916 -0.23283,0.105833 -0.45508,0.105833 z"
           style="font-style:italic;font-variant:normal;font-weight:500;font-stretch:normal;font-family:Asap;-inkscape-font-specification:'Asap Medium Italic';fill:#dc78f3;fill-opacity:1"
           id="path1477" />
        <path
           d="m 116.38496,74.376861 q -0.55034,0 -0.97367,-0.07408 v 0.02117 q 0,0.804331 0.35983,1.12183 0.37042,0.317499 1.05833,0.317499 0.43392,0 0.77259,-0.116416 0.33866,-0.116417 0.65616,-0.285749 0.16933,-0.09525 0.21167,-0.09525 0.0423,0 0.0529,0.02117 0.0212,0.02117 0.0212,0.105833 0,0.264582 -0.0635,0.582081 -0.0741,0.349249 -0.66675,0.529165 -0.59266,0.169333 -1.10066,0.169333 -1.06891,0 -1.74625,-0.507999 -0.67733,-0.518581 -0.67733,-1.725077 0,-1.587495 0.74083,-2.518826 0.75142,-0.93133 2.12725,-0.93133 0.68791,0 1.11124,0.232833 0.43392,0.232832 0.61383,0.571498 0.17992,0.328082 0.17992,0.645581 0,1.005413 -0.78316,1.471079 -0.77258,0.465665 -1.89441,0.465665 z m 0.71966,-2.476492 q -0.66675,0 -1.09008,0.433915 -0.42333,0.433915 -0.53975,1.195913 h 0.67733 q 0.62442,0 1.21708,-0.201083 0.59267,-0.211666 0.59267,-0.772581 0,-0.296332 -0.24342,-0.476248 -0.23283,-0.179916 -0.61383,-0.179916 z"
           style="font-style:italic;font-variant:normal;font-weight:500;font-stretch:normal;font-family:Asap;-inkscape-font-specification:'Asap Medium Italic';fill:#dc78f3;fill-opacity:1"
           id="path1479" />
        <path
           d="m 122.09992,76.673437 q -1.18533,0 -1.778,-0.539748 -0.58208,-0.550332 -0.58208,-1.714495 0,-1.640411 0.75141,-2.529409 0.762,-0.89958 2.14841,-0.89958 0.56092,0 1.03717,0.158749 0.47625,0.15875 0.47625,0.391583 0,0.137582 -0.1905,0.402165 -0.17992,0.253999 -0.28575,0.253999 -0.0423,0 -0.13758,-0.05292 -0.20109,-0.105833 -0.43392,-0.169333 -0.22225,-0.07408 -0.55033,-0.07408 -0.81492,0 -1.23825,0.624414 -0.42333,0.613832 -0.42333,1.799161 0,0.740831 0.30692,1.09008 0.31749,0.349249 1.00541,0.349249 0.30692,0 0.55033,-0.07408 0.24342,-0.07408 0.51858,-0.190499 0.0529,-0.02117 0.0847,-0.03175 0.0423,-0.02117 0.0635,-0.02117 0.11642,0 0.23283,0.222249 0.11642,0.22225 0.11642,0.380999 0,0.253999 -0.56092,0.444499 -0.56091,0.179916 -1.11124,0.179916 z"
           style="font-style:italic;font-variant:normal;font-weight:500;font-stretch:normal;font-family:Asap;-inkscape-font-specification:'Asap Medium Italic';fill:#dc78f3;fill-opacity:1"
           id="path1481" />
        <path
           d="m 125.35956,76.62052 q -0.254,0 -0.35983,-0.0635 -0.10584,-0.0635 -0.10584,-0.201083 l 0.79375,-7.461226 q 0.0212,-0.264583 0.508,-0.264583 h 0.11642 q 0.254,0 0.35983,0.0635 0.10583,0.0635 0.10583,0.201083 l -0.48683,4.571985 h 0.0423 l 2.10608,-2.254243 q 0.14817,-0.169333 0.60325,-0.169333 h 0.14816 q 0.20109,0 0.30692,0.04233 0.11642,0.03175 0.11642,0.09525 0,0.09525 -0.127,0.22225 l -2.11666,2.254242 1.91557,2.624659 q 0.0741,0.105833 0.0741,0.158749 0,0.105833 -0.11642,0.148166 -0.11642,0.03175 -0.40217,0.03175 h -0.16933 q -0.22225,0 -0.37041,-0.03175 -0.14817,-0.03175 -0.20109,-0.126999 l -1.82032,-2.487076 -0.0423,0.01058 -0.24341,2.370659 q -0.0318,0.264582 -0.51858,0.264582 z"
           style="font-style:italic;font-variant:normal;font-weight:500;font-stretch:normal;font-family:Asap;-inkscape-font-specification:'Asap Medium Italic';fill:#dc78f3;fill-opacity:1"
           id="path1483" />
        <path
           d="m 134.52469,76.673437 q -1.23824,0 -1.23824,-1.227663 0,-0.08467 0.0212,-0.296332 l 0.32809,-3.17499 h -0.4445 q -0.22225,0 -0.22225,-0.253999 l 0.0106,-0.105833 0.0212,-0.169333 q 0.0212,-0.201083 0.0847,-0.285749 0.0635,-0.09525 0.20108,-0.09525 h 0.46566 l 0.21167,-1.068913 q 0.0317,-0.148166 0.13758,-0.211666 0.10583,-0.0635 0.32808,-0.0635 h 0.0952 q 0.23284,0 0.32809,0.07408 0.0952,0.0635 0.0741,0.222249 l -0.10583,1.047747 h 0.75141 q 0.23283,0 0.23283,0.264583 l -0.0106,0.116416 -0.0106,0.148166 q -0.0212,0.201083 -0.0953,0.296332 -0.0635,0.08467 -0.1905,0.08467 h -0.77258 l -0.32809,3.196156 q -0.0106,0.0635 -0.0106,0.15875 0,0.444498 0.4445,0.444498 0.1905,0 0.30692,-0.03175 0.12699,-0.03175 0.15874,-0.03175 0.0317,0 0.0423,0.02117 0.0212,0.01058 0.0212,0.07408 0,0.179916 -0.0529,0.455082 -0.0317,0.201083 -0.27517,0.306916 -0.23283,0.105833 -0.508,0.105833 z"
           style="font-style:italic;font-variant:normal;font-weight:500;font-stretch:normal;font-family:Asap;-inkscape-font-specification:'Asap Medium Italic';fill:#dc78f3;fill-opacity:1"
           id="path1485" />
        <path
           d="m 140.92758,76.673437 q -0.48683,0 -0.762,-0.253999 -0.27517,-0.254 -0.27517,-0.793748 0,-0.169333 0.0106,-0.264582 l 0.24341,-2.603492 q 0.0106,-0.0635 0.0106,-0.169333 0,-0.666748 -0.65617,-0.666748 -0.43391,0 -0.84666,0.317499 -0.40217,0.317499 -0.67733,1.037164 l -0.3175,3.07974 q -0.0106,0.126999 -0.14817,0.201083 -0.13758,0.0635 -0.37041,0.0635 h -0.11642 q -0.23283,0 -0.35983,-0.07408 -0.11642,-0.07408 -0.10583,-0.179916 l 0.79374,-7.471809 q 0.0317,-0.264583 0.508,-0.264583 h 0.11642 q 0.24341,0 0.35983,0.07408 0.127,0.0635 0.10583,0.1905 l -0.3175,3.037407 q 0.35984,-0.465666 0.81492,-0.698498 0.45508,-0.243416 0.94191,-0.243416 0.68792,0 1.03716,0.338666 0.34925,0.338665 0.34925,0.984246 0,0.169333 -0.0106,0.254 l -0.26458,2.772824 q -0.0423,0.433915 0.28575,0.433915 0.11641,0 0.22225,-0.03175 0.10583,-0.03175 0.13758,-0.03175 0.0741,0 0.0741,0.09525 0,0.179916 -0.0529,0.455082 -0.0423,0.201083 -0.27517,0.306916 -0.23283,0.105833 -0.45508,0.105833 z"
           style="font-style:italic;font-variant:normal;font-weight:500;font-stretch:normal;font-family:Asap;-inkscape-font-specification:'Asap Medium Italic';fill:#dc78f3;fill-opacity:1"
           id="path1487" />
        <path
           d="m 144.61055,74.376861 q -0.55033,0 -0.97366,-0.07408 v 0.02117 q 0,0.804331 0.35983,1.12183 0.37042,0.317499 1.05833,0.317499 0.43392,0 0.77258,-0.116416 0.33867,-0.116417 0.65617,-0.285749 0.16933,-0.09525 0.21166,-0.09525 0.0423,0 0.0529,0.02117 0.0212,0.02117 0.0212,0.105833 0,0.264582 -0.0635,0.582081 -0.0741,0.349249 -0.66674,0.529165 -0.59267,0.169333 -1.10067,0.169333 -1.06891,0 -1.74624,-0.507999 -0.67733,-0.518581 -0.67733,-1.725077 0,-1.587495 0.74083,-2.518826 0.75141,-0.93133 2.12724,-0.93133 0.68792,0 1.11125,0.232833 0.43391,0.232832 0.61383,0.571498 0.17992,0.328082 0.17992,0.645581 0,1.005413 -0.78317,1.471079 -0.77258,0.465665 -1.89441,0.465665 z m 0.71967,-2.476492 q -0.66675,0 -1.09008,0.433915 -0.42334,0.433915 -0.53975,1.195913 h 0.67733 q 0.62441,0 1.21708,-0.201083 0.59266,-0.211666 0.59266,-0.772581 0,-0.296332 -0.24341,-0.476248 -0.23284,-0.179916 -0.61383,-0.179916 z"
           style="font-style:italic;font-variant:normal;font-weight:500;font-stretch:normal;font-family:Asap;-inkscape-font-specification:'Asap Medium Italic';fill:#dc78f3;fill-opacity:1"
           id="path1489" />
        <path
           d="m 155.83943,75.710357 q 0.0741,0 0.0741,0.09525 0,0.179916 -0.0529,0.455082 -0.0423,0.201083 -0.27516,0.306916 -0.23284,0.105833 -0.45508,0.105833 -1.03717,0 -1.03717,-1.09008 0,-0.169333 0.0106,-0.253999 l 0.24341,-2.571742 q 0.0106,-0.05292 0.0106,-0.148166 0,-0.687915 -0.73024,-0.687915 -0.39158,0 -0.79375,0.338666 -0.40217,0.328082 -0.66675,1.047747 l -0.3175,3.04799 q -0.0106,0.126999 -0.14816,0.201083 -0.127,0.0635 -0.35984,0.0635 h -0.11641 q -0.23283,0 -0.34925,-0.07408 -0.11642,-0.07408 -0.10583,-0.190499 l 0.33866,-3.280823 q 0.0952,-0.878414 0.0952,-1.217079 0,-0.1905 -0.0106,-0.28575 0,-0.09525 0,-0.148166 0,-0.158749 0.254,-0.222249 0.254,-0.0635 0.52916,-0.0635 0.29633,0 0.29633,0.740831 v 0.116416 q 0.35984,-0.486831 0.83609,-0.740831 0.47624,-0.264582 0.97366,-0.264582 0.68791,0 1.03716,0.338666 0.34925,0.338665 0.34925,0.984246 0,0.169333 -0.0106,0.254 l -0.27517,2.772824 q -0.0423,0.433915 0.28575,0.433915 0.127,0 0.23283,-0.03175 0.10584,-0.03175 0.13759,-0.03175 z"
           style="font-style:italic;font-variant:normal;font-weight:500;font-stretch:normal;font-family:Asap;-inkscape-font-specification:'Asap Medium Italic';fill:#dc78f3;fill-opacity:1"
           id="path1491" />
        <path
           d="m 158.74983,74.376861 q -0.55034,0 -0.97367,-0.07408 v 0.02117 q 0,0.804331 0.35983,1.12183 0.37042,0.317499 1.05833,0.317499 0.43392,0 0.77259,-0.116416 0.33866,-0.116417 0.65616,-0.285749 0.16933,-0.09525 0.21167,-0.09525 0.0423,0 0.0529,0.02117 0.0212,0.02117 0.0212,0.105833 0,0.264582 -0.0635,0.582081 -0.0741,0.349249 -0.66675,0.529165 -0.59266,0.169333 -1.10066,0.169333 -1.06891,0 -1.74625,-0.507999 -0.67733,-0.518581 -0.67733,-1.725077 0,-1.587495 0.74083,-2.518826 0.75142,-0.93133 2.12725,-0.93133 0.68791,0 1.11124,0.232833 0.43392,0.232832 0.61383,0.571498 0.17992,0.328082 0.17992,0.645581 0,1.005413 -0.78316,1.471079 -0.77258,0.465665 -1.89441,0.465665 z m 0.71966,-2.476492 q -0.66675,0 -1.09008,0.433915 -0.42333,0.433915 -0.53975,1.195913 h 0.67733 q 0.62442,0 1.21708,-0.201083 0.59267,-0.211666 0.59267,-0.772581 0,-0.296332 -0.24342,-0.476248 -0.23283,-0.179916 -0.61383,-0.179916 z"
           style="font-style:italic;font-variant:normal;font-weight:500;font-stretch:normal;font-family:Asap;-inkscape-font-specification:'Asap Medium Italic';fill:#dc78f3;fill-opacity:1"
           id="path1493" />
        <path
           d="m 163.48055,76.62052 q -0.43392,0 -0.46567,-0.211666 l -0.86783,-5.111733 q -0.0529,-0.254 0.51858,-0.254 h 0.15875 q 0.42334,0 0.45509,0.1905 l 0.46566,2.920991 q 0.127,0.740831 0.127,1.068913 h 0.0423 q 0.0423,-0.179916 0.34925,-1.05833 l 1.04775,-2.920991 q 0.0741,-0.201083 0.47625,-0.201083 h 0.16933 q 0.41275,0 0.4445,0.201083 l 0.4445,2.910408 q 0.127,0.83608 0.127,1.068913 h 0.0423 q 0.0952,-0.370416 0.33867,-1.05833 l 1.05833,-2.836324 q 0.0529,-0.169333 0.14816,-0.22225 0.10583,-0.0635 0.34925,-0.0635 h 0.127 q 0.23283,0 0.32808,0.05292 0.0952,0.04233 0.0952,0.137583 0,0.07408 -0.0423,0.169333 l -1.89441,5.027067 q -0.0741,0.190499 -0.48683,0.190499 h -0.40217 q -0.42333,0 -0.45508,-0.190499 l -0.40217,-2.741075 q -0.0635,-0.444498 -0.0847,-0.973663 h -0.0423 q -0.0741,0.370415 -0.26458,0.89958 l -1.02658,2.815158 q -0.0635,0.190499 -0.47625,0.190499 z"
           style="font-style:italic;font-variant:normal;font-weight:500;font-stretch:normal;font-family:Asap;-inkscape-font-specification:'Asap Medium Italic';fill:#dc78f3;fill-opacity:1"
           id="path1495" />
        <path
           d="m 104.29885,90.232055 q -0.70908,0 -1.28058,-0.550332 -0.0635,0.211666 -0.127,0.306916 -0.0529,0.08467 -0.17992,0.137583 -0.11641,0.04233 -0.38099,0.04233 h -0.127 q -0.64558,0 -0.61383,-0.296332 l 0.78316,-7.365977 q 0.0318,-0.338665 0.66675,-0.338665 h 0.29633 q 0.29633,0 0.4445,0.09525 0.15875,0.09525 0.15875,0.232833 l -0.28575,2.635241 q 0.24341,-0.285749 0.57149,-0.444498 0.32809,-0.15875 0.70908,-0.15875 0.87842,0 1.397,0.603248 0.52917,0.592665 0.52917,1.693328 0,1.005414 -0.32809,1.777995 -0.3175,0.772581 -0.89958,1.206496 -0.58208,0.423332 -1.33349,0.423332 z m -0.35983,-1.238246 q 0.63499,0 0.98424,-0.529165 0.34925,-0.539748 0.34925,-1.545162 0,-0.571498 -0.22225,-0.836081 -0.22225,-0.275165 -0.70908,-0.275165 -0.42333,0 -0.81491,0.592664 l -0.14817,1.386413 q -0.0212,0.211666 -0.0847,0.634998 l -0.0423,0.296332 q 0.3175,0.275166 0.68791,0.275166 z"
           style="font-style:italic;font-variant:normal;font-weight:bold;font-stretch:normal;font-family:Asap;-inkscape-font-specification:'Asap Bold Italic';fill:#6426ca;fill-opacity:1"
           id="path1497" />
        <path
           d="m 112.64905,86.062235 q 0,0.666748 -0.33866,1.100663 -0.32808,0.433915 -0.84667,0.634998 -0.51858,0.201083 -1.09008,0.201083 -0.58208,0 -1.10066,-0.07408 0.0423,0.613831 0.3175,0.846663 0.27517,0.22225 0.79375,0.22225 0.63499,0 1.42874,-0.380999 0.16934,-0.08467 0.21167,-0.08467 0.0847,0 0.0847,0.148166 0,0.201082 -0.0212,0.455082 -0.0212,0.243416 -0.0635,0.359832 -0.11642,0.391582 -0.68792,0.571498 -0.57149,0.169333 -1.15358,0.169333 -1.25941,0 -1.88382,-0.613832 -0.61383,-0.613831 -0.61383,-1.714494 0,-1.725078 0.81491,-2.550575 0.81491,-0.825498 2.09549,-0.825498 0.79375,0 1.24883,0.254 0.46567,0.243415 0.635,0.592664 0.16933,0.349249 0.16933,0.687916 z m -2.79399,0.888997 q 0.67733,0 0.97367,-0.201083 0.29633,-0.211666 0.29633,-0.486832 0,-0.253999 -0.16933,-0.370415 -0.16934,-0.127 -0.46567,-0.127 -0.46567,0 -0.75141,0.328083 -0.27517,0.317499 -0.39159,0.857247 z"
           style="font-style:italic;font-variant:normal;font-weight:bold;font-stretch:normal;font-family:Asap;-inkscape-font-specification:'Asap Bold Italic';fill:#6426ca;fill-opacity:1"
           id="path1499" />
        <path
           d="m 118.66036,88.930309 q 0.0529,0 0.0635,0.03175 0.0212,0.02117 0.0212,0.09525 0,0.253999 -0.0741,0.624414 -0.0529,0.275166 -0.33867,0.412749 -0.27517,0.137583 -0.59266,0.137583 -1.27,0 -1.27,-1.280579 0,-0.179917 0.0106,-0.275166 l 0.21167,-2.222493 q 0.0318,-0.328082 -0.10583,-0.476249 -0.13759,-0.158749 -0.45509,-0.158749 -0.28575,0 -0.52916,0.190499 -0.23283,0.1905 -0.40217,0.455082 l -0.33866,3.365489 q -0.0318,0.338666 -0.66675,0.338666 h -0.29633 q -0.30692,0 -0.46567,-0.09525 -0.15875,-0.09525 -0.13758,-0.232832 l 0.35983,-3.524239 q 0.0423,-0.486832 0.0423,-0.698498 l -0.0106,-0.370415 q -0.0106,-0.07408 -0.0106,-0.22225 0,-0.169332 0.34925,-0.275165 0.34925,-0.105833 0.87841,-0.105833 0.32808,0 0.34925,0.709081 0.27517,-0.338666 0.73025,-0.582082 0.45508,-0.243416 0.92074,-0.243416 0.67734,0 1.02658,0.306916 0.35984,0.306916 0.35984,0.984247 0,0.169333 -0.0106,0.264582 l -0.23283,2.508242 q -0.0212,0.211666 0.0529,0.306916 0.0847,0.09525 0.254,0.09525 0.0953,0 0.17991,-0.03175 0.0952,-0.03175 0.127,-0.03175 z"
           style="font-style:italic;font-variant:normal;font-weight:bold;font-stretch:normal;font-family:Asap;-inkscape-font-specification:'Asap Bold Italic';fill:#6426ca;fill-opacity:1"
           id="path1501" />
        <path
           d="m 121.68718,90.232055 q -1.21708,0 -1.80975,-0.560915 -0.59266,-0.560915 -0.59266,-1.693328 0,-1.682745 0.78316,-2.561159 0.78317,-0.888997 2.27541,-0.888997 0.55033,0 1.05833,0.1905 0.51858,0.190499 0.51858,0.507998 0,0.105833 -0.127,0.317499 -0.127,0.201083 -0.28575,0.370416 -0.15874,0.158749 -0.24341,0.158749 -0.0423,0 -0.20108,-0.08467 -0.20109,-0.105833 -0.35984,-0.15875 -0.15875,-0.0635 -0.41274,-0.0635 -0.67734,0 -1.03717,0.518582 -0.34925,0.518582 -0.34925,1.523995 0,0.603248 0.23284,0.899581 0.24341,0.285749 0.75141,0.285749 0.23283,0 0.41275,-0.04233 0.1905,-0.05292 0.33866,-0.116417 0.14817,-0.0635 0.21167,-0.08467 0.16933,-0.0635 0.1905,-0.0635 0.15875,0 0.30692,0.285749 0.15874,0.285749 0.15874,0.486832 0,0.275166 -0.35983,0.455082 -0.34925,0.169333 -0.78316,0.243416 -0.43392,0.07408 -0.67733,0.07408 z"
           style="font-style:italic;font-variant:normal;font-weight:bold;font-stretch:normal;font-family:Asap;-inkscape-font-specification:'Asap Bold Italic';fill:#6426ca;fill-opacity:1"
           id="path1503" />
        <path
           d="m 128.74622,90.232055 q -1.28057,0 -1.28057,-1.195913 0,-0.169333 0.0106,-0.253999 l 0.22225,-2.328326 q 0.0318,-0.328082 -0.10584,-0.476249 -0.13758,-0.158749 -0.45508,-0.158749 -0.48683,0 -0.91016,0.603248 l -0.35983,3.407822 q -0.0318,0.338666 -0.66675,0.338666 h -0.29633 q -0.30692,0 -0.46567,-0.09525 -0.15875,-0.09525 -0.13758,-0.232832 l 0.77258,-7.334227 q 0.0318,-0.338665 0.66675,-0.338665 h 0.29633 q 0.30692,0 0.46567,0.09525 0.15874,0.09525 0.13758,0.232833 l -0.28575,2.751658 q 0.28575,-0.306916 0.70908,-0.507999 0.42333,-0.211666 0.84666,-0.211666 0.67734,0 1.02658,0.306916 0.35984,0.306916 0.35984,0.984247 0,0.169333 -0.0106,0.264582 l -0.23283,2.508242 q -0.0212,0.211666 0.0529,0.306916 0.0847,0.09525 0.254,0.09525 0.0952,0 0.17991,-0.03175 0.0953,-0.03175 0.127,-0.03175 0.0529,0 0.0635,0.03175 0.0212,0.02117 0.0212,0.09525 0,0.253999 -0.0741,0.624414 -0.0529,0.275166 -0.33866,0.412749 -0.27517,0.137583 -0.59267,0.137583 z"
           style="font-style:italic;font-variant:normal;font-weight:bold;font-stretch:normal;font-family:Asap;-inkscape-font-specification:'Asap Bold Italic';fill:#6426ca;fill-opacity:1"
           id="path1505" />
        <path
           d="m 138.71568,88.930309 q 0.0529,0 0.0635,0.03175 0.0212,0.02117 0.0212,0.09525 0,0.253999 -0.0741,0.624414 -0.0529,0.275166 -0.33866,0.412749 -0.27517,0.137583 -0.59267,0.137583 -1.27,0 -1.27,-1.259413 0,-0.190499 0.0106,-0.296332 l 0.21166,-2.222493 q 0.0317,-0.328082 -0.10583,-0.476249 -0.13758,-0.158749 -0.45508,-0.158749 -0.26458,0 -0.49742,0.179916 -0.23283,0.169333 -0.41274,0.423332 l -0.32809,3.407822 q -0.0317,0.338666 -0.66674,0.338666 h -0.29634 q -0.30691,0 -0.46566,-0.09525 -0.15875,-0.105833 -0.13759,-0.253999 l 0.33867,-3.365489 q 0.0318,-0.328082 -0.10583,-0.476249 -0.13759,-0.158749 -0.45508,-0.158749 -0.49742,0 -0.91017,0.613831 l -0.33866,3.397239 q -0.0317,0.338666 -0.66675,0.338666 h -0.29633 q -0.30692,0 -0.46567,-0.09525 -0.15875,-0.105833 -0.13758,-0.253999 l 0.0847,-0.783164 q 0.3175,-2.857491 0.3175,-3.418406 l -0.0106,-0.370415 q -0.0106,-0.07408 -0.0106,-0.22225 0,-0.169332 0.34925,-0.275165 0.34924,-0.105833 0.87841,-0.105833 0.30692,0 0.34925,0.687914 0.28575,-0.328082 0.73025,-0.560915 0.44449,-0.243416 0.89958,-0.243416 1.10066,0 1.33349,0.814914 0.26458,-0.328082 0.74083,-0.571498 0.47625,-0.243416 0.9525,-0.243416 0.67733,0 1.02658,0.306916 0.35983,0.306916 0.35983,0.984247 0,0.169333 -0.0106,0.264582 l -0.23283,2.508242 q -0.0212,0.211666 0.0529,0.306916 0.0847,0.09525 0.254,0.09525 0.0952,0 0.17992,-0.03175 0.0952,-0.03175 0.127,-0.03175 z"
           style="font-style:italic;font-variant:normal;font-weight:bold;font-stretch:normal;font-family:Asap;-inkscape-font-specification:'Asap Bold Italic';fill:#6426ca;fill-opacity:1"
           id="path1507" />
        <path
           d="m 140.99108,90.242638 q -0.78316,0 -1.24883,-0.592665 -0.46566,-0.603248 -0.46566,-1.703911 0,-1.005413 0.29633,-1.777994 0.29633,-0.772581 0.8255,-1.195913 0.53975,-0.433915 1.22766,-0.433915 0.40217,0 0.71967,0.169332 0.32808,0.169333 0.56091,0.391582 0.0635,-0.222249 0.11642,-0.306915 0.0529,-0.09525 0.17991,-0.137583 0.127,-0.05292 0.39159,-0.05292 h 0.12699 q 0.3175,0 0.46567,0.07408 0.14817,0.07408 0.13758,0.243415 l -0.37041,3.672405 q -0.0212,0.211666 0.0529,0.306916 0.0847,0.09525 0.254,0.09525 0.0952,0 0.17992,-0.03175 0.0952,-0.03175 0.127,-0.03175 0.0529,0 0.0635,0.03175 0.0212,0.02117 0.0212,0.09525 0,0.253999 -0.0741,0.624414 -0.0529,0.275166 -0.33866,0.412749 -0.27517,0.137583 -0.59267,0.137583 -1.00541,0 -1.21708,-0.804331 -0.23283,0.359832 -0.61383,0.592665 -0.381,0.222249 -0.8255,0.222249 z m 0.59267,-1.280579 q 0.43391,0 0.8255,-0.613832 l 0.14816,-1.428745 q 0.0635,-0.613831 0.127,-0.857247 -0.32808,-0.285749 -0.6985,-0.285749 -0.53974,0 -0.83608,0.539748 -0.28575,0.529165 -0.28575,1.534578 0,1.111247 0.71967,1.111247 z"
           style="font-style:italic;font-variant:normal;font-weight:bold;font-stretch:normal;font-family:Asap;-inkscape-font-specification:'Asap Bold Italic';fill:#6426ca;fill-opacity:1"
           id="path1509" />
        <path
           d="m 145.67947,90.168555 q -0.30692,0 -0.46567,-0.105833 -0.15875,-0.105833 -0.13758,-0.275166 l 0.35983,-3.418406 q 0.0529,-0.529165 0.0529,-0.89958 0,-0.15875 -0.0106,-0.275166 -0.0106,-0.126999 -0.0106,-0.190499 0.0106,-0.201083 0.27517,-0.275166 0.27516,-0.08467 0.87841,-0.08467 0.37042,0 0.41275,0.666747 0.24341,-0.349248 0.52916,-0.560914 0.29634,-0.22225 0.6985,-0.22225 0.49742,0 0.49742,0.486832 0,0.264583 -0.15875,0.624415 -0.14817,0.359832 -0.26459,0.359832 -0.0423,0 -0.15874,-0.04233 -0.11642,-0.05292 -0.27517,-0.05292 -0.24342,0 -0.48683,0.148166 -0.24342,0.137583 -0.43392,0.391583 l -0.33866,3.365489 q -0.0318,0.359832 -0.66675,0.359832 z"
           style="font-style:italic;font-variant:normal;font-weight:bold;font-stretch:normal;font-family:Asap;-inkscape-font-specification:'Asap Bold Italic';fill:#6426ca;fill-opacity:1"
           id="path1511" />
        <path
           d="m 149.53178,90.168555 q -0.32808,0 -0.46567,-0.08467 -0.13758,-0.08467 -0.13758,-0.254 l 0.77258,-7.323643 q 0.0317,-0.338665 0.66675,-0.338665 h 0.29633 q 0.32808,0 0.46567,0.08467 0.13758,0.08467 0.13758,0.253999 l -0.4445,4.190987 0.0423,0.01058 1.48167,-1.915577 q 0.0952,-0.127 0.24341,-0.15875 0.15875,-0.04233 0.42333,-0.04233 h 0.39159 q 0.28574,0 0.43391,0.04233 0.14817,0.04233 0.14817,0.105833 0,0.07408 -0.127,0.22225 l -1.68275,2.095493 1.43933,2.730491 q 0.0529,0.105833 0.0529,0.1905 0,0.09525 -0.13758,0.148166 -0.13759,0.04233 -0.47625,0.04233 h -0.4445 q -0.51858,0 -0.61383,-0.201083 l -1.21708,-2.434159 -0.0423,0.01058 -0.24341,2.285992 q -0.0317,0.338666 -0.66675,0.338666 z"
           style="font-style:italic;font-variant:normal;font-weight:bold;font-stretch:normal;font-family:Asap;-inkscape-font-specification:'Asap Bold Italic';fill:#6426ca;fill-opacity:1"
           id="path1513" />
        <path
           d="m 103.09235,103.76953 q -0.5715,0 -1.03716,-0.1905 -0.45508,-0.20108 -0.45508,-0.47626 0,-0.26458 0.0529,-0.43391 0.0529,-0.16934 0.13758,-0.16934 0.0635,0 0.21167,0.0847 0.23283,0.11642 0.46566,0.20108 0.23283,0.0741 0.55033,0.0741 0.45508,0 0.73025,-0.19049 0.27517,-0.20109 0.27517,-0.53975 0,-0.24342 -0.127,-0.39158 -0.11642,-0.15875 -0.29634,-0.24342 -0.16933,-0.0952 -0.50799,-0.22225 -0.56092,-0.22225 -0.89958,-0.5715 -0.33867,-0.35984 -0.33867,-0.931338 0,-0.793748 0.55033,-1.238246 0.56092,-0.444499 1.40758,-0.444499 0.49742,0 0.9525,0.137583 0.45508,0.137583 0.45508,0.402166 0,0.148166 -0.15875,0.380998 -0.15875,0.22225 -0.27517,0.22225 -0.0318,0 -0.17991,-0.0635 -0.13759,-0.07408 -0.3175,-0.116416 -0.16933,-0.05292 -0.42333,-0.05292 -0.43392,0 -0.67733,0.15875 -0.24342,0.158749 -0.24342,0.455081 0,0.232833 0.13758,0.391581 0.13759,0.14817 0.28575,0.22225 0.14817,0.0741 0.5715,0.254 0.56091,0.23284 0.87841,0.56092 0.32808,0.3175 0.32808,0.91017 0,0.53975 -0.26458,0.9525 -0.254,0.41275 -0.71966,0.64559 -0.46567,0.22225 -1.06891,0.22225 z"
           style="font-style:italic;font-variant:normal;font-weight:500;font-stretch:normal;font-family:Asap;-inkscape-font-specification:'Asap Medium Italic';fill:#dc78f3;fill-opacity:1"
           id="path1515" />
        <path
           d="m 107.7384,103.76953 q -1.23825,0 -1.23825,-1.22767 0,-0.0847 0.0212,-0.29634 l 0.32808,-3.174999 h -0.4445 q -0.22224,0 -0.22224,-0.253999 l 0.0106,-0.105833 0.0212,-0.169333 q 0.0212,-0.201083 0.0847,-0.285749 0.0635,-0.09525 0.20108,-0.09525 h 0.46567 l 0.21167,-1.068913 q 0.0318,-0.148166 0.13758,-0.211666 0.10583,-0.0635 0.32808,-0.0635 h 0.0952 q 0.23283,0 0.32808,0.07408 0.0953,0.0635 0.0741,0.22225 l -0.10584,1.047746 h 0.75142 q 0.23283,0 0.23283,0.264583 l -0.0106,0.116416 -0.0106,0.148166 q -0.0212,0.201083 -0.0952,0.296333 -0.0635,0.08467 -0.1905,0.08467 h -0.77258 l -0.32808,3.196168 q -0.0106,0.0635 -0.0106,0.15875 0,0.4445 0.4445,0.4445 0.1905,0 0.30691,-0.0318 0.127,-0.0318 0.15875,-0.0318 0.0318,0 0.0423,0.0212 0.0212,0.0106 0.0212,0.0741 0,0.17992 -0.0529,0.45509 -0.0318,0.20108 -0.27516,0.30691 -0.23283,0.10584 -0.508,0.10584 z"
           style="font-style:italic;font-variant:normal;font-weight:500;font-stretch:normal;font-family:Asap;-inkscape-font-specification:'Asap Medium Italic';fill:#dc78f3;fill-opacity:1"
           id="path1517" />
        <path
           d="m 111.43196,103.76953 q -0.43391,0 -0.83608,-0.22225 -0.40216,-0.22225 -0.66675,-0.73026 -0.254,-0.51858 -0.254,-1.33349 0,-0.98426 0.30692,-1.756844 0.3175,-0.772581 0.889,-1.195913 0.58208,-0.433915 1.32291,-0.433915 0.73025,0 1.32291,0.560914 0.10584,-0.296332 0.20108,-0.402165 0.0952,-0.105833 0.33867,-0.116416 h 0.0847 q 0.21166,0 0.28575,0.08467 0.0847,0.07408 0.0741,0.243416 l -0.40217,3.968753 q -0.0423,0.43391 0.28575,0.43391 0.127,0 0.23284,-0.0318 0.10583,-0.0318 0.13758,-0.0318 0.0741,0 0.0741,0.0953 0,0.17992 -0.0529,0.45509 -0.0423,0.20108 -0.27516,0.30691 -0.23283,0.10584 -0.45508,0.10584 -0.99483,0 -1.02658,-1.04775 -0.28575,0.52917 -0.6985,0.79375 -0.41275,0.254 -0.889,0.254 z m 0.3175,-0.93134 q 0.35983,0 0.71967,-0.33867 0.37041,-0.34925 0.62441,-1.09008 l 0.15875,-1.397 q 0.0529,-0.444504 0.0952,-0.635003 -0.46567,-0.370416 -1.06891,-0.370416 -0.70908,0 -1.10067,0.687915 -0.381,0.687914 -0.381,1.714504 0,1.42875 0.9525,1.42875 z"
           style="font-style:italic;font-variant:normal;font-weight:500;font-stretch:normal;font-family:Asap;-inkscape-font-specification:'Asap Medium Italic';fill:#dc78f3;fill-opacity:1"
           id="path1519" />
        <path
           d="m 117.12576,103.76953 q -1.23825,0 -1.23825,-1.22767 0,-0.0847 0.0212,-0.29634 l 0.32808,-3.174999 h -0.4445 q -0.22225,0 -0.22225,-0.253999 l 0.0106,-0.105833 0.0212,-0.169333 q 0.0212,-0.201083 0.0847,-0.285749 0.0635,-0.09525 0.20108,-0.09525 h 0.46567 l 0.21166,-1.068913 q 0.0318,-0.148166 0.13759,-0.211666 0.10583,-0.0635 0.32808,-0.0635 h 0.0952 q 0.23283,0 0.32808,0.07408 0.0953,0.0635 0.0741,0.22225 l -0.10583,1.047746 h 0.75141 q 0.23284,0 0.23284,0.264583 l -0.0106,0.116416 -0.0106,0.148166 q -0.0212,0.201083 -0.0953,0.296333 -0.0635,0.08467 -0.1905,0.08467 h -0.77258 l -0.32808,3.196168 q -0.0106,0.0635 -0.0106,0.15875 0,0.4445 0.4445,0.4445 0.1905,0 0.30692,-0.0318 0.127,-0.0318 0.15875,-0.0318 0.0318,0 0.0423,0.0212 0.0212,0.0106 0.0212,0.0741 0,0.17992 -0.0529,0.45509 -0.0317,0.20108 -0.27516,0.30691 -0.23284,0.10584 -0.508,0.10584 z"
           style="font-style:italic;font-variant:normal;font-weight:500;font-stretch:normal;font-family:Asap;-inkscape-font-specification:'Asap Medium Italic';fill:#dc78f3;fill-opacity:1"
           id="path1521" />
        <path
           d="m 124.16364,102.80644 q 0.0741,0 0.0741,0.0953 0,0.17991 -0.0529,0.45509 -0.0318,0.20108 -0.26458,0.30691 -0.23284,0.10584 -0.45509,0.10584 -0.47624,0 -0.74083,-0.24342 -0.26458,-0.24341 -0.3175,-0.78317 -0.35983,0.49742 -0.83608,0.76201 -0.47624,0.26458 -0.97366,0.26458 -0.68791,0 -1.03716,-0.33867 -0.34925,-0.33867 -0.34925,-0.98425 0,-0.16934 0.0106,-0.254 l 0.381,-3.788837 q 0.0318,-0.264582 0.508,-0.264582 h 0.127 q 0.48683,0 0.45508,0.264582 l -0.35983,3.598337 q -0.0106,0.0529 -0.0106,0.14816 0,0.68792 0.73025,0.68792 0.39158,0 0.79375,-0.33867 0.40217,-0.33866 0.66675,-1.09008 l 0.3175,-3.005667 q 0.0318,-0.264582 0.508,-0.264582 h 0.11641 q 0.48683,0 0.46567,0.264582 l -0.40217,4.032247 q -0.0423,0.43392 0.28575,0.43392 0.11642,0 0.22225,-0.0318 0.10583,-0.0318 0.13758,-0.0318 z"
           style="font-style:italic;font-variant:normal;font-weight:500;font-stretch:normal;font-family:Asap;-inkscape-font-specification:'Asap Medium Italic';fill:#dc78f3;fill-opacity:1"
           id="path1523" />
        <path
           d="m 126.36496,103.76953 q -0.5715,0 -1.03716,-0.1905 -0.45508,-0.20108 -0.45508,-0.47626 0,-0.26458 0.0529,-0.43391 0.0529,-0.16934 0.13759,-0.16934 0.0635,0 0.21166,0.0847 0.23283,0.11642 0.46567,0.20108 0.23283,0.0741 0.55033,0.0741 0.45508,0 0.73025,-0.19049 0.27516,-0.20109 0.27516,-0.53975 0,-0.24342 -0.127,-0.39158 -0.11641,-0.15875 -0.29633,-0.24342 -0.16933,-0.0952 -0.508,-0.22225 -0.56091,-0.22225 -0.89958,-0.5715 -0.33867,-0.35984 -0.33867,-0.931338 0,-0.793748 0.55034,-1.238246 0.56091,-0.444499 1.40758,-0.444499 0.49741,0 0.95249,0.137583 0.45508,0.137583 0.45508,0.402166 0,0.148166 -0.15875,0.380998 -0.15874,0.22225 -0.27516,0.22225 -0.0318,0 -0.17992,-0.0635 -0.13758,-0.07408 -0.3175,-0.116416 -0.16933,-0.05292 -0.42333,-0.05292 -0.43391,0 -0.67733,0.15875 -0.24342,0.158749 -0.24342,0.455081 0,0.232833 0.13759,0.391581 0.13758,0.14817 0.28575,0.22225 0.14816,0.0741 0.57149,0.254 0.56092,0.23284 0.87842,0.56092 0.32808,0.3175 0.32808,0.91017 0,0.53975 -0.26458,0.9525 -0.254,0.41275 -0.71967,0.64559 -0.46566,0.22225 -1.06891,0.22225 z"
           style="font-style:italic;font-variant:normal;font-weight:500;font-stretch:normal;font-family:Asap;-inkscape-font-specification:'Asap Medium Italic';fill:#dc78f3;fill-opacity:1"
           id="path1525" />
      </g>
      <path
         id="path1864"
         style="color:#000000;font-style:normal;font-variant:normal;font-weight:normal;font-stretch:normal;font-size:medium;line-height:1.25;font-family:sans-serif;font-variant-ligatures:normal;font-variant-position:normal;font-variant-caps:normal;font-variant-numeric:normal;font-variant-alternates:normal;font-variant-east-asian:normal;font-feature-settings:normal;font-variation-settings:normal;text-indent:0;text-align:start;text-decoration:none;text-decoration-line:none;text-decoration-style:solid;text-decoration-color:#000000;letter-spacing:0px;word-spacing:0px;text-transform:none;writing-mode:lr-tb;direction:ltr;text-orientation:mixed;dominant-baseline:auto;baseline-shift:baseline;text-anchor:start;white-space:normal;shape-padding:0;shape-margin:0;inline-size:0;clip-rule:nonzero;display:inline;overflow:visible;visibility:visible;isolation:auto;mix-blend-mode:normal;color-interpolation:sRGB;color-interpolation-filters:linearRGB;solid-color:#000000;solid-opacity:1;vector-effect:none;fill:#6426ca;fill-opacity:1;fill-rule:nonzero;stroke:none;stroke-width:0.865;stroke-linecap:butt;stroke-linejoin:miter;stroke-miterlimit:4;stroke-dasharray:none;stroke-dashoffset:0;stroke-opacity:1;color-rendering:auto;image-rendering:auto;shape-rendering:auto;text-rendering:auto;enable-background:accumulate;stop-color:#000000"
         d="m 32.330806,27.392863 c 5.482281,2.783684 5.620139,10.261574 -1.36263,12.247383 -7.128331,1.91003 -9.0775,7.687665 -9.51415,9.449036 l -1.03301,-2.627747 0.84594,4.633825 2.965711,-3.50883 -2.135781,1.686203 c 0.37075,-1.599337 2.143951,-7.254042 8.98963,-9.088334 6.807732,-1.801516 7.372112,-9.852967 1.24429,-12.791536 z"
         sodipodi:nodetypes="ccccccccc" />
    </g>
  </g>
</svg>
